DrBeverlin-tgt_Semibold.ufo
<glyph name="exclam" format="2">
  <advance width="573"/>
  <unicode hex="0021"/>
  <outline>
    <contour>
      <point x="127.928" y="1570.41" type="curve" smooth="yes"/>
      <point x="127.928" y="1210.25"/>
      <point x="131.663" y="850.049"/>
      <point x="131.663" y="489.856" type="curve" smooth="yes"/>
      <point x="131.663" y="455.69"/>
      <point x="148.629" y="438.497"/>
      <point x="182.878" y="438.497" type="curve" smooth="yes"/>
      <point x="379.441" y="438.497" type="line" smooth="yes"/>
      <point x="413.675" y="438.497"/>
      <point x="430.654" y="455.687"/>
      <point x="430.654" y="489.844" type="curve" smooth="yes"/>
      <point x="430.389" y="716.509" type="line" smooth="yes"/>
      <point x="430.389" y="1001.16"/>
      <point x="434.106" y="1285.82"/>
      <point x="434.106" y="1570.45" type="curve" smooth="yes"/>
      <point x="434.106" y="1605.01"/>
      <point x="417.737" y="1622.12"/>
      <point x="382.895" y="1622.12" type="curve" smooth="yes"/>
      <point x="179.14" y="1622.12" type="line" smooth="yes"/>
      <point x="144.245" y="1622.12"/>
      <point x="127.928" y="1605"/>
    </contour>
    <contour>
      <point x="289.765" y="-60.6245" type="curve" smooth="yes"/>
      <point x="398.309" y="-60.6245"/>
      <point x="493.872" y="1.61774"/>
      <point x="493.872" y="118.38" type="curve" smooth="yes"/>
      <point x="493.872" y="228.153"/>
      <point x="411.263" y="305.088"/>
      <point x="302.932" y="305.088" type="curve" smooth="yes"/>
      <point x="198.967" y="305.088"/>
      <point x="81.2511" y="233.871"/>
      <point x="81.2511" y="119.382" type="curve" smooth="yes" name=".hr01"/>
      <point x="81.2511" y="1.62815"/>
      <point x="181.182" y="-60.6245"/>
    </contour>
  </outline>
</glyph>
<glyph name="quotedbl" format="2">
  <advance width="801"/>
  <unicode hex="0022"/>
  <outline>
    <contour>
      <point x="321.179" y="1553.63" type="curve" smooth="yes"/>
      <point x="126.212" y="1553.63" type="line" smooth="yes"/>
      <point x="90.7118" y="1553.63"/>
      <point x="74.9907" y="1536.39"/>
      <point x="74.9907" y="1501.46" type="curve" smooth="yes"/>
      <point x="74.9907" y="1413.25"/>
      <point x="77.8657" y="1324.84"/>
      <point x="78.9089" y="1236.61" type="curve" smooth="yes"/>
      <point x="79.564" y="1181.21"/>
      <point x="77.5076" y="1124.55"/>
      <point x="80.5705" y="1069.33" type="curve" smooth="yes"/>
      <point x="82.4676" y="1035.12"/>
      <point x="96.0268" y="1018.48"/>
      <point x="131.799" y="1018.48" type="curve" smooth="yes"/>
      <point x="312.95" y="1018.48" type="line" smooth="yes"/>
      <point x="348.614" y="1018.48"/>
      <point x="362.161" y="1035.08"/>
      <point x="364.245" y="1069.16" type="curve" smooth="yes"/>
      <point x="367.628" y="1124.48"/>
      <point x="366.107" y="1181.18"/>
      <point x="367.249" y="1236.68" type="curve" smooth="yes"/>
      <point x="369.067" y="1325.02"/>
      <point x="372.273" y="1413.59"/>
      <point x="372.273" y="1501.93" type="curve" smooth="yes"/>
      <point x="372.273" y="1536.55"/>
      <point x="356.189" y="1553.63"/>
    </contour>
    <contour>
      <point x="698.081" y="1553.63" type="curve" smooth="yes"/>
      <point x="504.426" y="1553.63" type="line" smooth="yes"/>
      <point x="470.601" y="1553.63"/>
      <point x="453.231" y="1536.5"/>
      <point x="453.231" y="1502.59" type="curve" smooth="yes"/>
      <point x="453.231" y="1358.3"/>
      <point x="452.336" y="1214.02"/>
      <point x="452.336" y="1069.73" type="curve" smooth="yes"/>
      <point x="452.336" y="1035.67"/>
      <point x="469.426" y="1018.48"/>
      <point x="503.531" y="1018.48" type="curve" smooth="yes"/>
      <point x="682.709" y="1018.48" type="line" smooth="yes"/>
      <point x="717.724" y="1018.48"/>
      <point x="731.989" y="1034.98"/>
      <point x="734.031" y="1068.75" type="curve" smooth="yes"/>
      <point x="736.822" y="1114.92"/>
      <point x="736.488" y="1161.77"/>
      <point x="738.044" y="1208.06" type="curve" smooth="yes"/>
      <point x="741.322" y="1305.56"/>
      <point x="745.453" y="1403.03"/>
      <point x="749.203" y="1500.52" type="curve"/>
      <point x="749.281" y="1504.48" type="line"/>
      <point x="749.281" y="1538.15"/>
      <point x="731.001" y="1553.63"/>
    </contour>
  </outline>
</glyph>
<glyph name="numbersign" format="2">
  <advance width="1454"/>
  <unicode hex="0023"/>
  <outline>
    <contour>
      <point x="652.6" y="1389.83" type="curve" smooth="yes"/>
      <point x="453.399" y="1389.83" type="line" smooth="yes"/>
      <point x="423.692" y="1389.83"/>
      <point x="408.016" y="1375.57"/>
      <point x="402.809" y="1346.75" type="curve" smooth="yes"/>
      <point x="385.454" y="1250.66"/>
      <point x="375.779" y="1151.03"/>
      <point x="353.894" y="1056.01" type="curve" smooth="yes"/>
      <point x="351.81" y="1046.96"/>
      <point x="347.432" y="1042.46"/>
      <point x="337.761" y="1042.46" type="curve" smooth="yes"/>
      <point x="176.054" y="1042.46" type="line" smooth="yes"/>
      <point x="144.507" y="1042.46"/>
      <point x="128.733" y="1027.27"/>
      <point x="125.373" y="996.313" type="curve" smooth="yes"/>
      <point x="117.688" y="925.497"/>
      <point x="113.788" y="853.964"/>
      <point x="107.406" y="782.978" type="curve"/>
      <point x="106.917" y="773.19" type="line" name=".hr01"/>
      <point x="106.917" y="739.48"/>
      <point x="126.774" y="725.981"/>
      <point x="158.813" y="725.981" type="curve" smooth="yes"/>
      <point x="299.876" y="725.981" type="line" smooth="yes"/>
      <point x="308.493" y="725.981"/>
      <point x="317.238" y="723.547"/>
      <point x="317.238" y="713.286" type="curve" smooth="yes"/>
      <point x="317.238" y="707.224"/>
      <point x="303.726" y="664.181"/>
      <point x="300.772" y="657.746" type="curve" smooth="yes"/>
      <point x="297.544" y="650.713"/>
      <point x="293.751" y="647.146"/>
      <point x="285.6" y="647.146" type="curve" smooth="yes"/>
      <point x="122.45" y="647.146" type="line" smooth="yes"/>
      <point x="90.6314" y="647.146"/>
      <point x="75.113" y="631.739"/>
      <point x="71.1253" y="600.788" type="curve" smooth="yes"/>
      <point x="43.5624" y="385.352" type="line" smooth="yes"/>
      <point x="43.0152" y="381.051"/>
      <point x="42.6318" y="376.743"/>
      <point x="42.6318" y="372.403" type="curve" smooth="yes"/>
      <point x="42.6318" y="339.565"/>
      <point x="63.7101" y="327.577"/>
      <point x="94.1663" y="327.577" type="curve" smooth="yes"/>
      <point x="239.799" y="327.577" type="line" smooth="yes"/>
      <point x="249.174" y="327.577"/>
      <point x="256.38" y="323.977"/>
      <point x="256.38" y="313.644" type="curve"/>
      <point x="255.915" y="308.551" type="line"/>
      <point x="244.298" y="225.509"/>
      <point x="223.962" y="143.162"/>
      <point x="208.8" y="60.6863" type="curve" smooth="yes"/>
      <point x="207.697" y="54.6901"/>
      <point x="206.864" y="48.6793"/>
      <point x="206.864" y="42.5689" type="curve" smooth="yes"/>
      <point x="206.864" y="10.1839"/>
      <point x="229.806" y="0"/>
      <point x="258.882" y="0" type="curve" smooth="yes"/>
      <point x="459.433" y="0" type="line" smooth="yes"/>
      <point x="489.858" y="0"/>
      <point x="505.422" y="14.7323"/>
      <point x="510.686" y="44.1233" type="curve" smooth="yes"/>
      <point x="526.415" y="131.938"/>
      <point x="540.58" y="227.035"/>
      <point x="559.074" y="313.574" type="curve" smooth="yes"/>
      <point x="561.069" y="322.909"/>
      <point x="565.333" y="327.577"/>
      <point x="575.337" y="327.577" type="curve" smooth="yes"/>
      <point x="739.56" y="327.577" type="line" smooth="yes"/>
      <point x="749.03" y="327.577"/>
      <point x="756.102" y="323.844"/>
      <point x="756.102" y="313.486" type="curve"/>
      <point x="755.708" y="308.771" type="line"/>
      <point x="744.844" y="225.158"/>
      <point x="725.902" y="142.255"/>
      <point x="712.601" y="58.9679" type="curve" smooth="yes"/>
      <point x="711.773" y="53.7828"/>
      <point x="711.175" y="48.5839"/>
      <point x="711.175" y="43.3254" type="curve" smooth="yes"/>
      <point x="711.175" y="10.9311"/>
      <point x="733.27" y="0"/>
      <point x="762.755" y="0" type="curve" smooth="yes"/>
      <point x="962.986" y="0" type="line" smooth="yes"/>
      <point x="993.595" y="0"/>
      <point x="1009.25" y="14.8082"/>
      <point x="1014.09" y="44.5154" type="curve" smooth="yes"/>
      <point x="1028.47" y="132.819"/>
      <point x="1038.72" y="226.344"/>
      <point x="1056.64" y="313.495" type="curve" smooth="yes"/>
      <point x="1058.57" y="322.891"/>
      <point x="1062.84" y="327.577"/>
      <point x="1072.89" y="327.577" type="curve" smooth="yes"/>
      <point x="1253.69" y="327.577" type="line" smooth="yes"/>
      <point x="1286.4" y="327.577"/>
      <point x="1301.87" y="343.445"/>
      <point x="1305.19" y="375.31" type="curve" smooth="yes"/>
      <point x="1327.73" y="590.561" type="line" smooth="yes"/>
      <point x="1328.12" y="594.174"/>
      <point x="1328.37" y="597.793"/>
      <point x="1328.37" y="601.428" type="curve" smooth="yes"/>
      <point x="1328.37" y="634.411"/>
      <point x="1307.98" y="647.146"/>
      <point x="1277.01" y="647.146" type="curve" smooth="yes"/>
      <point x="1113.54" y="647.146" type="line" smooth="yes"/>
      <point x="1105.14" y="647.146"/>
      <point x="1096.72" y="649.71"/>
      <point x="1096.72" y="659.641" type="curve" smooth="yes"/>
      <point x="1096.72" y="666.213"/>
      <point x="1110.58" y="708.217"/>
      <point x="1113.86" y="715.195" type="curve" smooth="yes"/>
      <point x="1117.2" y="722.304"/>
      <point x="1120.89" y="725.981"/>
      <point x="1129.22" y="725.981" type="curve" smooth="yes"/>
      <point x="1313.66" y="725.981" type="line" smooth="yes"/>
      <point x="1344.77" y="725.981"/>
      <point x="1360.55" y="740.938"/>
      <point x="1364.27" y="771.428" type="curve" smooth="yes"/>
      <point x="1372.96" y="842.556"/>
      <point x="1377.72" y="914.694"/>
      <point x="1383.97" y="986.101" type="curve"/>
      <point x="1384.41" y="995.408" type="line"/>
      <point x="1384.41" y="1028.91"/>
      <point x="1364.62" y="1042.46"/>
      <point x="1332.76" y="1042.46" type="curve" smooth="yes"/>
      <point x="1169.66" y="1042.46" type="line" smooth="yes"/>
      <point x="1160.41" y="1042.46"/>
      <point x="1152.96" y="1045.83"/>
      <point x="1152.96" y="1056.15" type="curve"/>
      <point x="1153.57" y="1061.96" type="line"/>
      <point x="1167.69" y="1151.03"/>
      <point x="1189.34" y="1239.59"/>
      <point x="1206.23" y="1328.23" type="curve" smooth="yes"/>
      <point x="1207.43" y="1334.53"/>
      <point x="1208.35" y="1340.85"/>
      <point x="1208.35" y="1347.28" type="curve" smooth="yes"/>
      <point x="1208.35" y="1379.85"/>
      <point x="1185.12" y="1389.83"/>
      <point x="1155.98" y="1389.83" type="curve" smooth="yes"/>
      <point x="955.905" y="1389.83" type="line" smooth="yes"/>
      <point x="926.373" y="1389.83"/>
      <point x="910.758" y="1375.65"/>
      <point x="905.243" y="1347.1" type="curve" smooth="yes"/>
      <point x="886.675" y="1250.97"/>
      <point x="874.247" y="1151.27"/>
      <point x="852.512" y="1056.09" type="curve" smooth="yes"/>
      <point x="850.434" y="1046.99"/>
      <point x="846.075" y="1042.46"/>
      <point x="836.343" y="1042.46" type="curve" smooth="yes"/>
      <point x="670.76" y="1042.46" type="line" smooth="yes"/>
      <point x="661.43" y="1042.46"/>
      <point x="654.097" y="1045.94"/>
      <point x="654.097" y="1056.29" type="curve"/>
      <point x="654.637" y="1061.78" type="line"/>
      <point x="667.997" y="1151.23"/>
      <point x="687.772" y="1240.19"/>
      <point x="703.01" y="1329.4" type="curve" smooth="yes"/>
      <point x="703.981" y="1335.08"/>
      <point x="704.701" y="1340.78"/>
      <point x="704.701" y="1346.56" type="curve" smooth="yes"/>
      <point x="704.701" y="1379.24"/>
      <point x="682.166" y="1389.83"/>
    </contour>
    <contour>
      <point x="620.975" y="725.981" type="curve"/>
      <point x="816.335" y="725.981" type="line"/>
      <point x="810.503" y="699.343"/>
      <point x="801.75" y="673.478"/>
      <point x="794.749" y="647.146" type="curve"/>
      <point x="595.428" y="647.146" type="line"/>
      <point x="605.23" y="672.98"/>
      <point x="614.147" y="699.191"/>
    </contour>
  </outline>
</glyph>
<glyph name="dollar" format="2">
  <advance width="995"/>
  <unicode hex="0024"/>
  <outline>
    <contour>
      <point x="481.022" y="-143.792" type="line" smooth="yes"/>
      <point x="547.99" y="-143.792"/>
      <point x="532.189" y="-75.2004"/>
      <point x="532.102" y="-28.775" type="curve" smooth="yes"/>
      <point x="532.081" y="-17.9773"/>
      <point x="537.128" y="-14.019"/>
      <point x="547.095" y="-12.2096" type="curve" smooth="yes"/>
      <point x="594.463" y="-3.61117"/>
      <point x="637.067" y="3.70129"/>
      <point x="681.522" y="23.6818" type="curve" smooth="yes"/>
      <point x="857.423" y="102.74"/>
      <point x="926.075" y="285.924"/>
      <point x="926.075" y="468.235" type="curve" smooth="yes"/>
      <point x="926.075" y="680.979"/>
      <point x="847.395" y="815.248"/>
      <point x="655.341" y="908.626" type="curve" smooth="yes"/>
      <point x="647.264" y="912.553"/>
      <point x="638.665" y="915.564"/>
      <point x="638.665" y="926.317" type="curve" smooth="yes"/>
      <point x="638.665" y="1018.64"/>
      <point x="639.632" y="1110.97"/>
      <point x="639.632" y="1203.29" type="curve" smooth="yes"/>
      <point x="639.632" y="1211.17"/>
      <point x="641.809" y="1220.3"/>
      <point x="651.554" y="1220.3" type="curve" smooth="yes"/>
      <point x="691.518" y="1220.3"/>
      <point x="794.719" y="1137.91"/>
      <point x="826.759" y="1137.91" type="curve" smooth="yes"/>
      <point x="848.285" y="1137.91"/>
      <point x="859.419" y="1155.51"/>
      <point x="867.771" y="1172.75" type="curve" smooth="yes"/>
      <point x="882.306" y="1202.75"/>
      <point x="965.591" y="1380.75"/>
      <point x="965.591" y="1399.68" type="curve" smooth="yes"/>
      <point x="965.591" y="1414.64"/>
      <point x="958.293" y="1424.87"/>
      <point x="947.817" y="1434.71" type="curve" smooth="yes"/>
      <point x="885.703" y="1493.07"/>
      <point x="804.146" y="1540.08"/>
      <point x="721.779" y="1561.94" type="curve" smooth="yes"/>
      <point x="700.21" y="1567.66"/>
      <point x="678.516" y="1569.92"/>
      <point x="656.938" y="1574.66" type="curve" smooth="yes"/>
      <point x="647.106" y="1576.82"/>
      <point x="642.173" y="1580.42"/>
      <point x="642.274" y="1591.31" type="curve" smooth="yes"/>
      <point x="642.507" y="1616.64"/>
      <point x="642.975" y="1641.98"/>
      <point x="642.975" y="1667.31" type="curve" smooth="yes"/>
      <point x="642.975" y="1701.87"/>
      <point x="626.62" y="1718.98"/>
      <point x="591.777" y="1718.98" type="curve" smooth="yes"/>
      <point x="498.59" y="1718.98" type="line" smooth="yes"/>
      <point x="464.346" y="1718.98"/>
      <point x="447.39" y="1701.77"/>
      <point x="447.39" y="1667.62" type="curve" smooth="yes"/>
      <point x="447.647" y="1587.92" type="line" smooth="yes"/>
      <point x="447.678" y="1578.13"/>
      <point x="442.972" y="1573.94"/>
      <point x="434.059" y="1571.52" type="curve" smooth="yes"/>
      <point x="398.89" y="1561.94"/>
      <point x="366.531" y="1553.97"/>
      <point x="333.425" y="1537.84" type="curve" smooth="yes"/>
      <point x="169.07" y="1457.79"/>
      <point x="102.233" y="1281.68"/>
      <point x="102.233" y="1107.8" type="curve" smooth="yes"/>
      <point x="102.345" y="1095.31" type="line" smooth="yes"/>
      <point x="106" y="894.351"/>
      <point x="171.144" y="776.924"/>
      <point x="334.173" y="662.295" type="curve" smooth="yes"/>
      <point x="339.095" y="658.834"/>
      <point x="341.941" y="654.443"/>
      <point x="341.941" y="648.272" type="curve" smooth="yes"/>
      <point x="341.941" y="556.522"/>
      <point x="341.307" y="464.773"/>
      <point x="341.307" y="373.024" type="curve" smooth="yes"/>
      <point x="341.307" y="365.78"/>
      <point x="339.548" y="355.361"/>
      <point x="330.032" y="355.361" type="curve" smooth="yes"/>
      <point x="300.156" y="355.361"/>
      <point x="226.667" y="425.726"/>
      <point x="194.603" y="425.726" type="curve" smooth="yes"/>
      <point x="173.48" y="425.726"/>
      <point x="161.521" y="407.668"/>
      <point x="152.526" y="391.125" type="curve" smooth="yes"/>
      <point x="135.811" y="360.385"/>
      <point x="43.0755" y="186.37"/>
      <point x="43.0755" y="165.689" type="curve" smooth="yes"/>
      <point x="43.0755" y="149.738"/>
      <point x="51.6067" y="139.562"/>
      <point x="63.1948" y="129.831" type="curve" smooth="yes"/>
      <point x="118.348" y="83.5182"/>
      <point x="194.649" y="44.6423"/>
      <point x="262.342" y="20.7843" type="curve" smooth="yes"/>
      <point x="283.37" y="13.373"/>
      <point x="305.11" y="8.89484"/>
      <point x="326.091" y="1.95466" type="curve" smooth="yes"/>
      <point x="334.733" y="-0.903691"/>
      <point x="339.066" y="-4.59408"/>
      <point x="338.981" y="-14.3437" type="curve" smooth="yes"/>
      <point x="338.754" y="-40.273"/>
      <point x="338.301" y="-66.2147"/>
      <point x="338.301" y="-92.1449" type="curve" smooth="yes"/>
      <point x="338.301" y="-126.685"/>
      <point x="354.691" y="-143.792"/>
      <point x="389.499" y="-143.792" type="curve" smooth="yes"/>
    </contour>
    <contour>
      <point x="531.479" y="532.313" type="line"/>
      <point x="556.714" y="501.097"/>
      <point x="573.888" y="461.745"/>
      <point x="573.888" y="421.156" type="curve" smooth="yes"/>
      <point x="573.888" y="388.428"/>
      <point x="561.498" y="356.818"/>
      <point x="531.607" y="340.333" type="curve"/>
    </contour>
  </outline>
</glyph>
<glyph name="percent" format="2">
  <advance width="1645"/>
  <unicode hex="0025"/>
  <outline>
    <contour>
      <point x="390.881" y="664.111" type="curve" smooth="yes"/>
      <point x="640.674" y="664.111"/>
      <point x="727.268" y="876.136"/>
      <point x="727.268" y="1093.49" type="curve" smooth="yes"/>
      <point x="727.268" y="1315.13"/>
      <point x="633.644" y="1520.43"/>
      <point x="383.022" y="1520.43" type="curve" smooth="yes"/>
      <point x="139.208" y="1520.43"/>
      <point x="51.8287" y="1328.44"/>
      <point x="51.8287" y="1112.43" type="curve" smooth="yes"/>
      <point x="51.8287" y="890.364"/>
      <point x="130.581" y="664.111"/>
    </contour>
    <contour>
      <point x="336.846" y="1162.62" type="curve" smooth="yes"/>
      <point x="336.846" y="1199.55"/>
      <point x="336.391" y="1261.52"/>
      <point x="386.359" y="1261.52" type="curve" smooth="yes"/>
      <point x="449.739" y="1261.52"/>
      <point x="438.026" y="1159.97"/>
      <point x="438.026" y="1116.84" type="curve" smooth="yes"/>
      <point x="438.026" y="1087.43"/>
      <point x="439.556" y="1057.94"/>
      <point x="439.556" y="1028.47" type="curve" smooth="yes"/>
      <point x="439.556" y="995.83"/>
      <point x="439.479" y="916.741"/>
      <point x="391.846" y="916.741" type="curve" smooth="yes"/>
      <point x="324.362" y="916.741"/>
      <point x="336.846" y="1110.27"/>
    </contour>
    <contour>
      <point x="1267.67" y="-77.3774" type="curve" smooth="yes"/>
      <point x="1514" y="-77.3774"/>
      <point x="1594.53" y="118.803"/>
      <point x="1594.53" y="334.281" type="curve" smooth="yes"/>
      <point x="1594.53" y="555.085"/>
      <point x="1515.5" y="780.867"/>
      <point x="1256.95" y="780.867" type="curve" smooth="yes"/>
      <point x="1011.23" y="780.867"/>
      <point x="919.567" y="575.689"/>
      <point x="919.567" y="359.264" type="curve" smooth="yes"/>
      <point x="919.567" y="133.236"/>
      <point x="1009.81" y="-77.3774"/>
    </contour>
    <contour>
      <point x="1204.36" y="420.689" type="curve" smooth="yes"/>
      <point x="1204.36" y="458.99"/>
      <point x="1203.93" y="521.381"/>
      <point x="1255.51" y="521.381" type="curve"/>
      <point x="1261.34" y="521.758" type="line"/>
      <point x="1315.31" y="521.758"/>
      <point x="1305.18" y="411.652"/>
      <point x="1305.18" y="377.026" type="curve" smooth="yes"/>
      <point x="1305.18" y="346.407"/>
      <point x="1307.07" y="315.676"/>
      <point x="1307.07" y="284.986" type="curve" smooth="yes"/>
      <point x="1307.07" y="252.443"/>
      <point x="1306.62" y="177.466"/>
      <point x="1259.62" y="177.466" type="curve" smooth="yes"/>
      <point x="1191.18" y="177.466"/>
      <point x="1204.36" y="369.101"/>
    </contour>
    <contour>
      <point x="1440.73" y="1519.42" type="curve" smooth="yes"/>
      <point x="1236.14" y="1519.42" type="line" smooth="yes"/>
      <point x="1217.76" y="1519.42"/>
      <point x="1205.21" y="1512.19"/>
      <point x="1194.32" y="1497.73" type="curve" smooth="yes"/>
      <point x="1150.1" y="1439.02"/>
      <point x="1109.41" y="1376.35"/>
      <point x="1067.66" y="1315.8" type="curve" smooth="yes"/>
      <point x="973.281" y="1178.93"/>
      <point x="880.16" y="1041.2"/>
      <point x="787.263" y="903.314" type="curve" smooth="yes"/>
      <point x="663.399" y="719.471"/>
      <point x="539.968" y="535.332"/>
      <point x="414.531" y="352.557" type="curve" smooth="yes"/>
      <point x="351.82" y="261.181"/>
      <point x="287.083" y="171.126"/>
      <point x="224.606" y="79.628" type="curve" smooth="yes" name=".hr01"/>
      <point x="215.407" y="66.1569"/>
      <point x="203.72" y="48.6766"/>
      <point x="203.72" y="31.445" type="curve" smooth="yes"/>
      <point x="203.72" y="1.05622"/>
      <point x="245.702" y="-1.20105"/>
      <point x="265.676" y="-1.50968" type="curve" smooth="yes"/>
      <point x="465.764" y="-4.60138" type="line" smooth="yes"/>
      <point x="484.605" y="-4.89251"/>
      <point x="497.388" y="2.41724"/>
      <point x="508.497" y="17.2561" type="curve" smooth="yes"/>
      <point x="552.654" y="76.2368"/>
      <point x="593.183" y="139.275"/>
      <point x="634.875" y="200.086" type="curve" smooth="yes"/>
      <point x="729.138" y="337.574"/>
      <point x="822.344" y="475.783"/>
      <point x="915.535" y="613.999" type="curve" smooth="yes"/>
      <point x="1039.78" y="798.283"/>
      <point x="1163.97" y="982.618"/>
      <point x="1290.53" y="1165.33" type="curve" smooth="yes"/>
      <point x="1353.81" y="1256.68"/>
      <point x="1419.21" y="1346.59"/>
      <point x="1482.41" y="1437.96" type="curve" smooth="yes"/>
      <point x="1491.87" y="1451.63"/>
      <point x="1504.2" y="1469.66"/>
      <point x="1504.2" y="1487.27" type="curve" smooth="yes"/>
      <point x="1504.2" y="1518.13"/>
      <point x="1460.45" y="1519.42"/>
    </contour>
  </outline>
</glyph>
<glyph name="ampersand" format="2">
  <advance width="1430"/>
  <unicode hex="0026"/>
  <outline>
    <contour>
      <point x="1072.97" y="491.695" type="curve" smooth="yes"/>
      <point x="1072.97" y="493.31"/>
      <point x="1073.52" y="495.786"/>
      <point x="1073.98" y="497.335" type="curve" smooth="yes"/>
      <point x="1093.81" y="563.42"/>
      <point x="1227.87" y="912.724"/>
      <point x="1227.87" y="942.561" type="curve" smooth="yes"/>
      <point x="1227.87" y="974.182"/>
      <point x="1199.21" y="980.521"/>
      <point x="1173.24" y="980.521" type="curve" smooth="yes"/>
      <point x="977.555" y="980.521" type="line" smooth="yes"/>
      <point x="953.503" y="980.521"/>
      <point x="937.309" y="969.073"/>
      <point x="929.287" y="946.397" type="curve" smooth="yes"/>
      <point x="921.92" y="925.573"/>
      <point x="886.707" y="806.531"/>
      <point x="872.038" y="806.531" type="curve" smooth="yes"/>
      <point x="865.259" y="806.531"/>
      <point x="859.702" y="815.188"/>
      <point x="856.511" y="819.779" type="curve" smooth="yes"/>
      <point x="805.798" y="892.746"/>
      <point x="756.916" y="969.9"/>
      <point x="710.073" y="1045.45" type="curve" smooth="yes"/>
      <point x="683.906" y="1087.66"/>
      <point x="643.698" y="1162.04"/>
      <point x="643.698" y="1212.07" type="curve" smooth="yes"/>
      <point x="643.698" y="1257.6"/>
      <point x="669.864" y="1294.57"/>
      <point x="718" y="1294.57" type="curve" smooth="yes"/>
      <point x="820.072" y="1294.57"/>
      <point x="889.213" y="1146.55"/>
      <point x="931.448" y="1146.55" type="curve" smooth="yes"/>
      <point x="949.966" y="1146.55"/>
      <point x="962.458" y="1162.77"/>
      <point x="972.31" y="1176.12" type="curve" smooth="yes"/>
      <point x="1011.99" y="1229.88"/>
      <point x="1052.9" y="1289.54"/>
      <point x="1088.59" y="1346.02" type="curve" smooth="yes"/>
      <point x="1094.17" y="1354.84"/>
      <point x="1098.55" y="1363.9"/>
      <point x="1098.55" y="1374.59" type="curve" smooth="yes"/>
      <point x="1098.55" y="1384.69"/>
      <point x="1094.56" y="1393.54"/>
      <point x="1088.98" y="1401.74" type="curve" smooth="yes"/>
      <point x="997.427" y="1536.06"/>
      <point x="833.659" y="1617.08"/>
      <point x="672.631" y="1617.08" type="curve" smooth="yes"/>
      <point x="452.81" y="1617.08"/>
      <point x="290.636" y="1465.94"/>
      <point x="290.636" y="1242.77" type="curve" smooth="yes"/>
      <point x="290.636" y="1140.42"/>
      <point x="337.591" y="1041.17"/>
      <point x="383.77" y="952.468" type="curve" smooth="yes"/>
      <point x="385.38" y="949.376"/>
      <point x="386.777" y="946.074"/>
      <point x="386.777" y="942.519" type="curve" smooth="yes"/>
      <point x="386.777" y="935.739"/>
      <point x="381.428" y="931.996"/>
      <point x="376.081" y="929.153" type="curve" smooth="yes"/>
      <point x="185.413" y="827.761"/>
      <point x="69.2806" y="668.046"/>
      <point x="64.243" y="447.676" type="curve"/>
      <point x="64.1857" y="439.728" type="line" smooth="yes"/>
      <point x="64.1857" y="156.804"/>
      <point x="277.735" y="-28.1434"/>
      <point x="553.322" y="-28.1434" type="curve" smooth="yes"/>
      <point x="691.527" y="-28.1434"/>
      <point x="801.952" y="21.0749"/>
      <point x="894.2" y="123.271" type="curve" smooth="yes"/>
      <point x="897.751" y="127.205"/>
      <point x="902.148" y="132.038"/>
      <point x="908.001" y="132.038" type="curve" smooth="yes"/>
      <point x="938.414" y="132.038"/>
      <point x="968.324" y="0"/>
      <point x="1030.32" y="0" type="curve" smooth="yes"/>
      <point x="1302.32" y="0" type="line" smooth="yes"/>
      <point x="1323.97" y="0"/>
      <point x="1364.76" y="2.26033"/>
      <point x="1364.76" y="32.5242" type="curve" smooth="yes"/>
      <point x="1364.76" y="49.7516"/>
      <point x="1353.67" y="66.6898"/>
      <point x="1344.66" y="80.4728" type="curve" smooth="yes"/>
      <point x="1315.93" y="124.385"/>
      <point x="1072.97" y="478.068"/>
    </contour>
    <contour>
      <point x="734.416" y="407.11" type="line"/>
      <point x="703.263" y="339.664"/>
      <point x="656.64" y="314.579"/>
      <point x="583.676" y="314.579" type="curve" smooth="yes"/>
      <point x="482.035" y="314.579"/>
      <point x="414.031" y="390.98"/>
      <point x="414.031" y="490.429" type="curve" smooth="yes"/>
      <point x="414.031" y="574.386"/>
      <point x="466.495" y="668.569"/>
      <point x="554.748" y="683.89" type="curve"/>
    </contour>
  </outline>
</glyph>
<glyph name="quotesingle" format="2">
  <advance width="475"/>
  <unicode hex="0027"/>
  <outline>
    <contour>
      <point x="342.169" y="1553.63" type="curve" smooth="yes"/>
      <point x="138.781" y="1553.63" type="line" smooth="yes"/>
      <point x="103.987" y="1553.63"/>
      <point x="87.5695" y="1536.52"/>
      <point x="87.5695" y="1501.98" type="curve" smooth="yes"/>
      <point x="87.5695" y="1357.84"/>
      <point x="90.1483" y="1213.67"/>
      <point x="90.1483" y="1069.52" type="curve" smooth="yes"/>
      <point x="90.1483" y="1035.62"/>
      <point x="107.565" y="1018.48"/>
      <point x="141.362" y="1018.48" type="curve" smooth="yes"/>
      <point x="328.967" y="1018.48" type="line" smooth="yes"/>
      <point x="364.083" y="1018.48"/>
      <point x="377.72" y="1034.82"/>
      <point x="380.189" y="1068.4" type="curve" smooth="yes"/>
      <point x="384.928" y="1132.83"/>
      <point x="383.835" y="1199"/>
      <point x="385.819" y="1263.69" type="curve" smooth="yes"/>
      <point x="388.236" y="1342.48"/>
      <point x="393.336" y="1422.03"/>
      <point x="393.336" y="1500.8" type="curve" smooth="yes"/>
      <point x="393.336" y="1536.31"/>
      <point x="378.745" y="1553.63"/>
    </contour>
  </outline>
</glyph>
<glyph name="parenleft" format="2">
  <advance width="815"/>
  <unicode hex="0028"/>
  <outline>
    <contour>
      <point x="94.7863" y="626.188" type="curve" smooth="yes"/>
      <point x="94.7863" y="288.563"/>
      <point x="214.906" y="-89.7435"/>
      <point x="456.603" y="-333.272" type="curve" smooth="yes"/>
      <point x="465.86" y="-342.599"/>
      <point x="476.947" y="-349.361"/>
      <point x="490.482" y="-349.361" type="curve" smooth="yes"/>
      <point x="509.958" y="-349.361"/>
      <point x="669.248" y="-271.768"/>
      <point x="695.449" y="-257.485" type="curve" smooth="yes"/>
      <point x="711.826" y="-248.558"/>
      <point x="732.232" y="-237.653"/>
      <point x="732.232" y="-215.733" type="curve" smooth="yes"/>
      <point x="732.232" y="-199.368"/>
      <point x="721.277" y="-185.625"/>
      <point x="711.654" y="-173.637" type="curve" smooth="yes"/>
      <point x="682.102" y="-136.825"/>
      <point x="653.221" y="-101.139"/>
      <point x="627.387" y="-61.467" type="curve" smooth="yes"/>
      <point x="494.549" y="142.524"/>
      <point x="437.072" y="386.476"/>
      <point x="437.072" y="628.136" type="curve" smooth="yes"/>
      <point x="437.072" y="868.737"/>
      <point x="494.186" y="1110.54"/>
      <point x="625.492" y="1314.13" type="curve" smooth="yes"/>
      <point x="651.055" y="1353.77"/>
      <point x="679.644" y="1389.55"/>
      <point x="708.819" y="1426.44" type="curve" smooth="yes"/>
      <point x="718.269" y="1438.39"/>
      <point x="728.916" y="1452.03"/>
      <point x="728.916" y="1468.21" type="curve" smooth="yes"/>
      <point x="728.916" y="1490.08"/>
      <point x="708.715" y="1501.01"/>
      <point x="692.313" y="1509.89" type="curve" smooth="yes"/>
      <point x="666.788" y="1523.71"/>
      <point x="508.279" y="1600.6"/>
      <point x="489.589" y="1600.6" type="curve" smooth="yes"/>
      <point x="476.053" y="1600.6"/>
      <point x="464.97" y="1593.83"/>
      <point x="455.721" y="1584.5" type="curve" smooth="yes"/>
      <point x="217.61" y="1344.15"/>
      <point x="94.7863" y="959.413"/>
    </contour>
  </outline>
</glyph>
<glyph name="parenright" format="2">
  <advance width="815"/>
  <unicode hex="0029"/>
  <outline>
    <contour>
      <point x="720.352" y="626.188" type="curve" smooth="yes"/>
      <point x="720.352" y="959.807"/>
      <point x="597.974" y="1342.55"/>
      <point x="360.645" y="1584.01" type="curve" smooth="yes"/>
      <point x="351.379" y="1593.44"/>
      <point x="340.265" y="1600.33"/>
      <point x="326.635" y="1600.33" type="curve" smooth="yes"/>
      <point x="307.202" y="1600.33"/>
      <point x="149.483" y="1521.86"/>
      <point x="123.486" y="1507.41" type="curve" smooth="yes"/>
      <point x="107.245" y="1498.38"/>
      <point x="87.2893" y="1487.44"/>
      <point x="87.2893" y="1465.7" type="curve" smooth="yes"/>
      <point x="87.2893" y="1449.43"/>
      <point x="98.0874" y="1435.78"/>
      <point x="107.642" y="1423.84" type="curve" smooth="yes"/>
      <point x="136.893" y="1387.28"/>
      <point x="165.517" y="1351.85"/>
      <point x="191.116" y="1312.49" type="curve" smooth="yes"/>
      <point x="322.536" y="1110.42"/>
      <point x="379.05" y="869.518"/>
      <point x="379.05" y="630.239" type="curve" smooth="yes"/>
      <point x="379.05" y="387.552"/>
      <point x="321.144" y="142.704"/>
      <point x="188.392" y="-62.4795" type="curve" smooth="yes"/>
      <point x="162.586" y="-102.365"/>
      <point x="133.731" y="-138.31"/>
      <point x="104.224" y="-175.37" type="curve" smooth="yes"/>
      <point x="94.673" y="-187.365"/>
      <point x="83.822" y="-201.104"/>
      <point x="83.822" y="-217.414" type="curve" smooth="yes"/>
      <point x="83.822" y="-239.448"/>
      <point x="104.396" y="-250.278"/>
      <point x="120.878" y="-259.141" type="curve" smooth="yes"/>
      <point x="146.228" y="-272.774"/>
      <point x="307.475" y="-349.617"/>
      <point x="325.729" y="-349.617" type="curve" smooth="yes"/>
      <point x="339.088" y="-349.617"/>
      <point x="350.113" y="-343.044"/>
      <point x="359.325" y="-333.886" type="curve" smooth="yes"/>
      <point x="601.467" y="-93.1671"/>
      <point x="720.352" y="290.807"/>
    </contour>
  </outline>
</glyph>
<glyph name="asterisk" format="2">
  <advance width="868"/>
  <unicode hex="002A"/>
  <outline>
    <contour>
      <point x="381.051" y="914.616" type="curve" smooth="yes"/>
      <point x="485.225" y="914.616" type="line" smooth="yes"/>
      <point x="563.652" y="914.616"/>
      <point x="508.833" y="1019.82"/>
      <point x="544.157" y="1019.82" type="curve" smooth="yes"/>
      <point x="578.28" y="1019.82"/>
      <point x="672.32" y="972.532"/>
      <point x="709.638" y="972.532" type="curve" smooth="yes"/>
      <point x="728.532" y="972.532"/>
      <point x="741.218" y="983.815"/>
      <point x="750.227" y="999.462" type="curve" smooth="yes"/>
      <point x="764.392" y="1024.06"/>
      <point x="813.926" y="1106"/>
      <point x="813.926" y="1129.05" type="curve" smooth="yes"/>
      <point x="813.926" y="1184.91"/>
      <point x="659.164" y="1184.78"/>
      <point x="659.164" y="1210.35" type="curve" smooth="yes"/>
      <point x="659.164" y="1236.13"/>
      <point x="822.196" y="1239.57"/>
      <point x="822.196" y="1295.75" type="curve" smooth="yes"/>
      <point x="822.196" y="1317.63"/>
      <point x="779.59" y="1390.16"/>
      <point x="766.928" y="1413.57" type="curve" smooth="yes"/>
      <point x="757.792" y="1430.47"/>
      <point x="744.731" y="1442.7"/>
      <point x="724.565" y="1442.7" type="curve" smooth="yes"/>
      <point x="687.257" y="1442.7"/>
      <point x="582.014" y="1396.01"/>
      <point x="550.846" y="1396.01" type="curve" smooth="yes"/>
      <point x="540.114" y="1396.01"/>
      <point x="538.494" y="1404.96"/>
      <point x="538.494" y="1413.73" type="curve" smooth="yes"/>
      <point x="538.494" y="1432.35"/>
      <point x="540.63" y="1450.95"/>
      <point x="540.63" y="1469.57" type="curve" smooth="yes"/>
      <point x="540.63" y="1502.39"/>
      <point x="522.587" y="1517.41"/>
      <point x="490.564" y="1517.41" type="curve" smooth="yes"/>
      <point x="385.052" y="1517.41" type="line" smooth="yes"/>
      <point x="321.007" y="1517.41"/>
      <point x="333.889" y="1459.01"/>
      <point x="334.126" y="1412.79" type="curve" smooth="yes"/>
      <point x="334.17" y="1404.2"/>
      <point x="331.658" y="1395.64"/>
      <point x="321.547" y="1395.64" type="curve" smooth="yes"/>
      <point x="289.118" y="1395.64"/>
      <point x="187.817" y="1444.58"/>
      <point x="150.09" y="1444.58" type="curve" smooth="yes"/>
      <point x="130.959" y="1444.58"/>
      <point x="118.301" y="1433.08"/>
      <point x="109.555" y="1417.04" type="curve" smooth="yes"/>
      <point x="96.9138" y="1393.85"/>
      <point x="55.0237" y="1319.39"/>
      <point x="55.0237" y="1297.51" type="curve" smooth="yes"/>
      <point x="55.0237" y="1241.47"/>
      <point x="206.323" y="1238.93"/>
      <point x="206.323" y="1213.22" type="curve" smooth="yes"/>
      <point x="206.323" y="1187.78"/>
      <point x="56.8859" y="1190.8"/>
      <point x="56.8859" y="1134.6" type="curve" smooth="yes"/>
      <point x="56.8859" y="1111.46"/>
      <point x="104.903" y="1031.84"/>
      <point x="118.861" y="1007.11" type="curve" smooth="yes"/>
      <point x="128.007" y="990.903"/>
      <point x="140.904" y="979.493"/>
      <point x="160.346" y="979.493" type="curve" smooth="yes"/>
      <point x="197.15" y="979.493"/>
      <point x="291.541" y="1022.49"/>
      <point x="322.806" y="1022.49" type="curve" smooth="yes"/>
      <point x="359.241" y="1022.49"/>
      <point x="299.62" y="914.616"/>
    </contour>
  </outline>
</glyph>
<glyph name="plus" format="2">
  <advance width="969"/>
  <unicode hex="002B"/>
  <outline>
    <contour>
      <point x="330.899" y="670.525" type="line" smooth="yes"/>
      <point x="330.906" y="659.761"/>
      <point x="325.279" y="654.131"/>
      <point x="314.515" y="654.131" type="curve" smooth="yes"/>
      <point x="163.043" y="654.131" type="line" smooth="yes"/>
      <point x="129.174" y="654.131"/>
      <point x="111.808" y="636.962"/>
      <point x="111.808" y="603.017" type="curve" smooth="yes"/>
      <point x="111.808" y="531.443"/>
      <point x="110.54" y="459.863"/>
      <point x="110.54" y="388.294" type="curve" smooth="yes"/>
      <point x="110.54" y="353.713"/>
      <point x="126.909" y="336.574"/>
      <point x="161.773" y="336.574" type="curve" smooth="yes"/>
      <point x="313.66" y="336.574" type="line" smooth="yes"/>
      <point x="324.463" y="336.574"/>
      <point x="330.102" y="330.904"/>
      <point x="330.043" y="320.101" type="curve" smooth="yes"/>
      <point x="329.185" y="161.839" type="line" smooth="yes"/>
      <point x="328.999" y="127.632"/>
      <point x="346.176" y="110.361"/>
      <point x="380.384" y="110.361" type="curve" smooth="yes"/>
      <point x="576.829" y="110.361" type="line" smooth="yes"/>
      <point x="611.021" y="110.361"/>
      <point x="628.198" y="127.624"/>
      <point x="628.028" y="161.816" type="curve" smooth="yes"/>
      <point x="627.24" y="320.109" type="line" smooth="yes"/>
      <point x="627.187" y="330.907"/>
      <point x="632.826" y="336.574"/>
      <point x="643.624" y="336.574" type="curve" smooth="yes"/>
      <point x="794.548" y="336.574" type="line" smooth="yes"/>
      <point x="829.388" y="336.574"/>
      <point x="845.78" y="353.708"/>
      <point x="845.78" y="388.275" type="curve" smooth="yes"/>
      <point x="845.78" y="459.849"/>
      <point x="844.558" y="531.434"/>
      <point x="844.558" y="603.014" type="curve" smooth="yes"/>
      <point x="844.558" y="636.962"/>
      <point x="827.199" y="654.131"/>
      <point x="793.324" y="654.131" type="curve" smooth="yes"/>
      <point x="642.839" y="654.131" type="line" smooth="yes"/>
      <point x="632.076" y="654.131"/>
      <point x="626.45" y="659.761"/>
      <point x="626.455" y="670.524" type="curve" smooth="yes"/>
      <point x="626.546" y="836.433" type="line" smooth="yes"/>
      <point x="626.565" y="870.475"/>
      <point x="609.387" y="887.661"/>
      <point x="575.346" y="887.661" type="curve" smooth="yes"/>
      <point x="382.001" y="887.661" type="line" smooth="yes"/>
      <point x="347.958" y="887.661"/>
      <point x="330.78" y="870.474"/>
      <point x="330.801" y="836.431" type="curve" smooth="yes"/>
    </contour>
  </outline>
</glyph>
<glyph name="comma" format="2">
  <advance width="575"/>
  <unicode hex="002C"/>
  <outline>
    <contour>
      <point x="450.643" y="187.505" type="curve" smooth="yes"/>
      <point x="270.924" y="187.505" type="line" smooth="yes"/>
      <point x="249.791" y="187.505"/>
      <point x="236.431" y="178.641"/>
      <point x="225.934" y="160.737" type="curve" smooth="yes"/>
      <point x="198.413" y="113.795"/>
      <point x="173.744" y="64.5618"/>
      <point x="147.603" y="16.7845" type="curve" smooth="yes"/>
      <point x="111.293" y="-49.5788"/>
      <point x="73.7112" y="-115.222"/>
      <point x="37.2321" y="-181.474" type="curve" smooth="yes"/>
      <point x="30.009" y="-194.592"/>
      <point x="22.3892" y="-209.258"/>
      <point x="22.3892" y="-224.66" type="curve" smooth="yes"/>
      <point x="22.3892" y="-255.309"/>
      <point x="58.8846" y="-258.729"/>
      <point x="81.877" y="-258.729" type="curve" smooth="yes"/>
      <point x="242.292" y="-258.729" type="line" smooth="yes"/>
      <point x="262.35" y="-258.729"/>
      <point x="274.823" y="-250.762"/>
      <point x="285.801" y="-234.476" type="curve" smooth="yes"/>
      <point x="314.65" y="-191.677"/>
      <point x="340.37" y="-145.626"/>
      <point x="367.186" y="-101.463" type="curve" smooth="yes"/>
      <point x="409.862" y="-31.1812"/>
      <point x="453.348" y="38.9057"/>
      <point x="494.567" y="110.041" type="curve" smooth="yes"/>
      <point x="502.212" y="123.234"/>
      <point x="510.435" y="138.172"/>
      <point x="510.435" y="153.903" type="curve" smooth="yes"/>
      <point x="510.435" y="184.292"/>
      <point x="473.229" y="187.505"/>
    </contour>
  </outline>
</glyph>
<glyph name="hyphen" format="2">
  <advance width="870"/>
  <unicode hex="002D"/>
  <outline>
    <contour>
      <point x="143.331" y="396.168" type="curve" smooth="yes"/>
      <point x="143.331" y="361.678"/>
      <point x="159.853" y="344.571"/>
      <point x="194.557" y="344.571" type="curve" smooth="yes"/>
      <point x="664.604" y="344.571" type="line" smooth="yes"/>
      <point x="699.289" y="344.571"/>
      <point x="715.829" y="361.674"/>
      <point x="715.829" y="396.153" type="curve" smooth="yes"/>
      <point x="715.829" y="469.087"/>
      <point x="714.902" y="542.023"/>
      <point x="714.902" y="614.959" type="curve" smooth="yes"/>
      <point x="714.902" y="648.933"/>
      <point x="697.6" y="666.107"/>
      <point x="663.676" y="666.107" type="curve" smooth="yes"/>
      <point x="195.521" y="666.107" type="line" smooth="yes"/>
      <point x="161.6" y="666.107"/>
      <point x="144.293" y="648.933"/>
      <point x="144.293" y="614.961" type="curve" smooth="yes"/>
      <point x="144.293" y="542.029"/>
      <point x="143.331" y="469.098"/>
    </contour>
  </outline>
</glyph>
<glyph name="period" format="2">
  <advance width="575"/>
  <unicode hex="002E"/>
  <outline>
    <contour>
      <point x="107.509" y="178.094" type="curve" smooth="yes"/>
      <point x="107.509" y="80.6029"/>
      <point x="188.633" y="0"/>
      <point x="286.061" y="0" type="curve" smooth="yes"/>
      <point x="383.16" y="0"/>
      <point x="468.61" y="79.944"/>
      <point x="468.61" y="178.236" type="curve" smooth="yes"/>
      <point x="468.61" y="275.93"/>
      <point x="386.754" y="367.061"/>
      <point x="286.752" y="367.061" type="curve" smooth="yes"/>
      <point x="185.802" y="367.061"/>
      <point x="107.509" y="275.887"/>
    </contour>
  </outline>
</glyph>
<glyph name="slash" format="2">
  <advance width="678"/>
  <unicode hex="002F"/>
  <outline>
    <contour>
      <point x="669.015" y="1590.88" type="curve" smooth="yes"/>
      <point x="477.826" y="1590.88" type="line" smooth="yes"/>
      <point x="450.773" y="1590.88"/>
      <point x="437.699" y="1579.01"/>
      <point x="428.849" y="1554.52" type="curve" smooth="yes"/>
      <point x="405.882" y="1490.96"/>
      <point x="389.332" y="1422.61"/>
      <point x="370.167" y="1357.66" type="curve" smooth="yes"/>
      <point x="336.255" y="1242.73"/>
      <point x="302.844" y="1127.65"/>
      <point x="269.557" y="1012.53" type="curve" smooth="yes"/>
      <point x="174.43" y="683.551"/>
      <point x="78.0993" y="355.195"/>
      <point x="-20.9391" y="27.3702" type="curve" smooth="yes"/>
      <point x="-23.6076" y="18.5374"/>
      <point x="-25.7245" y="9.41178"/>
      <point x="-25.7245" y="0.128105" type="curve" smooth="yes"/>
      <point x="-25.7245" y="-32.0123"/>
      <point x="1.33135" y="-39.1774"/>
      <point x="28.0234" y="-39.1774" type="curve" smooth="yes"/>
      <point x="216.74" y="-39.1774" type="line" smooth="yes"/>
      <point x="243.891" y="-39.1774"/>
      <point x="256.959" y="-27.2543"/>
      <point x="265.766" y="-2.65637" type="curve" smooth="yes"/>
      <point x="288.552" y="60.9771"/>
      <point x="304.896" y="129.375"/>
      <point x="323.912" y="194.376" type="curve" smooth="yes"/>
      <point x="357.561" y="309.396"/>
      <point x="390.798" y="424.536"/>
      <point x="424.034" y="539.676" type="curve" smooth="yes"/>
      <point x="519.035" y="868.79"/>
      <point x="616.344" y="1196.74"/>
      <point x="717.868" y="1523.9" type="curve" smooth="yes"/>
      <point x="720.672" y="1532.93"/>
      <point x="722.923" y="1542.28"/>
      <point x="722.923" y="1551.8" type="curve" smooth="yes"/>
      <point x="722.923" y="1583.91"/>
      <point x="695.538" y="1590.88"/>
    </contour>
  </outline>
</glyph>
<glyph name="zero" format="2">
  <advance width="1290"/>
  <unicode hex="0030"/>
  <outline>
    <contour>
      <point x="641.002" y="2.00836" type="curve" smooth="yes"/>
      <point x="1028.24" y="2.00836"/>
      <point x="1237.37" y="213.991"/>
      <point x="1237.37" y="600.354" type="curve" smooth="yes"/>
      <point x="1237.37" y="1010.25"/>
      <point x="1050.39" y="1215.7"/>
      <point x="634.899" y="1215.7" type="curve" smooth="yes"/>
      <point x="213.845" y="1215.7"/>
      <point x="52.6215" y="1005.29"/>
      <point x="52.6215" y="599.192" type="curve" smooth="yes"/>
      <point x="52.6215" y="209.548"/>
      <point x="247.61" y="2.00836"/>
    </contour>
    <contour>
      <point x="643.15" y="330.033" type="curve" smooth="yes"/>
      <point x="458.519" y="330.033"/>
      <point x="373.93" y="431.714"/>
      <point x="373.93" y="611.218" type="curve" smooth="yes"/>
      <point x="373.93" y="789.855"/>
      <point x="464.504" y="884.302"/>
      <point x="644.314" y="884.302" type="curve" smooth="yes"/>
      <point x="819.03" y="884.302"/>
      <point x="917.038" y="795.439"/>
      <point x="917.038" y="618.204" type="curve" smooth="yes"/>
      <point x="917.038" y="435.891"/>
      <point x="831.492" y="330.033"/>
    </contour>
  </outline>
</glyph>
<glyph name="one" format="2">
  <advance width="659"/>
  <unicode hex="0031"/>
  <outline>
    <contour>
      <point x="31.6126" y="1146.72" type="curve" smooth="yes"/>
      <point x="31.6126" y="1070.73"/>
      <point x="33.1385" y="994.729"/>
      <point x="33.1385" y="918.733" type="curve" smooth="yes"/>
      <point x="33.1385" y="884.833"/>
      <point x="50.5807" y="867.697"/>
      <point x="84.3659" y="867.697" type="curve" smooth="yes"/>
      <point x="184.008" y="867.697" type="line" smooth="yes"/>
      <point x="194.78" y="867.697"/>
      <point x="200.391" y="862.12"/>
      <point x="200.391" y="851.336" type="curve" smooth="yes"/>
      <point x="200.474" y="717.115" type="line" smooth="yes"/>
      <point x="200.474" y="495.254"/>
      <point x="198.427" y="273.39"/>
      <point x="198.427" y="51.5383" type="curve" smooth="yes"/>
      <point x="198.427" y="17.2558"/>
      <point x="215.164" y="0"/>
      <point x="249.638" y="0" type="curve" smooth="yes"/>
      <point x="494.244" y="0" type="line" smooth="yes"/>
      <point x="529.183" y="0"/>
      <point x="545.461" y="17.1365"/>
      <point x="545.461" y="51.7543" type="curve" smooth="yes"/>
      <point x="545.461" y="273.603"/>
      <point x="542.114" y="495.486"/>
      <point x="542.114" y="717.36" type="curve" smooth="yes"/>
      <point x="542.114" y="860.532"/>
      <point x="543.513" y="1003.71"/>
      <point x="543.513" y="1146.87" type="curve" smooth="yes"/>
      <point x="543.513" y="1181.18"/>
      <point x="526.807" y="1198.45"/>
      <point x="492.295" y="1198.45" type="curve" smooth="yes"/>
      <point x="82.8381" y="1198.45" type="line" smooth="yes"/>
      <point x="47.9542" y="1198.45"/>
      <point x="31.6126" y="1181.31"/>
    </contour>
  </outline>
</glyph>
<glyph name="two" format="2">
  <advance width="1059"/>
  <unicode hex="0032"/>
  <outline>
    <contour>
      <point x="200.257" y="0" type="curve" smooth="yes"/>
      <point x="934.595" y="0" type="line" smooth="yes"/>
      <point x="970.444" y="0"/>
      <point x="985.825" y="17.2259"/>
      <point x="985.825" y="52.3705" type="curve" smooth="yes"/>
      <point x="985.825" y="113.167"/>
      <point x="986.217" y="176.484"/>
      <point x="982.447" y="237.083" type="curve" smooth="yes"/>
      <point x="980.333" y="271.048"/>
      <point x="966.719" y="287.578"/>
      <point x="931.211" y="287.578" type="curve" smooth="yes"/>
      <point x="766.032" y="287.578" type="line" smooth="yes"/>
      <point x="760.174" y="287.578"/>
      <point x="744.577" y="287.589"/>
      <point x="744.577" y="297.523" type="curve" smooth="yes"/>
      <point x="744.577" y="314.606"/>
      <point x="989.674" y="566.989"/>
      <point x="989.674" y="801.824" type="curve" smooth="yes"/>
      <point x="989.674" y="1057.13"/>
      <point x="763.109" y="1213.54"/>
      <point x="524.863" y="1213.54" type="curve" smooth="yes"/>
      <point x="506.695" y="1213.52" type="line" smooth="yes"/>
      <point x="264.681" y="1213.52"/>
      <point x="50.7933" y="1061.23"/>
      <point x="50.7933" y="803.82" type="curve" smooth="yes"/>
      <point x="50.7933" y="684.76"/>
      <point x="106.104" y="544.685"/>
      <point x="204.435" y="472.926" type="curve" smooth="yes"/>
      <point x="212.696" y="466.898"/>
      <point x="221.68" y="462.152"/>
      <point x="232.185" y="462.152" type="curve" smooth="yes"/>
      <point x="246.846" y="462.152"/>
      <point x="257.045" y="470.552"/>
      <point x="266.887" y="480.272" type="curve" smooth="yes"/>
      <point x="305.541" y="518.446"/>
      <point x="345.409" y="562.565"/>
      <point x="380.086" y="604.409" type="curve" smooth="yes"/>
      <point x="389.354" y="615.592"/>
      <point x="397.253" y="626.478"/>
      <point x="397.253" y="641.686" type="curve" smooth="yes"/>
      <point x="397.253" y="675.713"/>
      <point x="349.289" y="705.584"/>
      <point x="349.289" y="775.25" type="curve" smooth="yes"/>
      <point x="349.289" y="868.57"/>
      <point x="416.584" y="921.605"/>
      <point x="506.464" y="921.605" type="curve" smooth="yes"/>
      <point x="607.516" y="921.605"/>
      <point x="659.616" y="848.69"/>
      <point x="659.616" y="752.93" type="curve" smooth="yes"/>
      <point x="659.616" y="728.362"/>
      <point x="646.716" y="683.765"/>
      <point x="638.427" y="660.24" type="curve" smooth="yes"/>
      <point x="560.783" y="439.907"/>
      <point x="323.504" y="247.477"/>
      <point x="164.678" y="82.0398" type="curve" smooth="yes"/>
      <point x="152.604" y="69.4623"/>
      <point x="132.339" y="48.5411"/>
      <point x="132.339" y="29.3969" type="curve" smooth="yes"/>
      <point x="132.339" y="1.02292"/>
      <point x="181.688" y="0"/>
    </contour>
  </outline>
</glyph>
<glyph name="three" format="2">
  <advance width="997"/>
  <unicode hex="0033"/>
  <outline>
    <contour>
      <point x="815.246" y="1198.45" type="curve" smooth="yes"/>
      <point x="188.588" y="1198.45" type="line" smooth="yes"/>
      <point x="153.565" y="1198.45"/>
      <point x="137.358" y="1181.28"/>
      <point x="137.358" y="1146.61" type="curve" smooth="yes"/>
      <point x="137.358" y="1094.21"/>
      <point x="136.585" y="1040.8"/>
      <point x="138.781" y="988.489" type="curve" smooth="yes"/>
      <point x="140.218" y="954.275"/>
      <point x="154.667" y="937.58"/>
      <point x="190.014" y="937.58" type="curve" smooth="yes"/>
      <point x="445.41" y="937.58" type="line" smooth="yes"/>
      <point x="452.191" y="937.58"/>
      <point x="464.639" y="936.689"/>
      <point x="464.639" y="926.872" type="curve" smooth="yes"/>
      <point x="464.639" y="910.725"/>
      <point x="239.896" y="559.668"/>
      <point x="239.896" y="551.557" type="curve" smooth="yes"/>
      <point x="239.896" y="546.588"/>
      <point x="242.769" y="543.645"/>
      <point x="247.786" y="543.645" type="curve" smooth="yes"/>
      <point x="273.978" y="543.645"/>
      <point x="300.38" y="549.356"/>
      <point x="326.879" y="549.356" type="curve" smooth="yes"/>
      <point x="406.115" y="549.356"/>
      <point x="566.026" y="527.192"/>
      <point x="566.026" y="420.517" type="curve" smooth="yes"/>
      <point x="566.026" y="336.099"/>
      <point x="459.751" y="316.338"/>
      <point x="394.216" y="316.338" type="curve" smooth="yes"/>
      <point x="303.879" y="316.338"/>
      <point x="267.32" y="376.473"/>
      <point x="230.44" y="376.473" type="curve" smooth="yes"/>
      <point x="208.773" y="376.473"/>
      <point x="195.009" y="356.794"/>
      <point x="184.45" y="340.582" type="curve" smooth="yes"/>
      <point x="146.718" y="282.654"/>
      <point x="108.032" y="222.55"/>
      <point x="73.5925" y="162.665" type="curve" smooth="yes"/>
      <point x="68.3854" y="153.611"/>
      <point x="63.9201" y="144.334"/>
      <point x="63.9201" y="133.625" type="curve" smooth="yes"/>
      <point x="63.9201" y="118.593"/>
      <point x="72.5684" y="108.255"/>
      <point x="83.7599" y="99.3864" type="curve" smooth="yes"/>
      <point x="174.386" y="27.572"/>
      <point x="334.525" y="-14.0605"/>
      <point x="449.039" y="-14.0605" type="curve" smooth="yes"/>
      <point x="697.275" y="-14.0605"/>
      <point x="917.779" y="139.5"/>
      <point x="917.779" y="404.031" type="curve" smooth="yes"/>
      <point x="917.779" y="589.538"/>
      <point x="828.392" y="703.697"/>
      <point x="656.487" y="764.227" type="curve" smooth="yes"/>
      <point x="650.308" y="766.403"/>
      <point x="642.28" y="769.464"/>
      <point x="642.28" y="777.481" type="curve" smooth="yes"/>
      <point x="642.28" y="789.353"/>
      <point x="835.019" y="1082.1"/>
      <point x="858.241" y="1119.14" type="curve" smooth="yes"/>
      <point x="866.704" y="1132.64"/>
      <point x="876.586" y="1148.97"/>
      <point x="876.586" y="1165.5" type="curve" smooth="yes"/>
      <point x="876.586" y="1195.81"/>
      <point x="837.298" y="1198.45"/>
    </contour>
  </outline>
</glyph>
<glyph name="four" format="2">
  <advance width="1130"/>
  <unicode hex="0034"/>
  <outline>
    <contour>
      <point x="626.176" y="0" type="curve" smooth="yes"/>
      <point x="870.795" y="0" type="line" smooth="yes"/>
      <point x="906.216" y="0"/>
      <point x="922.02" y="17.2327"/>
      <point x="922.02" y="52.1169" type="curve" smooth="yes"/>
      <point x="922.02" y="108.387"/>
      <point x="919.566" y="164.697"/>
      <point x="919.566" y="220.975" type="curve" smooth="yes"/>
      <point x="919.566" y="273.015"/>
      <point x="1076.92" y="187.004"/>
      <point x="1076.92" y="289.648" type="curve" smooth="yes"/>
      <point x="1076.92" y="333.603"/>
      <point x="1077.48" y="378.861"/>
      <point x="1075.18" y="422.707" type="curve" smooth="yes"/>
      <point x="1073.39" y="456.828"/>
      <point x="1059.42" y="473.453"/>
      <point x="1023.93" y="473.453" type="curve" smooth="yes"/>
      <point x="933.505" y="473.453" type="line" smooth="yes"/>
      <point x="921.638" y="473.453"/>
      <point x="918.147" y="478.828"/>
      <point x="917.125" y="489.737" type="curve" smooth="yes"/>
      <point x="915.07" y="511.672"/>
      <point x="916.882" y="535.723"/>
      <point x="916.794" y="557.877" type="curve" smooth="yes"/>
      <point x="916.475" y="716.872" type="line" smooth="yes"/>
      <point x="916.475" y="864.792"/>
      <point x="918.948" y="1012.72"/>
      <point x="918.948" y="1160.62" type="curve" smooth="yes"/>
      <point x="918.948" y="1195.29"/>
      <point x="902.749" y="1212.46"/>
      <point x="867.719" y="1212.46" type="curve" smooth="yes"/>
      <point x="602.699" y="1212.46" type="line" smooth="yes"/>
      <point x="582.396" y="1212.46"/>
      <point x="568.517" y="1203.77"/>
      <point x="558.206" y="1186.57" type="curve" smooth="yes"/>
      <point x="486.312" y="1066.62"/>
      <point x="420.11" y="942.29"/>
      <point x="351.372" y="820.44" type="curve" smooth="yes"/>
      <point x="256.009" y="651.388"/>
      <point x="158.347" y="483.659"/>
      <point x="62.7243" y="314.783" type="curve" smooth="yes"/>
      <point x="55.324" y="301.713"/>
      <point x="47.4833" y="286.884"/>
      <point x="47.4833" y="271.406" type="curve" smooth="yes"/>
      <point x="47.4833" y="240.886"/>
      <point x="84.2623" y="237.556"/>
      <point x="107.024" y="237.556" type="curve" smooth="yes"/>
      <point x="558.521" y="237.556" type="line" smooth="yes"/>
      <point x="569.316" y="237.556"/>
      <point x="574.9" y="231.975"/>
      <point x="574.905" y="221.179" type="curve" smooth="yes"/>
      <point x="574.976" y="51.1786" type="line" smooth="yes"/>
      <point x="574.99" y="17.1678"/>
      <point x="592.165" y="0"/>
    </contour>
    <contour>
      <point x="392.293" y="473.453" type="line"/>
      <point x="453.361" y="580.836"/>
      <point x="514.052" y="688.433"/>
      <point x="574.819" y="795.986" type="curve"/>
      <point x="574.838" y="473.453" type="line"/>
    </contour>
  </outline>
</glyph>
<glyph name="five" format="2">
  <advance width="1034"/>
  <unicode hex="0035"/>
  <outline>
    <contour>
      <point x="498.354" y="-14.1016" type="curve" smooth="yes"/>
      <point x="732.618" y="-14.1016"/>
      <point x="967.29" y="151.619"/>
      <point x="967.29" y="401.535" type="curve" smooth="yes"/>
      <point x="967.29" y="650.708"/>
      <point x="734.529" y="772.949"/>
      <point x="512.478" y="772.949" type="curve" smooth="yes"/>
      <point x="498.729" y="772.949"/>
      <point x="484.987" y="772.147"/>
      <point x="471.241" y="772.147" type="curve" smooth="yes"/>
      <point x="459.687" y="772.147"/>
      <point x="453.887" y="776.422"/>
      <point x="453.812" y="788.556" type="curve" smooth="yes"/>
      <point x="453.212" y="886.151" type="line" smooth="yes"/>
      <point x="453.145" y="897.017"/>
      <point x="458.729" y="902.636"/>
      <point x="469.596" y="902.636" type="curve" smooth="yes"/>
      <point x="809.093" y="902.636" type="line" smooth="yes"/>
      <point x="844.675" y="902.636"/>
      <point x="858.748" y="919.334"/>
      <point x="860.325" y="953.602" type="curve" smooth="yes"/>
      <point x="863.259" y="1017.36"/>
      <point x="861.9" y="1082.75"/>
      <point x="861.9" y="1146.64" type="curve" smooth="yes"/>
      <point x="861.9" y="1181.29"/>
      <point x="845.656" y="1198.45"/>
      <point x="810.671" y="1198.45" type="curve" smooth="yes"/>
      <point x="210.482" y="1198.45" type="line" smooth="yes"/>
      <point x="175.467" y="1198.45"/>
      <point x="159.251" y="1181.28"/>
      <point x="159.251" y="1146.62" type="curve" smooth="yes"/>
      <point x="159.251" y="954.483"/>
      <point x="161.323" y="762.317"/>
      <point x="161.323" y="570.158" type="curve" smooth="yes"/>
      <point x="161.323" y="543.724"/>
      <point x="166.374" y="513.258"/>
      <point x="199.193" y="513.258" type="curve" smooth="yes"/>
      <point x="211.423" y="513.258"/>
      <point x="223.03" y="517.056"/>
      <point x="234.453" y="520.962" type="curve" smooth="yes"/>
      <point x="289.853" y="539.906"/>
      <point x="343.904" y="555.389"/>
      <point x="403.063" y="555.389" type="curve" smooth="yes"/>
      <point x="480.434" y="555.389"/>
      <point x="616.426" y="544.463"/>
      <point x="616.426" y="439.496" type="curve" smooth="yes"/>
      <point x="616.426" y="341.532"/>
      <point x="485.986" y="319.578"/>
      <point x="411.166" y="319.578" type="curve" smooth="yes"/>
      <point x="355.52" y="319.578"/>
      <point x="303.314" y="329.233"/>
      <point x="251.256" y="348.58" type="curve" smooth="yes"/>
      <point x="241.809" y="352.091"/>
      <point x="232.393" y="355.229"/>
      <point x="222.179" y="355.229" type="curve" smooth="yes"/>
      <point x="202.027" y="355.229"/>
      <point x="191.384" y="344.316"/>
      <point x="180.216" y="329.151" type="curve" smooth="yes"/>
      <point x="145.084" y="281.448"/>
      <point x="106.197" y="222.041"/>
      <point x="75.5553" y="171.219" type="curve" smooth="yes"/>
      <point x="69.9882" y="161.985"/>
      <point x="65.1612" y="152.412"/>
      <point x="65.1612" y="141.334" type="curve" smooth="yes"/>
      <point x="65.1612" y="125.59"/>
      <point x="74.7874" y="114.988"/>
      <point x="86.6823" y="106.109" type="curve" smooth="yes"/>
      <point x="192.9" y="26.8249"/>
      <point x="367.298" y="-14.1016"/>
    </contour>
  </outline>
</glyph>
<glyph name="six" format="2">
  <advance width="1137"/>
  <unicode hex="0036"/>
  <outline>
    <contour>
      <point x="578.974" y="-14.0605" type="curve" smooth="yes"/>
      <point x="843.668" y="-14.0605"/>
      <point x="1094.01" y="130.48"/>
      <point x="1094.01" y="421.26" type="curve" smooth="yes"/>
      <point x="1094.01" y="674.686"/>
      <point x="920.987" y="811.841"/>
      <point x="677.09" y="811.841" type="curve" smooth="yes"/>
      <point x="623.973" y="811.841"/>
      <point x="573.957" y="802.687"/>
      <point x="524.622" y="782.999" type="curve" smooth="yes"/>
      <point x="513.465" y="778.546"/>
      <point x="485.133" y="765.553"/>
      <point x="472.087" y="765.553" type="curve" smooth="yes"/>
      <point x="469.51" y="765.553"/>
      <point x="466.453" y="766.267"/>
      <point x="466.453" y="769.46" type="curve" smooth="yes"/>
      <point x="466.453" y="779.471"/>
      <point x="495.606" y="809.999"/>
      <point x="500.042" y="814.909" type="curve" smooth="yes"/>
      <point x="571.486" y="893.985"/>
      <point x="660.283" y="940.164"/>
      <point x="757.331" y="979.748" type="curve" smooth="yes"/>
      <point x="775.916" y="987.329"/>
      <point x="805.545" y="998.288"/>
      <point x="805.545" y="1023.26" type="curve" smooth="yes"/>
      <point x="805.545" y="1040.96"/>
      <point x="792.095" y="1055.89"/>
      <point x="781.512" y="1068.37" type="curve" smooth="yes"/>
      <point x="741.8" y="1115.17"/>
      <point x="681.752" y="1181.9"/>
      <point x="638.396" y="1224.57" type="curve" smooth="yes"/>
      <point x="628.263" y="1234.55"/>
      <point x="618.089" y="1242.15"/>
      <point x="603.182" y="1242.15" type="curve" smooth="yes"/>
      <point x="594.581" y="1242.15"/>
      <point x="586.357" y="1239.42"/>
      <point x="578.769" y="1235.56" type="curve" smooth="yes"/>
      <point x="299.75" y="1093.62"/>
      <point x="44.8884" y="835.401"/>
      <point x="44.8884" y="503.868" type="curve" smooth="yes"/>
      <point x="44.8884" y="186.157"/>
      <point x="266.722" y="-14.0605"/>
    </contour>
    <contour>
      <point x="396.644" y="400.536" type="curve" smooth="yes"/>
      <point x="396.644" y="409.291"/>
      <point x="397.018" y="418.783"/>
      <point x="397.729" y="427.509" type="curve" smooth="yes"/>
      <point x="404.367" y="508.947"/>
      <point x="512.131" y="524.413"/>
      <point x="576.567" y="524.413" type="curve" smooth="yes"/>
      <point x="642.641" y="524.413"/>
      <point x="739.442" y="499.908"/>
      <point x="739.442" y="417.52" type="curve" smooth="yes"/>
      <point x="739.442" y="330.633"/>
      <point x="645.289" y="293.519"/>
      <point x="571.335" y="293.519" type="curve" smooth="yes"/>
      <point x="505.6" y="293.519"/>
      <point x="396.644" y="316.031"/>
    </contour>
  </outline>
</glyph>
<glyph name="seven" format="2">
  <advance width="979"/>
  <unicode hex="0037"/>
  <outline>
    <contour>
      <point x="880.264" y="1198.45" type="curve" smooth="yes"/>
      <point x="104.472" y="1198.45" type="line" smooth="yes"/>
      <point x="69.2675" y="1198.45"/>
      <point x="53.2359" y="1181.25"/>
      <point x="53.2359" y="1146.48" type="curve" smooth="yes"/>
      <point x="53.2359" y="1076.89"/>
      <point x="51.125" y="985.156"/>
      <point x="55.4727" y="917.66" type="curve" smooth="yes"/>
      <point x="57.6777" y="883.429"/>
      <point x="70.5489" y="866.699"/>
      <point x="106.712" y="866.699" type="curve" smooth="yes"/>
      <point x="438.721" y="866.699" type="line" smooth="yes"/>
      <point x="446.608" y="866.699"/>
      <point x="456.435" y="864.931"/>
      <point x="456.435" y="854.874" type="curve" smooth="yes"/>
      <point x="456.435" y="851.172"/>
      <point x="455.256" y="847.538"/>
      <point x="453.899" y="844.142" type="curve" smooth="yes"/>
      <point x="350.492" y="585.345"/>
      <point x="240.151" y="329.479"/>
      <point x="134.83" y="71.5278" type="curve" smooth="yes"/>
      <point x="130.297" y="60.4271"/>
      <point x="126.099" y="48.7269"/>
      <point x="126.099" y="36.5516" type="curve" smooth="yes"/>
      <point x="126.099" y="5.21538"/>
      <point x="157.121" y="0"/>
      <point x="181.975" y="0" type="curve" smooth="yes"/>
      <point x="453.165" y="0" type="line" smooth="yes"/>
      <point x="477.538" y="0"/>
      <point x="491.305" y="10.6541"/>
      <point x="500.805" y="32.485" type="curve" smooth="yes"/>
      <point x="520.861" y="78.5738"/>
      <point x="537.706" y="126.928"/>
      <point x="555.914" y="173.828" type="curve" smooth="yes"/>
      <point x="665.267" y="456.854" type="line" smooth="yes"/>
      <point x="751.678" y="681.003"/>
      <point x="840.778" y="904.048"/>
      <point x="927.813" y="1127.92" type="curve" smooth="yes"/>
      <point x="931.954" y="1138.58"/>
      <point x="935.64" y="1149.8"/>
      <point x="935.64" y="1161.38" type="curve" smooth="yes"/>
      <point x="935.64" y="1192.83"/>
      <point x="905.514" y="1198.45"/>
    </contour>
  </outline>
</glyph>
<glyph name="eight" format="2">
  <advance width="1006"/>
  <unicode hex="0038"/>
  <outline>
    <contour>
      <point x="25.1132" y="401.535" type="curve" smooth="yes"/>
      <point x="25.1132" y="152.398"/>
      <point x="259.501" y="-14.141"/>
      <point x="493.045" y="-14.141" type="curve" smooth="yes"/>
      <point x="509.954" y="-14.1236" type="line" smooth="yes"/>
      <point x="742.443" y="-14.1236"/>
      <point x="980.303" y="151.943"/>
      <point x="980.303" y="400.682" type="curve" smooth="yes"/>
      <point x="980.303" y="542.611"/>
      <point x="909.812" y="635.618"/>
      <point x="796.783" y="712.137" type="curve" smooth="yes"/>
      <point x="792.015" y="715.365"/>
      <point x="785.509" y="719.656"/>
      <point x="785.509" y="726.32" type="curve" smooth="yes"/>
      <point x="785.509" y="732.417"/>
      <point x="790.758" y="737.021"/>
      <point x="794.791" y="740.734" type="curve" smooth="yes"/>
      <point x="861.803" y="802.435"/>
      <point x="880.711" y="854.722"/>
      <point x="880.711" y="945.568" type="curve" smooth="yes"/>
      <point x="880.711" y="1126.74"/>
      <point x="661.368" y="1213.46"/>
      <point x="508.942" y="1213.46" type="curve" smooth="yes"/>
      <point x="341.93" y="1213.46"/>
      <point x="144.082" y="1118.19"/>
      <point x="144.082" y="927.595" type="curve" smooth="yes"/>
      <point x="144.082" y="847.659"/>
      <point x="161.733" y="798.258"/>
      <point x="217.205" y="740.698" type="curve" smooth="yes"/>
      <point x="220.863" y="736.902"/>
      <point x="225.313" y="732.435"/>
      <point x="225.313" y="726.686" type="curve" smooth="yes"/>
      <point x="225.313" y="720.175"/>
      <point x="219.303" y="716.007"/>
      <point x="214.583" y="712.817" type="curve" smooth="yes"/>
      <point x="100.364" y="635.608"/>
      <point x="25.1132" y="546.504"/>
    </contour>
    <contour>
      <point x="356.091" y="415.354" type="curve" smooth="yes"/>
      <point x="356.091" y="502.265"/>
      <point x="419.745" y="552.328"/>
      <point x="503" y="552.328" type="curve" smooth="yes"/>
      <point x="585.463" y="552.328"/>
      <point x="643.848" y="496.527"/>
      <point x="643.848" y="413.524" type="curve" smooth="yes"/>
      <point x="643.848" y="326.975"/>
      <point x="583.593" y="274.575"/>
      <point x="499.046" y="274.575" type="curve" smooth="yes"/>
      <point x="412.065" y="274.575"/>
      <point x="356.091" y="327.748"/>
    </contour>
    <contour>
      <point x="389.972" y="897.644" type="curve" smooth="yes"/>
      <point x="389.972" y="964.13"/>
      <point x="432.601" y="1006.49"/>
      <point x="499.061" y="1006.49" type="curve" smooth="yes"/>
      <point x="566.818" y="1006.49"/>
      <point x="606.2" y="964.716"/>
      <point x="606.2" y="897.644" type="curve" smooth="yes"/>
      <point x="606.2" y="833.737"/>
      <point x="565.429" y="794.838"/>
      <point x="502.018" y="794.838" type="curve" smooth="yes"/>
      <point x="440.017" y="794.838"/>
      <point x="389.972" y="832.5"/>
    </contour>
  </outline>
</glyph>
<glyph name="nine" format="2">
  <advance width="1157"/>
  <unicode hex="0039"/>
  <outline>
    <contour>
      <point x="482.486" y="390.544" type="curve" smooth="yes"/>
      <point x="517.497" y="390.544"/>
      <point x="551.138" y="394.334"/>
      <point x="585.332" y="401.745" type="curve" smooth="yes"/>
      <point x="599.305" y="404.773"/>
      <point x="615.516" y="409.941"/>
      <point x="630.039" y="409.941" type="curve" smooth="yes"/>
      <point x="631.495" y="409.941"/>
      <point x="636.1" y="410.042"/>
      <point x="636.1" y="407.362" type="curve" smooth="yes"/>
      <point x="636.1" y="400.456"/>
      <point x="599.814" y="376.347"/>
      <point x="597.72" y="374.878" type="curve" smooth="yes"/>
      <point x="525.687" y="324.309"/>
      <point x="444.83" y="286.702"/>
      <point x="362.214" y="257.033" type="curve" smooth="yes"/>
      <point x="338.53" y="248.528"/>
      <point x="313.908" y="242.026"/>
      <point x="290.401" y="233.328" type="curve" smooth="yes"/>
      <point x="272.162" y="226.579"/>
      <point x="242.135" y="217.52"/>
      <point x="242.135" y="192.205" type="curve" smooth="yes"/>
      <point x="242.135" y="174.768"/>
      <point x="255.296" y="159.895"/>
      <point x="265.748" y="147.596" type="curve" smooth="yes"/>
      <point x="308.401" y="97.4022"/>
      <point x="362.349" y="37.236"/>
      <point x="408.912" y="-8.98817" type="curve" smooth="yes"/>
      <point x="419.085" y="-19.0872"/>
      <point x="429.443" y="-26.6498"/>
      <point x="444.436" y="-26.6498" type="curve" smooth="yes"/>
      <point x="453.125" y="-26.6498"/>
      <point x="461.379" y="-23.9338"/>
      <point x="469.11" y="-20.171" type="curve" smooth="yes"/>
      <point x="791.687" y="136.825"/>
      <point x="1128.94" y="353.694"/>
      <point x="1128.94" y="754.92" type="curve" smooth="yes"/>
      <point x="1128.94" y="1049.63"/>
      <point x="855.631" y="1233.53"/>
      <point x="581.845" y="1233.53" type="curve" smooth="yes"/>
      <point x="313.92" y="1233.53"/>
      <point x="45.8181" y="1079.22"/>
      <point x="45.8181" y="783.861" type="curve" smooth="yes"/>
      <point x="45.8181" y="538.403"/>
      <point x="250.836" y="390.544"/>
    </contour>
    <contour>
      <point x="377.773" y="784.868" type="curve" smooth="yes"/>
      <point x="377.773" y="893.682"/>
      <point x="490.317" y="926.597"/>
      <point x="580.043" y="926.597" type="curve" smooth="yes"/>
      <point x="647.924" y="926.597"/>
      <point x="778.406" y="892.835"/>
      <point x="778.406" y="805.816" type="curve" smooth="yes"/>
      <point x="778.406" y="790.653"/>
      <point x="780.02" y="772.849"/>
      <point x="778.362" y="757.914" type="curve" smooth="yes"/>
      <point x="770.158" y="683.998"/>
      <point x="643.141" y="644.018"/>
      <point x="581.185" y="644.018" type="curve" smooth="yes"/>
      <point x="491.251" y="644.018"/>
      <point x="377.773" y="674.776"/>
    </contour>
  </outline>
</glyph>
<glyph name="colon" format="2">
  <advance width="510"/>
  <unicode hex="003A"/>
  <outline>
    <contour>
      <point x="72.3519" y="802.822" type="curve" smooth="yes"/>
      <point x="72.3519" y="704.356"/>
      <point x="149.535" y="621.198"/>
      <point x="249.599" y="621.198" type="curve" smooth="yes"/>
      <point x="349.266" y="621.198"/>
      <point x="430.774" y="703.551"/>
      <point x="430.774" y="802.822" type="curve" smooth="yes"/>
      <point x="430.774" y="898.515"/>
      <point x="347.073" y="986.539"/>
      <point x="250.256" y="986.539" type="curve" smooth="yes"/>
      <point x="152.545" y="986.539"/>
      <point x="72.3519" y="898.683"/>
    </contour>
    <contour>
      <point x="70.4815" y="178.086" type="curve" smooth="yes"/>
      <point x="70.4815" y="80.265"/>
      <point x="151.895" y="0"/>
      <point x="249.502" y="0" type="curve" smooth="yes"/>
      <point x="346.791" y="0"/>
      <point x="432.573" y="79.6377"/>
      <point x="432.573" y="178.273" type="curve" smooth="yes"/>
      <point x="432.573" y="276.193"/>
      <point x="350.36" y="367.189"/>
      <point x="250.239" y="367.189" type="curve" smooth="yes"/>
      <point x="149.15" y="367.189"/>
      <point x="70.4815" y="276.123"/>
    </contour>
  </outline>
</glyph>
<glyph name="semicolon" format="2">
  <advance width="510"/>
  <unicode hex="003B"/>
  <outline>
    <contour>
      <point x="159.725" y="719.89" type="curve" smooth="yes"/>
      <point x="159.725" y="627.186"/>
      <point x="237.244" y="540.349"/>
      <point x="332.15" y="540.349" type="curve" smooth="yes"/>
      <point x="427.806" y="540.349"/>
      <point x="491.649" y="629.865"/>
      <point x="491.649" y="719.538" type="curve" smooth="yes"/>
      <point x="491.649" y="811.482"/>
      <point x="430.236" y="905.672"/>
      <point x="330.377" y="905.672" type="curve" smooth="yes"/>
      <point x="233.002" y="905.672"/>
      <point x="159.725" y="812.327"/>
    </contour>
    <contour>
      <point x="368.08" y="188.506" type="curve" smooth="yes"/>
      <point x="195.319" y="188.506" type="line" smooth="yes"/>
      <point x="171.901" y="188.506"/>
      <point x="158.319" y="178.419"/>
      <point x="148.411" y="157.776" type="curve" smooth="yes"/>
      <point x="125.836" y="110.741"/>
      <point x="106.579" y="61.319"/>
      <point x="85.7623" y="13.422" type="curve" smooth="yes"/>
      <point x="56.8189" y="-53.1745"/>
      <point x="26.5592" y="-119.259"/>
      <point x="-2.13166" y="-185.945" type="curve" smooth="yes"/>
      <point x="-7.11451" y="-197.526"/>
      <point x="-11.8511" y="-209.787"/>
      <point x="-11.8511" y="-222.606" type="curve" smooth="yes"/>
      <point x="-11.8511" y="-253.848"/>
      <point x="20.0244" y="-258.729"/>
      <point x="44.7" y="-258.729" type="curve" smooth="yes"/>
      <point x="205.432" y="-258.729" type="line" smooth="yes"/>
      <point x="227.978" y="-258.729"/>
      <point x="241.451" y="-249.144"/>
      <point x="251.642" y="-229.555" type="curve" smooth="yes"/>
      <point x="276.144" y="-182.458"/>
      <point x="297.535" y="-132.943"/>
      <point x="320.225" y="-84.8963" type="curve" smooth="yes"/>
      <point x="351.741" y="-18.1582"/>
      <point x="384.361" y="48.368"/>
      <point x="414.447" y="115.749" type="curve" smooth="yes"/>
      <point x="419.647" y="127.394"/>
      <point x="424.63" y="139.791"/>
      <point x="424.63" y="152.774" type="curve" smooth="yes"/>
      <point x="424.63" y="183.575"/>
      <point x="392.317" y="188.506"/>
    </contour>
  </outline>
</glyph>
<glyph name="less" format="2">
  <advance width="821"/>
  <unicode hex="003C"/>
  <outline>
    <contour>
      <point x="756.353" y="953.739" type="curve" smooth="yes"/>
      <point x="756.353" y="974.902"/>
      <point x="754.987" y="1017.92"/>
      <point x="724.639" y="1017.92" type="curve" smooth="yes"/>
      <point x="707.13" y="1017.92"/>
      <point x="688.523" y="1005.18"/>
      <point x="674.922" y="995.479" type="curve" smooth="yes"/>
      <point x="563.908" y="916.271"/>
      <point x="454.772" y="834.058"/>
      <point x="344.897" y="753.256" type="curve" smooth="yes"/>
      <point x="254.445" y="686.738"/>
      <point x="162.533" y="621.627"/>
      <point x="73.1791" y="553.685" type="curve" smooth="yes"/>
      <point x="60.1162" y="543.753"/>
      <point x="44.8274" y="530.342"/>
      <point x="44.8274" y="512.357" type="curve" smooth="yes"/>
      <point x="44.8274" y="494.39"/>
      <point x="60.0901" y="480.981"/>
      <point x="73.1399" y="471.052" type="curve" smooth="yes"/>
      <point x="162.888" y="402.771"/>
      <point x="255.402" y="337.474"/>
      <point x="346.548" y="271.033" type="curve" smooth="yes"/>
      <point x="457.274" y="190.318"/>
      <point x="567.569" y="108.477"/>
      <point x="679.836" y="29.933" type="curve" smooth="yes"/>
      <point x="693.471" y="20.3936"/>
      <point x="711.974" y="8.01051"/>
      <point x="729.381" y="8.01051" type="curve" smooth="yes"/>
      <point x="760.165" y="8.01051"/>
      <point x="760.772" y="51.1646"/>
      <point x="760.772" y="72.4531" type="curve" smooth="yes"/>
      <point x="760.772" y="130.5"/>
      <point x="759.058" y="188.658"/>
      <point x="758.387" y="246.713" type="curve" smooth="yes"/>
      <point x="757.987" y="281.255"/>
      <point x="759.504" y="316.875"/>
      <point x="757.311" y="351.273" type="curve" smooth="yes"/>
      <point x="756.492" y="364.117"/>
      <point x="753.844" y="373.527"/>
      <point x="745.445" y="383.608" type="curve" smooth="yes"/>
      <point x="732.572" y="399.059"/>
      <point x="642.448" y="501.101"/>
      <point x="642.448" y="512.456" type="curve" smooth="yes"/>
      <point x="642.448" y="523.72"/>
      <point x="731.433" y="626.44"/>
      <point x="744.116" y="641.952" type="curve" smooth="yes"/>
      <point x="751.702" y="651.228"/>
      <point x="755.684" y="662.46"/>
      <point x="755.684" y="674.439" type="curve" smooth="yes"/>
      <point x="755.684" y="767.54"/>
      <point x="756.353" y="860.642"/>
    </contour>
  </outline>
</glyph>
<glyph name="equal" format="2">
  <advance width="987"/>
  <unicode hex="003D"/>
  <outline>
    <contour>
      <point x="64.7401" y="849.15" type="curve" smooth="yes"/>
      <point x="64.894" y="630.696" type="line" smooth="yes"/>
      <point x="64.894" y="596.526"/>
      <point x="81.8695" y="579.279"/>
      <point x="116.134" y="579.279" type="curve" smooth="yes"/>
      <point x="871.004" y="579.279" type="line" smooth="yes"/>
      <point x="905.268" y="579.279"/>
      <point x="922.244" y="596.526"/>
      <point x="922.244" y="630.695" type="curve" smooth="yes"/>
      <point x="922.397" y="849.151" type="line" smooth="yes"/>
      <point x="922.397" y="883.553"/>
      <point x="905.698" y="900.639"/>
      <point x="871.157" y="900.639" type="curve" smooth="yes"/>
      <point x="115.98" y="900.639" type="line" smooth="yes"/>
      <point x="81.4387" y="900.639"/>
      <point x="64.7401" y="883.553"/>
    </contour>
    <contour>
      <point x="61.0909" y="211.535" type="curve" smooth="yes"/>
      <point x="61.0909" y="176.688"/>
      <point x="76.9758" y="159.462"/>
      <point x="112.325" y="159.462" type="curve" smooth="yes"/>
      <point x="874.805" y="159.462" type="line" smooth="yes"/>
      <point x="910.151" y="159.462"/>
      <point x="926.038" y="176.687"/>
      <point x="926.038" y="211.533" type="curve" smooth="yes"/>
      <point x="926.038" y="283.882"/>
      <point x="926.043" y="357.345"/>
      <point x="923.395" y="429.615" type="curve" smooth="yes"/>
      <point x="922.144" y="463.749"/>
      <point x="907.183" y="480.443"/>
      <point x="872.157" y="480.443" type="curve" smooth="yes"/>
      <point x="114.978" y="480.443" type="line" smooth="yes"/>
      <point x="79.9524" y="480.443"/>
      <point x="64.9919" y="463.749"/>
      <point x="63.7402" y="429.615" type="curve" smooth="yes"/>
      <point x="61.0902" y="357.347"/>
      <point x="61.0909" y="283.883"/>
    </contour>
  </outline>
</glyph>
<glyph name="greater" format="2">
  <advance width="821"/>
  <unicode hex="003E"/>
  <outline>
    <contour>
      <point x="61.3547" y="72.8592" type="curve" smooth="yes"/>
      <point x="61.3547" y="51.6202"/>
      <point x="61.9189" y="8.2645"/>
      <point x="92.6889" y="8.2645" type="curve" smooth="yes"/>
      <point x="110.167" y="8.2645"/>
      <point x="128.773" y="20.8209"/>
      <point x="142.423" y="30.436" type="curve" smooth="yes"/>
      <point x="254.535" y="109.404"/>
      <point x="364.654" y="191.684"/>
      <point x="475.209" y="272.831" type="curve" smooth="yes"/>
      <point x="566.215" y="339.63"/>
      <point x="658.586" y="405.293"/>
      <point x="748.193" y="473.921" type="curve" smooth="yes"/>
      <point x="761.185" y="483.871"/>
      <point x="776.345" y="497.285"/>
      <point x="776.345" y="515.201" type="curve" smooth="yes"/>
      <point x="776.345" y="533.203"/>
      <point x="761.029" y="546.598"/>
      <point x="747.939" y="556.513" type="curve" smooth="yes"/>
      <point x="658.725" y="624.084"/>
      <point x="566.951" y="688.813"/>
      <point x="476.638" y="754.951" type="curve" smooth="yes"/>
      <point x="366.93" y="835.292"/>
      <point x="257.954" y="917.038"/>
      <point x="147.114" y="995.791" type="curve" smooth="yes"/>
      <point x="133.522" y="1005.45"/>
      <point x="114.978" y="1018.07"/>
      <point x="97.5126" y="1018.07" type="curve" smooth="yes"/>
      <point x="67.1571" y="1018.07"/>
      <point x="65.7652" y="975.182"/>
      <point x="65.7652" y="953.99" type="curve" smooth="yes"/>
      <point x="65.7652" y="861.767"/>
      <point x="66.4386" y="769.539"/>
      <point x="66.4386" y="677.312" type="curve" smooth="yes"/>
      <point x="66.4386" y="665.411"/>
      <point x="70.3757" y="654.239"/>
      <point x="77.8744" y="644.991" type="curve" smooth="yes"/>
      <point x="90.4096" y="629.533"/>
      <point x="178.742" y="526.507"/>
      <point x="178.742" y="515.466" type="curve" smooth="yes"/>
      <point x="178.742" y="504.159"/>
      <point x="89.331" y="402.021"/>
      <point x="76.5632" y="386.563" type="curve" smooth="yes"/>
      <point x="68.2575" y="376.506"/>
      <point x="65.6547" y="367.159"/>
      <point x="64.8371" y="354.392" type="curve" smooth="yes"/>
      <point x="62.7022" y="321.054"/>
      <point x="64.1882" y="286.516"/>
      <point x="63.8061" y="253.038" type="curve" smooth="yes"/>
      <point x="63.1211" y="193.01"/>
      <point x="61.3547" y="132.878"/>
    </contour>
  </outline>
</glyph>
<glyph name="question" format="2">
  <advance width="864"/>
  <unicode hex="003F"/>
  <outline>
    <contour>
      <point x="278.589" y="434.502" type="curve" smooth="yes"/>
      <point x="551.54" y="434.502" type="line" smooth="yes"/>
      <point x="559.31" y="434.502"/>
      <point x="556.97" y="446.758"/>
      <point x="556.97" y="452.041" type="curve" smooth="yes"/>
      <point x="556.97" y="563.34"/>
      <point x="589.796" y="686.27"/>
      <point x="660.77" y="773.881" type="curve" smooth="yes"/>
      <point x="777.527" y="918.008"/>
      <point x="836.827" y="997.646"/>
      <point x="836.827" y="1191.71" type="curve" smooth="yes"/>
      <point x="836.827" y="1447.97"/>
      <point x="718.397" y="1583.92"/>
      <point x="457.039" y="1583.92" type="curve" smooth="yes"/>
      <point x="242.16" y="1583.92"/>
      <point x="91.8338" y="1443.44"/>
      <point x="27.4187" y="1246.17" type="curve" smooth="yes"/>
      <point x="25.5363" y="1240.4"/>
      <point x="24.327" y="1234.36"/>
      <point x="24.327" y="1228.28" type="curve" smooth="yes"/>
      <point x="24.327" y="1208.35"/>
      <point x="35.9263" y="1197.97"/>
      <point x="51.7307" y="1188.45" type="curve" smooth="yes"/>
      <point x="79.8633" y="1171.5"/>
      <point x="243.612" y="1081.69"/>
      <point x="264.66" y="1081.69" type="curve" smooth="yes"/>
      <point x="320.401" y="1081.69"/>
      <point x="312.921" y="1238.32"/>
      <point x="428.997" y="1238.32" type="curve" smooth="yes"/>
      <point x="461.824" y="1238.32"/>
      <point x="486.372" y="1187.08"/>
      <point x="486.372" y="1159.42" type="curve" smooth="yes"/>
      <point x="486.372" y="1065.19"/>
      <point x="429.414" y="1012.22"/>
      <point x="373.972" y="944.57" type="curve" smooth="yes"/>
      <point x="273.4" y="821.841"/>
      <point x="231.476" y="687.066"/>
      <point x="231.476" y="529.368" type="curve" smooth="yes"/>
      <point x="231.316" y="481.935" type="line" smooth="yes"/>
      <point x="231.316" y="450.397"/>
      <point x="246.959" y="434.502"/>
    </contour>
    <contour>
      <point x="390.886" y="-59.2792" type="curve" smooth="yes"/>
      <point x="499.72" y="-59.2792"/>
      <point x="572.187" y="9.70023"/>
      <point x="572.187" y="119.382" type="curve" smooth="yes"/>
      <point x="572.187" y="222.52"/>
      <point x="504.946" y="303.58"/>
      <point x="398.418" y="303.58" type="curve" smooth="yes"/>
      <point x="294.866" y="303.58"/>
      <point x="207.299" y="225.177"/>
      <point x="207.299" y="119.382" type="curve" smooth="yes"/>
      <point x="207.299" y="9.17533"/>
      <point x="282.251" y="-59.2792"/>
    </contour>
  </outline>
</glyph>
<glyph name="at" format="2">
  <advance width="1407"/>
  <unicode hex="0040"/>
  <outline>
    <contour>
      <point x="676.184" y="-491.601" type="curve" smooth="yes"/>
      <point x="845.394" y="-491.601"/>
      <point x="1069.85" y="-423.493"/>
      <point x="1192.73" y="-303.447" type="curve" smooth="yes"/>
      <point x="1201.87" y="-294.517"/>
      <point x="1208.98" y="-283.932"/>
      <point x="1208.98" y="-270.665" type="curve" smooth="yes"/>
      <point x="1208.98" y="-248.073"/>
      <point x="1132.5" y="-139.249"/>
      <point x="1115.57" y="-115.971" type="curve" smooth="yes"/>
      <point x="1105.36" y="-101.93"/>
      <point x="1094.04" y="-88.6665"/>
      <point x="1075.04" y="-88.6665" type="curve" smooth="yes"/>
      <point x="1061.51" y="-88.6665"/>
      <point x="1049.88" y="-95.4141"/>
      <point x="1038.84" y="-102.375" type="curve" smooth="yes"/>
      <point x="941.728" y="-163.598"/>
      <point x="843.226" y="-205.257"/>
      <point x="726.311" y="-205.257" type="curve" smooth="yes"/>
      <point x="373.347" y="-205.257"/>
      <point x="211.255" y="66.1382"/>
      <point x="211.255" y="389.652" type="curve" smooth="yes"/>
      <point x="211.255" y="818.887"/>
      <point x="404.801" y="1202.45"/>
      <point x="882.258" y="1202.45" type="curve" smooth="yes"/>
      <point x="1202.78" y="1202.45"/>
      <point x="1341.36" y="990.568"/>
      <point x="1341.36" y="690.057" type="curve" smooth="yes"/>
      <point x="1341.36" y="597.611"/>
      <point x="1328.94" y="376.065"/>
      <point x="1241.52" y="324.776" type="curve"/>
      <point x="1232.93" y="323.535" type="line"/>
      <point x="1215.12" y="332.131"/>
      <point x="1214.58" y="357.353"/>
      <point x="1214.58" y="373.906" type="curve" smooth="yes"/>
      <point x="1214.58" y="385.106"/>
      <point x="1215.33" y="396.379"/>
      <point x="1216.38" y="407.529" type="curve" smooth="yes"/>
      <point x="1231.85" y="571.967"/>
      <point x="1250.94" y="736.135"/>
      <point x="1269.85" y="900.205" type="curve" smooth="yes"/>
      <point x="1270.3" y="904.063"/>
      <point x="1270.58" y="907.937"/>
      <point x="1270.58" y="911.822" type="curve" smooth="yes"/>
      <point x="1270.58" y="945.124"/>
      <point x="1249.99" y="957.551"/>
      <point x="1218.95" y="957.551" type="curve" smooth="yes"/>
      <point x="979.373" y="957.551" type="line" smooth="yes"/>
      <point x="948.155" y="957.551"/>
      <point x="955.262" y="911.83"/>
      <point x="936.607" y="911.83" type="curve" smooth="yes"/>
      <point x="929.922" y="911.83"/>
      <point x="924.834" y="918.768"/>
      <point x="921.115" y="923.186" type="curve" smooth="yes"/>
      <point x="862.211" y="993.166"/>
      <point x="821.206" y="1011.49"/>
      <point x="728.679" y="1011.49" type="curve" smooth="yes"/>
      <point x="408.43" y="1011.49"/>
      <point x="279.542" y="691.93"/>
      <point x="279.542" y="417.52" type="curve" smooth="yes"/>
      <point x="279.542" y="207.073"/>
      <point x="362.425" y="-29.1293"/>
      <point x="611.95" y="-29.1293" type="curve" smooth="yes"/>
      <point x="766.719" y="-29.1293"/>
      <point x="898.845" y="132.026"/>
      <point x="910.255" y="132.026" type="curve" smooth="yes"/>
      <point x="916.918" y="132.026"/>
      <point x="921.11" y="125.87"/>
      <point x="924.545" y="121.18" type="curve" smooth="yes"/>
      <point x="989.609" y="32.383"/>
      <point x="1075.98" y="-15.065"/>
      <point x="1187.3" y="-15.065" type="curve" smooth="yes"/>
      <point x="1518.69" y="-15.065"/>
      <point x="1639.3" y="407.198"/>
      <point x="1639.3" y="674.134" type="curve" smooth="yes"/>
      <point x="1639.3" y="1132.37"/>
      <point x="1429.88" y="1488.25"/>
      <point x="931.637" y="1488.25" type="curve" smooth="yes"/>
      <point x="260.257" y="1488.25"/>
      <point x="-80.1143" y="992.164"/>
      <point x="-80.1143" y="360.506" type="curve" smooth="yes"/>
      <point x="-80.1143" y="-5.13594"/>
      <point x="77.1896" y="-351.315"/>
      <point x="451.619" y="-458.679" type="curve" smooth="yes"/>
      <point x="523.22" y="-479.209"/>
      <point x="601.619" y="-491.601"/>
    </contour>
    <contour>
      <point x="626.335" y="469.458" type="curve" smooth="yes"/>
      <point x="626.335" y="563.457"/>
      <point x="671.367" y="713.008"/>
      <point x="787.505" y="713.008" type="curve" smooth="yes"/>
      <point x="851.794" y="713.008"/>
      <point x="884.758" y="669.057"/>
      <point x="902.446" y="612.216" type="curve"/>
      <point x="870.785" y="346.571" type="line"/>
      <point x="833.068" y="311.058"/>
      <point x="814.511" y="271.275"/>
      <point x="755.933" y="271.275" type="curve" smooth="yes"/>
      <point x="656.157" y="271.275"/>
      <point x="626.335" y="388.772"/>
    </contour>
  </outline>
</glyph>
<glyph name="A" format="2">
  <advance width="1421"/>
  <unicode hex="0041"/>
  <anchor x="711" y="0" name="bottom"/>
  <anchor x="1246" y="20" name="ogonek"/>
  <anchor x="711" y="1523" name="top"/>
  <outline>
    <contour>
      <point x="96.6816" y="0" type="curve" smooth="yes"/>
      <point x="354.808" y="0" type="line" smooth="yes"/>
      <point x="380.369" y="0"/>
      <point x="391.088" y="10.3553"/>
      <point x="402.149" y="31.7679" type="curve" smooth="yes"/>
      <point x="430.498" y="86.6439"/>
      <point x="447.114" y="149.779"/>
      <point x="472.729" y="206.243" type="curve" smooth="yes"/>
      <point x="475.809" y="213.034"/>
      <point x="480.275" y="216.538"/>
      <point x="487.941" y="216.538" type="curve" smooth="yes"/>
      <point x="876.049" y="216.538" type="line" smooth="yes"/>
      <point x="884.082" y="216.538"/>
      <point x="888.552" y="212.822"/>
      <point x="891.499" y="205.611" type="curve" smooth="yes"/>
      <point x="914.211" y="150.038"/>
      <point x="927.35" y="87.8816"/>
      <point x="952.795" y="33.7904" type="curve" smooth="yes"/>
      <point x="963.509" y="11.0153"/>
      <point x="974.054" y="0"/>
      <point x="1000.92" y="0" type="curve" smooth="yes"/>
      <point x="1324.39" y="0" type="line" smooth="yes"/>
      <point x="1348.01" y="0"/>
      <point x="1381.72" y="4.33683"/>
      <point x="1381.72" y="35.3299" type="curve" smooth="yes"/>
      <point x="1381.72" y="48.9351"/>
      <point x="1376.14" y="62.0736"/>
      <point x="1370.43" y="74.1" type="curve" smooth="yes"/>
      <point x="1249.54" y="328.525"/>
      <point x="1128.8" y="582.469"/>
      <point x="1012.33" y="838.994" type="curve" smooth="yes"/>
      <point x="916.595" y="1049.84"/>
      <point x="824.945" y="1263.64"/>
      <point x="724.28" y="1472.12" type="curve" smooth="yes"/>
      <point x="721.457" y="1477.97"/>
      <point x="716.616" y="1481.22"/>
      <point x="710.058" y="1481.22" type="curve" smooth="yes"/>
      <point x="703.5" y="1481.22"/>
      <point x="698.661" y="1477.97"/>
      <point x="695.841" y="1472.12" type="curve" smooth="yes"/>
      <point x="595.332" y="1263.63"/>
      <point x="503.835" y="1049.82"/>
      <point x="408.243" y="838.973" type="curve" smooth="yes"/>
      <point x="291.939" y="582.445"/>
      <point x="171.37" y="328.5"/>
      <point x="50.6343" y="74.077" type="curve" smooth="yes"/>
      <point x="44.9312" y="62.0589"/>
      <point x="39.3649" y="48.9328"/>
      <point x="39.3649" y="35.341" type="curve" smooth="yes"/>
      <point x="39.3649" y="4.34579"/>
      <point x="73.0511" y="0"/>
    </contour>
    <contour>
      <point x="589.163" y="500.414" type="line"/>
      <point x="694.909" y="771.326" type="line"/>
      <point x="788.46" y="500.414" type="line"/>
    </contour>
  </outline>
</glyph>
<glyph name="B" format="2">
  <advance width="1309"/>
  <unicode hex="0042"/>
  <anchor x="673" y="0" name="bottom"/>
  <anchor x="673" y="1427" name="top"/>
  <outline>
    <contour>
      <point x="114.683" y="1374.39" type="curve" smooth="yes"/>
      <point x="114.683" y="1303.83"/>
      <point x="117.927" y="1232.95"/>
      <point x="119.119" y="1162.36" type="curve" smooth="yes"/>
      <point x="121.627" y="1013.93"/>
      <point x="122.881" y="865.472"/>
      <point x="122.881" y="717.017" type="curve" smooth="yes"/>
      <point x="122.881" y="566.97"/>
      <point x="121.6" y="416.923"/>
      <point x="119.039" y="266.898" type="curve" smooth="yes"/>
      <point x="117.82" y="195.553"/>
      <point x="114.508" y="123.91"/>
      <point x="114.508" y="52.5937" type="curve" smooth="yes"/>
      <point x="114.508" y="17.2832"/>
      <point x="129.567" y="0"/>
      <point x="165.742" y="0" type="curve" smooth="yes"/>
      <point x="679.053" y="0" type="line" smooth="yes"/>
      <point x="957.258" y="0"/>
      <point x="1240.05" y="99.9814"/>
      <point x="1240.05" y="425.397" type="curve" smooth="yes"/>
      <point x="1240.05" y="580.788"/>
      <point x="1151.24" y="672.76"/>
      <point x="1023.96" y="745.892" type="curve" smooth="yes"/>
      <point x="1018.76" y="748.878"/>
      <point x="1009.99" y="753.332"/>
      <point x="1009.99" y="760.713" type="curve" smooth="yes"/>
      <point x="1009.99" y="767.591"/>
      <point x="1017.27" y="772.651"/>
      <point x="1021.9" y="776.307" type="curve" smooth="yes"/>
      <point x="1117.68" y="852.076"/>
      <point x="1168.88" y="945.508"/>
      <point x="1168.88" y="1069.44" type="curve" smooth="yes"/>
      <point x="1168.88" y="1353.93"/>
      <point x="856.122" y="1427.03"/>
      <point x="627.179" y="1427.03" type="curve" smooth="yes"/>
      <point x="165.917" y="1426.97" type="line" smooth="yes"/>
      <point x="129.763" y="1426.97"/>
      <point x="114.683" y="1409.69"/>
    </contour>
    <contour>
      <point x="653.086" y="319.578" type="curve" smooth="yes"/>
      <point x="495.124" y="319.578" type="line"/>
      <point x="495.846" y="541.347" type="line"/>
      <point x="641.301" y="541.347" type="line" smooth="yes"/>
      <point x="717.644" y="541.347"/>
      <point x="851.962" y="542.155"/>
      <point x="851.962" y="435.501" type="curve" smooth="yes"/>
      <point x="851.962" y="335.837"/>
      <point x="728.775" y="319.578"/>
    </contour>
    <contour>
      <point x="649.165" y="870.692" type="curve" smooth="yes" name=".hr01"/>
      <point x="495.888" y="870.692" type="line"/>
      <point x="495.203" y="1096.43" type="line"/>
      <point x="639.417" y="1096.46" type="line" smooth="yes"/>
      <point x="703.577" y="1096.46"/>
      <point x="779.093" y="1068.66"/>
      <point x="779.093" y="993.176" type="curve" smooth="yes"/>
      <point x="779.093" y="921.058"/>
      <point x="718.621" y="870.692"/>
    </contour>
  </outline>
</glyph>
<glyph name="C" format="2">
  <advance width="1276"/>
  <unicode hex="0043"/>
  <anchor x="714" y="0" name="bottom"/>
  <anchor x="688" y="1470" name="top"/>
  <outline>
    <contour>
      <point x="1054.87" y="402.394" type="curve" smooth="yes"/>
      <point x="1037.77" y="402.394"/>
      <point x="1022.85" y="392.265"/>
      <point x="1009.03" y="383.639" type="curve" smooth="yes"/>
      <point x="942.74" y="342.291"/>
      <point x="870.1" y="315.579"/>
      <point x="791.043" y="315.579" type="curve" smooth="yes"/>
      <point x="556.49" y="315.579"/>
      <point x="459.327" y="510.956"/>
      <point x="459.327" y="719.994" type="curve" smooth="yes"/>
      <point x="459.327" y="907.615"/>
      <point x="571.719" y="1111.42"/>
      <point x="781.14" y="1111.42" type="curve" smooth="yes"/>
      <point x="892.368" y="1111.42"/>
      <point x="980.297" y="1011.16"/>
      <point x="1018.82" y="1011.16" type="curve" smooth="yes"/>
      <point x="1040.64" y="1011.16"/>
      <point x="1049.95" y="1029.22"/>
      <point x="1058.25" y="1045.99" type="curve" smooth="yes"/>
      <point x="1071.79" y="1073.34"/>
      <point x="1160.57" y="1283.7"/>
      <point x="1160.57" y="1299.98" type="curve" smooth="yes"/>
      <point x="1160.57" y="1318.67"/>
      <point x="1149.97" y="1328.52"/>
      <point x="1135.44" y="1338.05" type="curve" smooth="yes"/>
      <point x="1028.52" y="1408.15"/>
      <point x="857.076" y="1441.57"/>
      <point x="730.682" y="1441.57" type="curve" smooth="yes"/>
      <point x="301.693" y="1441.57"/>
      <point x="69.8737" y="1130.5"/>
      <point x="69.8737" y="722.072" type="curve" smooth="yes"/>
      <point x="69.8737" y="292.316"/>
      <point x="330.884" y="-15.2292"/>
      <point x="772.892" y="-15.2292" type="curve" smooth="yes"/>
      <point x="896.334" y="-15.2292"/>
      <point x="1086.35" y="23.67"/>
      <point x="1183.38" y="103.281" type="curve" smooth="yes"/>
      <point x="1194.47" y="112.381"/>
      <point x="1202.23" y="122.17"/>
      <point x="1202.23" y="137.203" type="curve" smooth="yes"/>
      <point x="1202.23" y="154.848"/>
      <point x="1114.15" y="336.301"/>
      <point x="1099.53" y="363.003" type="curve" smooth="yes"/>
      <point x="1089.73" y="380.899"/>
      <point x="1078.82" y="402.394"/>
    </contour>
  </outline>
</glyph>
<glyph name="D" format="2">
  <advance width="1460"/>
  <unicode hex="0044"/>
  <anchor x="756" y="0" name="bottom"/>
  <anchor x="304" y="714" name="center"/>
  <anchor x="586" y="1427" name="top"/>
  <outline>
    <contour>
      <point x="165.858" y="0" type="curve" smooth="yes"/>
      <point x="658.021" y="0" type="line" smooth="yes"/>
      <point x="1067.5" y="0"/>
      <point x="1387.94" y="258.129"/>
      <point x="1387.94" y="683.071" type="curve" smooth="yes"/>
      <point x="1387.94" y="1177.09"/>
      <point x="1058.49" y="1426.97"/>
      <point x="587.091" y="1426.97" type="curve" smooth="yes"/>
      <point x="166.058" y="1426.97" type="line" smooth="yes"/>
      <point x="129.662" y="1426.97"/>
      <point x="114.822" y="1409.6"/>
      <point x="114.822" y="1374.2" type="curve" smooth="yes"/>
      <point x="114.822" y="1301.35"/>
      <point x="118.624" y="1228.06"/>
      <point x="120.004" y="1155.17" type="curve" smooth="yes"/>
      <point x="122.767" y="1009.14"/>
      <point x="124.149" y="863.077"/>
      <point x="124.149" y="717.017" type="curve" smooth="yes"/>
      <point x="124.149" y="564.777"/>
      <point x="122.648" y="412.537"/>
      <point x="119.646" y="260.326" type="curve" smooth="yes"/>
      <point x="118.284" y="191.266"/>
      <point x="114.623" y="121.812"/>
      <point x="114.623" y="52.7867" type="curve" smooth="yes"/>
      <point x="114.623" y="17.3783"/>
      <point x="129.44" y="0"/>
    </contour>
    <contour>
      <point x="496.087" y="330.576" type="line"/>
      <point x="497.737" y="587.189"/>
      <point x="497.743" y="843.812"/>
      <point x="496.106" y="1100.42" type="curve"/>
      <point x="673.841" y="1100.56" type="line" smooth="yes"/>
      <point x="921.169" y="1100.56"/>
      <point x="1000.96" y="927.287"/>
      <point x="1000.96" y="706.023" type="curve" smooth="yes"/>
      <point x="1000.96" y="446.426"/>
      <point x="849.136" y="330.576"/>
      <point x="599.722" y="330.576" type="curve" smooth="yes"/>
    </contour>
  </outline>
</glyph>
<glyph name="E" format="2">
  <advance width="1157"/>
  <unicode hex="0045"/>
  <anchor x="602" y="0" name="bottom"/>
  <anchor x="934" y="20" name="ogonek"/>
  <anchor x="602" y="1475" name="top"/>
  <anchor x="96" y="1427" name="topleft"/>
  <outline>
    <contour>
      <point x="114.472" y="1374.58" type="curve" smooth="yes"/>
      <point x="114.472" y="1303.97"/>
      <point x="117.262" y="1233.12"/>
      <point x="118.289" y="1162.48" type="curve" smooth="yes"/>
      <point x="120.446" y="1014.01"/>
      <point x="121.525" y="865.511"/>
      <point x="121.525" y="717.017" type="curve" smooth="yes"/>
      <point x="121.525" y="566.93"/>
      <point x="120.423" y="416.843"/>
      <point x="118.219" y="266.772" type="curve" smooth="yes"/>
      <point x="117.171" y="195.381"/>
      <point x="114.321" y="123.769"/>
      <point x="114.321" y="52.3982" type="curve" smooth="yes"/>
      <point x="114.321" y="17.206"/>
      <point x="129.636" y="0"/>
      <point x="165.552" y="0" type="curve" smooth="yes"/>
      <point x="1038.46" y="0" type="line" smooth="yes"/>
      <point x="1074.5" y="0"/>
      <point x="1089.69" y="17.2622"/>
      <point x="1089.69" y="52.5115" type="curve" smooth="yes"/>
      <point x="1089.69" y="127.673"/>
      <point x="1089.07" y="205.068"/>
      <point x="1085.2" y="280.087" type="curve" smooth="yes"/>
      <point x="1083.45" y="314.018"/>
      <point x="1069.05" y="330.576"/>
      <point x="1033.96" y="330.576" type="curve" smooth="yes"/>
      <point x="510.593" y="330.576" type="line" smooth="yes"/>
      <point x="499.775" y="330.576"/>
      <point x="494.191" y="336.169"/>
      <point x="494.209" y="346.986" type="curve" smooth="yes"/>
      <point x="494.541" y="552.94" type="line" smooth="yes"/>
      <point x="494.558" y="563.723"/>
      <point x="500.142" y="569.298"/>
      <point x="510.925" y="569.298" type="curve" smooth="yes"/>
      <point x="936.387" y="569.298" type="line" smooth="yes"/>
      <point x="970.661" y="569.298"/>
      <point x="987.625" y="586.544"/>
      <point x="987.625" y="620.719" type="curve" smooth="yes"/>
      <point x="987.625" y="813.281" type="line" smooth="yes"/>
      <point x="987.625" y="847.456"/>
      <point x="970.661" y="864.702"/>
      <point x="936.387" y="864.702" type="curve" smooth="yes"/>
      <point x="510.925" y="864.702" type="line" smooth="yes"/>
      <point x="500.142" y="864.702"/>
      <point x="494.559" y="870.277"/>
      <point x="494.541" y="881.06" type="curve" smooth="yes"/>
      <point x="494.225" y="1080.02" type="line" smooth="yes"/>
      <point x="494.208" y="1090.83"/>
      <point x="499.791" y="1096.43"/>
      <point x="510.609" y="1096.43" type="curve" smooth="yes"/>
      <point x="1011.11" y="1096.43" type="line" smooth="yes"/>
      <point x="1046.24" y="1096.43"/>
      <point x="1060.63" y="1113"/>
      <point x="1062.35" y="1146.96" type="curve" smooth="yes"/>
      <point x="1066.15" y="1222"/>
      <point x="1066.59" y="1299.34"/>
      <point x="1066.59" y="1374.53" type="curve" smooth="yes"/>
      <point x="1066.59" y="1409.75"/>
      <point x="1051.33" y="1426.97"/>
      <point x="1015.36" y="1426.97" type="curve" smooth="yes"/>
      <point x="165.703" y="1426.97" type="line" smooth="yes"/>
      <point x="129.804" y="1426.97"/>
      <point x="114.472" y="1409.77"/>
    </contour>
  </outline>
</glyph>
<glyph name="F" format="2">
  <advance width="1151"/>
  <unicode hex="0046"/>
  <anchor x="586" y="0" name="bottom"/>
  <anchor x="586" y="1427" name="top"/>
  <outline>
    <contour>
      <point x="114.464" y="1374.59" type="curve" smooth="yes"/>
      <point x="114.464" y="1303.97"/>
      <point x="117.236" y="1233.13"/>
      <point x="118.256" y="1162.49" type="curve" smooth="yes"/>
      <point x="120.399" y="1014.01"/>
      <point x="121.471" y="865.513"/>
      <point x="121.471" y="717.017" type="curve" smooth="yes"/>
      <point x="121.471" y="566.928"/>
      <point x="120.376" y="416.84"/>
      <point x="118.187" y="266.767" type="curve" smooth="yes"/>
      <point x="117.145" y="195.374"/>
      <point x="114.314" y="123.763"/>
      <point x="114.314" y="52.3904" type="curve" smooth="yes"/>
      <point x="114.314" y="17.2313"/>
      <point x="129.671" y="0"/>
      <point x="165.545" y="0" type="curve" smooth="yes"/>
      <point x="442.097" y="0" type="line" smooth="yes"/>
      <point x="475.849" y="0"/>
      <point x="493.289" y="17.1191"/>
      <point x="493.289" y="50.9875" type="curve" smooth="yes"/>
      <point x="493.289" y="205.655"/>
      <point x="494.46" y="360.328"/>
      <point x="494.46" y="514.998" type="curve" smooth="yes"/>
      <point x="494.46" y="525.786" name=".hr01"/>
      <point x="500.068" y="531.364"/>
      <point x="510.844" y="531.364" type="curve" smooth="yes"/>
      <point x="953.166" y="531.364" type="line" smooth="yes"/>
      <point x="987.533" y="531.364"/>
      <point x="1004.41" y="548.628"/>
      <point x="1004.41" y="582.856" type="curve" smooth="yes"/>
      <point x="1004.26" y="810.281" type="line" smooth="yes"/>
      <point x="1004.26" y="844.461"/>
      <point x="987.304" y="861.708"/>
      <point x="953.023" y="861.708" type="curve" smooth="yes"/>
      <point x="510.876" y="861.708" type="line" smooth="yes"/>
      <point x="500.093" y="861.708"/>
      <point x="494.509" y="867.283"/>
      <point x="494.492" y="878.067" type="curve" smooth="yes"/>
      <point x="494.184" y="1080.02" type="line" smooth="yes"/>
      <point x="494.167" y="1090.83"/>
      <point x="499.751" y="1096.43"/>
      <point x="510.568" y="1096.43" type="curve" smooth="yes"/>
      <point x="1039.75" y="1096.43" type="line" smooth="yes"/>
      <point x="1075.04" y="1096.43"/>
      <point x="1089.06" y="1112.97"/>
      <point x="1090.99" y="1146.92" type="curve" smooth="yes"/>
      <point x="1095.24" y="1221.74"/>
      <point x="1095.5" y="1299.44"/>
      <point x="1095.5" y="1374.45" type="curve" smooth="yes"/>
      <point x="1095.5" y="1409.71"/>
      <point x="1080.32" y="1426.97"/>
      <point x="1044.27" y="1426.97" type="curve" smooth="yes"/>
      <point x="165.695" y="1426.97" type="line" smooth="yes"/>
      <point x="129.838" y="1426.97"/>
      <point x="114.464" y="1409.74"/>
    </contour>
  </outline>
</glyph>
<glyph name="G" format="2">
  <advance width="1456"/>
  <unicode hex="0047"/>
  <anchor x="717" y="0" name="bottom"/>
  <anchor x="790" y="1428" name="top"/>
  <outline>
    <contour>
      <point x="1367.94" y="177.449" type="curve" smooth="yes"/>
      <point x="1367.94" y="360.379"/>
      <point x="1361.35" y="543.477"/>
      <point x="1361.35" y="726.531" type="curve" smooth="yes"/>
      <point x="1361.35" y="760.667"/>
      <point x="1344.27" y="777.873"/>
      <point x="1310.1" y="777.873" type="curve" smooth="yes"/>
      <point x="822.41" y="777.873" type="line" smooth="yes"/>
      <point x="788.351" y="777.873"/>
      <point x="771.204" y="760.722"/>
      <point x="771.21" y="726.663" type="curve" smooth="yes"/>
      <point x="771.236" y="586.548" type="line" smooth="yes"/>
      <point x="771.243" y="552.502"/>
      <point x="788.39" y="535.358"/>
      <point x="822.436" y="535.358" type="curve" smooth="yes"/>
      <point x="1029.3" y="535.358" type="line" smooth="yes"/>
      <point x="1039.97" y="535.358"/>
      <point x="1045.55" y="529.842"/>
      <point x="1045.68" y="519.172" type="curve" smooth="yes"/>
      <point x="1047.29" y="385.763" type="line" smooth="yes"/>
      <point x="1047.79" y="344.394"/>
      <point x="847.825" y="328.576"/>
      <point x="813.869" y="328.576" type="curve" smooth="yes"/>
      <point x="582.93" y="328.576"/>
      <point x="459.979" y="469.053"/>
      <point x="459.979" y="695.046" type="curve" smooth="yes"/>
      <point x="459.979" y="962.791"/>
      <point x="594.766" y="1096.43"/>
      <point x="862.2" y="1096.43" type="curve" smooth="yes"/>
      <point x="962.031" y="1096.43"/>
      <point x="1056.33" y="1079.13"/>
      <point x="1150.59" y="1046.96" type="curve" smooth="yes"/>
      <point x="1159.73" y="1043.84"/>
      <point x="1168.95" y="1041.13"/>
      <point x="1178.7" y="1041.13" type="curve" smooth="yes"/>
      <point x="1205.4" y="1041.13"/>
      <point x="1213.6" y="1059.23"/>
      <point x="1222.02" y="1080.75" type="curve" smooth="yes"/>
      <point x="1230.91" y="1103.45"/>
      <point x="1295.11" y="1310.55"/>
      <point x="1295.11" y="1323.55" type="curve" smooth="yes"/>
      <point x="1295.11" y="1346.29"/>
      <point x="1281.88" y="1355.55"/>
      <point x="1263.29" y="1364.45" type="curve" smooth="yes"/>
      <point x="1153.92" y="1416.76"/>
      <point x="961.376" y="1440.55"/>
      <point x="839.948" y="1440.55" type="curve" smooth="yes"/>
      <point x="346.635" y="1440.55"/>
      <point x="71.9848" y="1153.55"/>
      <point x="71.9848" y="664.111" type="curve" smooth="yes"/>
      <point x="71.9848" y="210.1"/>
      <point x="422.727" y="-15.065"/>
      <point x="844.054" y="-15.065" type="curve" smooth="yes"/>
      <point x="980.318" y="-15.065"/>
      <point x="1249.74" y="46.8646"/>
      <point x="1351.17" y="139.405" type="curve" smooth="yes"/>
      <point x="1363.51" y="150.656"/>
      <point x="1367.94" y="160.708"/>
    </contour>
  </outline>
</glyph>
<glyph name="H" format="2">
  <advance width="1526"/>
  <unicode hex="0048"/>
  <anchor x="765" y="0" name="bottom"/>
  <anchor x="765" y="714" name="center"/>
  <anchor x="765" y="1427" name="top"/>
  <anchor x="69" y="1427" name="topleft"/>
  <outline>
    <contour>
      <point x="1359.86" y="1426.97" type="curve" smooth="yes"/>
      <point x="1082.36" y="1426.97" type="line" smooth="yes"/>
      <point x="1046.47" y="1426.97"/>
      <point x="1033.54" y="1410.47"/>
      <point x="1031.19" y="1376.45" type="curve" smooth="yes"/>
      <point x="1027.69" y="1325.86"/>
      <point x="1029.98" y="1273.18"/>
      <point x="1029.5" y="1222.35" type="curve" smooth="yes"/>
      <point x="1028.47" y="1113.91"/>
      <point x="1027.4" y="1005.45"/>
      <point x="1027.4" y="897.007" type="curve" smooth="yes"/>
      <point x="1027.4" y="886.243"/>
      <point x="1021.74" y="880.674"/>
      <point x="1011.01" y="880.674" type="curve" smooth="yes"/>
      <point x="514.008" y="880.674" type="line" smooth="yes"/>
      <point x="503.277" y="880.674"/>
      <point x="497.622" y="886.243"/>
      <point x="497.622" y="897.007" type="curve" smooth="yes"/>
      <point x="497.622" y="1005.45"/>
      <point x="496.546" y="1113.91"/>
      <point x="495.51" y="1222.35" type="curve" smooth="yes"/>
      <point x="495.025" y="1273.18"/>
      <point x="497.312" y="1325.86"/>
      <point x="493.816" y="1376.46" type="curve" smooth="yes"/>
      <point x="491.465" y="1410.47"/>
      <point x="478.53" y="1426.97"/>
      <point x="442.644" y="1426.97" type="curve" smooth="yes"/>
      <point x="166.143" y="1426.97" type="line" smooth="yes"/>
      <point x="129.613" y="1426.97"/>
      <point x="114.906" y="1409.62"/>
      <point x="114.906" y="1374.12" type="curve" smooth="yes"/>
      <point x="114.906" y="1303.64"/>
      <point x="118.793" y="1232.7"/>
      <point x="120.222" y="1162.18" type="curve" smooth="yes"/>
      <point x="123.227" y="1013.82"/>
      <point x="124.729" y="865.417"/>
      <point x="124.729" y="717.018" type="curve" smooth="yes"/>
      <point x="124.729" y="567.026"/>
      <point x="123.194" y="417.035"/>
      <point x="120.125" y="267.075" type="curve" smooth="yes"/>
      <point x="118.666" y="195.803"/>
      <point x="114.696" y="124.103"/>
      <point x="114.696" y="52.8716" type="curve" smooth="yes"/>
      <point x="114.696" y="17.3585"/>
      <point x="129.379" y="0"/>
      <point x="165.933" y="0" type="curve" smooth="yes"/>
      <point x="442.556" y="0" type="line" smooth="yes"/>
      <point x="478.429" y="0"/>
      <point x="491.381" y="16.5001"/>
      <point x="493.728" y="50.509" type="curve" smooth="yes"/>
      <point x="497.248" y="101.538"/>
      <point x="494.96" y="154.652"/>
      <point x="495.455" y="205.913" type="curve" smooth="yes"/>
      <point x="496.512" y="315.266"/>
      <point x="497.612" y="424.64"/>
      <point x="497.612" y="533.999" type="curve" smooth="yes"/>
      <point x="497.612" y="544.762"/>
      <point x="503.268" y="550.332"/>
      <point x="513.998" y="550.332" type="curve" smooth="yes"/>
      <point x="1011.02" y="550.332" type="line" smooth="yes"/>
      <point x="1021.75" y="550.332"/>
      <point x="1027.41" y="544.762"/>
      <point x="1027.41" y="533.999" type="curve" smooth="yes"/>
      <point x="1027.41" y="424.64"/>
      <point x="1028.5" y="315.267"/>
      <point x="1029.55" y="205.914" type="curve" smooth="yes"/>
      <point x="1030.05" y="154.654"/>
      <point x="1027.76" y="101.54"/>
      <point x="1031.27" y="50.5116" type="curve" smooth="yes"/>
      <point x="1033.62" y="16.501"/>
      <point x="1046.57" y="0"/>
      <point x="1082.45" y="0" type="curve" smooth="yes"/>
      <point x="1360.07" y="0" type="line" smooth="yes"/>
      <point x="1396.62" y="0"/>
      <point x="1411.3" y="17.3585"/>
      <point x="1411.3" y="52.8716" type="curve" smooth="yes"/>
      <point x="1411.3" y="124.103"/>
      <point x="1407.33" y="195.803"/>
      <point x="1405.88" y="267.075" type="curve" smooth="yes"/>
      <point x="1402.81" y="417.035"/>
      <point x="1401.27" y="567.026"/>
      <point x="1401.27" y="717.018" type="curve" smooth="yes"/>
      <point x="1401.27" y="865.417"/>
      <point x="1402.77" y="1013.82"/>
      <point x="1405.78" y="1162.18" type="curve" smooth="yes"/>
      <point x="1407.21" y="1232.7"/>
      <point x="1411.09" y="1303.64"/>
      <point x="1411.09" y="1374.12" type="curve" smooth="yes"/>
      <point x="1411.09" y="1409.62"/>
      <point x="1396.39" y="1426.97"/>
    </contour>
  </outline>
</glyph>
<glyph name="I" format="2">
  <advance width="610"/>
  <unicode hex="0049"/>
  <anchor x="307" y="0" name="bottom"/>
  <anchor x="417" y="20" name="ogonek"/>
  <anchor x="307" y="1475" name="top"/>
  <anchor x="-77" y="1427" name="topleft"/>
  <outline>
    <contour>
      <point x="115.59" y="1375.29" type="curve" smooth="yes"/>
      <point x="115.59" y="1155.88"/>
      <point x="118.471" y="936.444"/>
      <point x="118.471" y="717.016" type="curve" smooth="yes"/>
      <point x="118.471" y="495.236"/>
      <point x="115.528" y="273.449"/>
      <point x="115.528" y="51.6883" type="curve" smooth="yes"/>
      <point x="115.528" y="17.2211"/>
      <point x="131.986" y="0"/>
      <point x="166.744" y="0" type="curve" smooth="yes"/>
      <point x="443.256" y="0" type="line" smooth="yes"/>
      <point x="478.014" y="0"/>
      <point x="494.472" y="17.2211"/>
      <point x="494.472" y="51.6883" type="curve" smooth="yes"/>
      <point x="494.472" y="273.449"/>
      <point x="491.529" y="495.236"/>
      <point x="491.529" y="717.016" type="curve" smooth="yes"/>
      <point x="491.529" y="936.444"/>
      <point x="494.41" y="1155.88"/>
      <point x="494.41" y="1375.29" type="curve" smooth="yes"/>
      <point x="494.41" y="1409.75"/>
      <point x="477.946" y="1426.97"/>
      <point x="443.195" y="1426.97" type="curve" smooth="yes"/>
      <point x="166.805" y="1426.97" type="line" smooth="yes"/>
      <point x="132.054" y="1426.97"/>
      <point x="115.59" y="1409.75"/>
    </contour>
  </outline>
</glyph>
<glyph name="J" format="2">
  <advance width="690"/>
  <unicode hex="004A"/>
  <anchor x="255" y="0" name="bottom"/>
  <anchor x="445" y="1475" name="top"/>
  <outline>
    <contour>
      <point x="606.143" y="716.623" type="curve" smooth="yes"/>
      <point x="606.143" y="936.121"/>
      <point x="610.179" y="1155.63"/>
      <point x="610.179" y="1375.1" type="curve" smooth="yes"/>
      <point x="610.179" y="1409.81"/>
      <point x="594.072" y="1426.97"/>
      <point x="558.958" y="1426.97" type="curve" smooth="yes"/>
      <point x="278.576" y="1426.97" type="line" smooth="yes"/>
      <point x="241.332" y="1426.97"/>
      <point x="229.705" y="1410.16"/>
      <point x="227.366" y="1375.47" type="curve" smooth="yes"/>
      <point x="223.229" y="1314.11"/>
      <point x="228.098" y="1227.17"/>
      <point x="228.335" y="1162.94" type="curve" smooth="yes"/>
      <point x="228.883" y="1014.17"/>
      <point x="229.158" y="865.399"/>
      <point x="229.158" y="716.627" type="curve" smooth="yes"/>
      <point x="229.158" y="589.61"/>
      <point x="228.556" y="462.592"/>
      <point x="228.556" y="335.574" type="curve" smooth="yes"/>
      <point x="228.556" y="233.5"/>
      <point x="209.685" y="116.972"/>
      <point x="110.259" y="64.7509" type="curve" smooth="yes"/>
      <point x="85.878" y="51.9457"/>
      <point x="62.3725" y="47.0273"/>
      <point x="36.075" y="40.3417" type="curve" smooth="yes"/>
      <point x="1.96571" y="31.6702"/>
      <point x="-8.82114" y="23.5197"/>
      <point x="-12.1488" y="-12.7363" type="curve" smooth="yes"/>
      <point x="-15.0505" y="-44.3523"/>
      <point x="-13.3759" y="-78.1104"/>
      <point x="-14.0302" y="-109.979" type="curve" smooth="yes"/>
      <point x="-14.9605" y="-155.287"/>
      <point x="-17.0492" y="-200.812"/>
      <point x="-17.0492" y="-246.11" type="curve" smooth="yes"/>
      <point x="-17.0492" y="-277.147"/>
      <point x="-5.88905" y="-297.432"/>
      <point x="27.9145" y="-297.432" type="curve"/>
      <point x="35.566" y="-297.095" type="line"/>
      <point x="394.03" y="-261.371"/>
      <point x="607.596" y="-46.3802"/>
      <point x="607.596" y="319.924" type="curve" smooth="yes"/>
      <point x="607.596" y="452.151"/>
      <point x="606.143" y="584.388"/>
    </contour>
  </outline>
</glyph>
<glyph name="K" format="2">
  <advance width="1346"/>
  <unicode hex="004B"/>
  <anchor x="575" y="0" name="bottom"/>
  <anchor x="711" y="1426" name="top"/>
  <outline>
    <contour>
      <point x="449.346" y="1426.97" type="curve" smooth="yes"/>
      <point x="166.904" y="1426.97" type="line" smooth="yes"/>
      <point x="130.7" y="1426.97"/>
      <point x="115.669" y="1409.68"/>
      <point x="115.669" y="1374.35" type="curve" smooth="yes"/>
      <point x="115.669" y="1303.8"/>
      <point x="119.014" y="1232.91"/>
      <point x="120.244" y="1162.33" type="curve" smooth="yes"/>
      <point x="122.83" y="1013.91"/>
      <point x="124.123" y="865.463"/>
      <point x="124.123" y="717.017" type="curve" smooth="yes"/>
      <point x="124.123" y="566.979"/>
      <point x="122.802" y="416.941"/>
      <point x="120.16" y="266.926" type="curve" smooth="yes"/>
      <point x="118.904" y="195.592"/>
      <point x="115.488" y="123.941"/>
      <point x="115.488" y="52.6374" type="curve" smooth="yes"/>
      <point x="115.488" y="17.2959"/>
      <point x="130.498" y="0"/>
      <point x="166.723" y="0" type="curve" smooth="yes"/>
      <point x="449.29" y="0" type="line" smooth="yes"/>
      <point x="485.311" y="0"/>
      <point x="498.202" y="16.6491"/>
      <point x="500.473" y="50.7572" type="curve" smooth="yes"/>
      <point x="503.634" y="98.2381"/>
      <point x="501.211" y="147.749"/>
      <point x="501.512" y="195.449" type="curve" smooth="yes"/>
      <point x="502.121" y="291.907"/>
      <point x="502.835" y="388.375"/>
      <point x="502.835" y="484.836" type="curve" smooth="yes"/>
      <point x="502.835" y="488.335"/>
      <point x="502.321" y="513.431"/>
      <point x="511.861" y="513.431" type="curve" smooth="yes"/>
      <point x="519.395" y="513.431"/>
      <point x="529.336" y="498.746"/>
      <point x="532.665" y="494.192" type="curve" smooth="yes"/>
      <point x="612.876" y="384.467"/>
      <point x="688.87" y="271.14"/>
      <point x="767.569" y="160.259" type="curve" smooth="yes"/>
      <point x="799.299" y="115.553"/>
      <point x="829.808" y="66.4599"/>
      <point x="864.599" y="24.3122" type="curve" smooth="yes"/>
      <point x="876.429" y="9.98166"/>
      <point x="886.913" y="3.01252"/>
      <point x="906.145" y="3.01252" type="curve" smooth="yes"/>
      <point x="1219.64" y="3.01252" type="line" smooth="yes"/>
      <point x="1240.84" y="3.01252"/>
      <point x="1282.66" y="5.01632"/>
      <point x="1282.66" y="35.3138" type="curve" smooth="yes"/>
      <point x="1282.66" y="52.8789"/>
      <point x="1270.78" y="70.2037"/>
      <point x="1261.59" y="84.0357" type="curve" smooth="yes"/>
      <point x="1217.85" y="149.825"/>
      <point x="832.409" y="700.106"/>
      <point x="832.409" y="717.601" type="curve" smooth="yes"/>
      <point x="832.409" y="723.237"/>
      <point x="836.365" y="727.147"/>
      <point x="840.572" y="730.242" type="curve" smooth="yes"/>
      <point x="1061.15" y="892.485"/>
      <point x="1199.92" y="1098.29"/>
      <point x="1259.47" y="1366.91" type="curve" smooth="yes"/>
      <point x="1260.79" y="1372.86"/>
      <point x="1261.64" y="1378.98"/>
      <point x="1261.64" y="1385.08" type="curve" smooth="yes"/>
      <point x="1261.64" y="1416.41"/>
      <point x="1238.11" y="1425.97"/>
      <point x="1210.54" y="1425.97" type="curve" smooth="yes"/>
      <point x="941.727" y="1425.97" type="line" smooth="yes"/>
      <point x="909.192" y="1425.97"/>
      <point x="897.37" y="1411.13"/>
      <point x="889.869" y="1381.67" type="curve" smooth="yes"/>
      <point x="879.311" y="1340.21"/>
      <point x="871.851" y="1299.68"/>
      <point x="857.746" y="1258.94" type="curve" smooth="yes"/>
      <point x="799.109" y="1089.56"/>
      <point x="689.095" y="954.215"/>
      <point x="525.448" y="877.365" type="curve" smooth="yes"/>
      <point x="522.046" y="875.767"/>
      <point x="518.205" y="874.396"/>
      <point x="514.389" y="874.396" type="curve" smooth="yes"/>
      <point x="504.799" y="874.396"/>
      <point x="502.977" y="884.65"/>
      <point x="502.977" y="892.025" type="curve" smooth="yes"/>
      <point x="502.977" y="999.621"/>
      <point x="502.307" y="1107.22"/>
      <point x="501.658" y="1214.82" type="curve" smooth="yes"/>
      <point x="501.338" y="1268.02"/>
      <point x="504.045" y="1323.25"/>
      <point x="500.529" y="1376.21" type="curve" smooth="yes"/>
      <point x="498.264" y="1410.32"/>
      <point x="485.367" y="1426.97"/>
    </contour>
  </outline>
</glyph>
<glyph name="L" format="2">
  <advance width="1120"/>
  <unicode hex="004C"/>
  <anchor x="568" y="0" name="bottom"/>
  <anchor x="568" y="714" name="center"/>
  <anchor x="297" y="1475" name="top"/>
  <anchor x="1048" y="1427" name="topright"/>
  <outline>
    <contour>
      <point x="114.358" y="1374.63" type="curve" smooth="yes"/>
      <point x="114.358" y="1155.99"/>
      <point x="121.124" y="936.304"/>
      <point x="121.124" y="717.017" type="curve" smooth="yes"/>
      <point x="121.124" y="566.92"/>
      <point x="120.067" y="416.823"/>
      <point x="117.953" y="266.741" type="curve" smooth="yes"/>
      <point x="116.947" y="195.338"/>
      <point x="114.214" y="123.733"/>
      <point x="114.214" y="52.3493" type="curve" smooth="yes"/>
      <point x="114.214" y="17.2204"/>
      <point x="129.621" y="0"/>
      <point x="165.444" y="0" type="curve" smooth="yes"/>
      <point x="1001.44" y="0" type="line" smooth="yes"/>
      <point x="1037.43" y="0"/>
      <point x="1052.67" y="17.2504"/>
      <point x="1052.67" y="52.4653" type="curve" smooth="yes"/>
      <point x="1052.67" y="99.0798"/>
      <point x="1050.64" y="145.895"/>
      <point x="1049.8" y="192.521" type="curve" smooth="yes"/>
      <point x="1049.28" y="221.141"/>
      <point x="1051.01" y="251.694"/>
      <point x="1048.34" y="280.062" type="curve" smooth="yes"/>
      <point x="1045.15" y="314.017" name=".hr01"/>
      <point x="1033.76" y="330.576"/>
      <point x="997.102" y="330.576" type="curve" smooth="yes"/>
      <point x="510.288" y="330.576" type="line" smooth="yes"/>
      <point x="499.45" y="330.576"/>
      <point x="493.904" y="336.169"/>
      <point x="493.904" y="346.99" type="curve" smooth="yes"/>
      <point x="494.226" y="716.628" type="line" smooth="yes"/>
      <point x="494.226" y="936.399"/>
      <point x="493.207" y="1156.17"/>
      <point x="493.207" y="1375.94" type="curve" smooth="yes"/>
      <point x="493.207" y="1409.87"/>
      <point x="475.846" y="1426.97"/>
      <point x="442.013" y="1426.97" type="curve" smooth="yes"/>
      <point x="165.589" y="1426.97" type="line" smooth="yes"/>
      <point x="129.782" y="1426.97"/>
      <point x="114.358" y="1409.75"/>
    </contour>
  </outline>
</glyph>
<glyph name="M" format="2">
  <advance width="1677"/>
  <unicode hex="004D"/>
  <anchor x="839" y="0" name="bottom"/>
  <anchor x="839" y="1427" name="top"/>
  <outline>
    <contour>
      <point x="166.033" y="0" type="curve" smooth="yes"/>
      <point x="429.729" y="0" type="line" smooth="yes"/>
      <point x="467.62" y="0"/>
      <point x="476.637" y="16.4339"/>
      <point x="480.89" y="50.2841" type="curve" smooth="yes"/>
      <point x="484.518" y="79.1641"/>
      <point x="481.892" y="112.68"/>
      <point x="482.315" y="142.033" type="curve" smooth="yes"/>
      <point x="483.524" y="226.018"/>
      <point x="482.397" y="310.451"/>
      <point x="485.155" y="394.357" type="curve" smooth="yes"/>
      <point x="485.26" y="397.53"/>
      <point x="484.69" y="424.466"/>
      <point x="494.223" y="424.466" type="curve" smooth="yes"/>
      <point x="501.933" y="424.466"/>
      <point x="512.33" y="407.625"/>
      <point x="515.369" y="403.087" type="curve" smooth="yes"/>
      <point x="623.322" y="241.862"/>
      <point x="725.078" y="75.9724"/>
      <point x="831.541" y="-86.3409" type="curve"/>
      <point x="835.429" y="-88.4404" type="line"/>
      <point x="839.209" y="-86.2737" type="line"/>
      <point x="942.961" y="90.9025"/>
      <point x="1041.46" y="271.682"/>
      <point x="1146.94" y="447.73" type="curve" smooth="yes"/>
      <point x="1149.58" y="452.136"/>
      <point x="1160.71" y="472.454"/>
      <point x="1168.66" y="472.454" type="curve" smooth="yes"/>
      <point x="1178.13" y="472.454"/>
      <point x="1177.5" y="442.278"/>
      <point x="1177.58" y="439.681" type="curve" smooth="yes"/>
      <point x="1180.35" y="348.258"/>
      <point x="1179.12" y="256.331"/>
      <point x="1180.34" y="164.832" type="curve" smooth="yes"/>
      <point x="1180.83" y="128.123"/>
      <point x="1177.5" y="86.438"/>
      <point x="1182.02" y="50.3173" type="curve" smooth="yes"/>
      <point x="1186.26" y="16.4455"/>
      <point x="1195.26" y="0"/>
      <point x="1233.18" y="0" type="curve" smooth="yes"/>
      <point x="1510.84" y="0" type="line" smooth="yes"/>
      <point x="1547.69" y="0"/>
      <point x="1562.08" y="17.4118"/>
      <point x="1562.08" y="53.068" type="curve" smooth="yes"/>
      <point x="1562.08" y="126.595"/>
      <point x="1557.52" y="200.718"/>
      <point x="1555.86" y="274.298" type="curve" smooth="yes"/>
      <point x="1552.54" y="421.806"/>
      <point x="1550.88" y="569.351"/>
      <point x="1550.88" y="716.897" type="curve" smooth="yes"/>
      <point x="1550.88" y="967.881"/>
      <point x="1555.68" y="1218.87"/>
      <point x="1565.27" y="1469.67" type="curve"/>
      <point x="1562.86" y="1472.17" type="line"/>
      <point x="1558.84" y="1470.18" type="line"/>
      <point x="1391.66" y="1250.1"/>
      <point x="1229.98" y="1025.94"/>
      <point x="1069.52" y="800.942" type="curve" smooth="yes" name=".hr01"/>
      <point x="993.144" y="693.85"/>
      <point x="918.288" y="585.409"/>
      <point x="840.638" y="479.261" type="curve" smooth="yes"/>
      <point x="837.537" y="475.022"/>
      <point x="833.108" y="469.767"/>
      <point x="827.238" y="469.767" type="curve" smooth="yes"/>
      <point x="821.311" y="469.767"/>
      <point x="816.919" y="475.125"/>
      <point x="813.842" y="479.421" type="curve" smooth="yes"/>
      <point x="610.025" y="763.919"/>
      <point x="420.273" y="1059.38"/>
      <point x="209.481" y="1338.89" type="curve" smooth="yes"/>
      <point x="197.932" y="1354.21"/>
      <point x="166.005" y="1398.87"/>
      <point x="142.832" y="1398.87" type="curve" smooth="yes"/>
      <point x="116.232" y="1398.87"/>
      <point x="116.91" y="1336.8"/>
      <point x="116.91" y="1322.45" type="curve" smooth="yes"/>
      <point x="117.154" y="1306.86" type="line" smooth="yes"/>
      <point x="122.77" y="1110.24"/>
      <point x="125.978" y="913.592"/>
      <point x="125.978" y="716.897" type="curve" smooth="yes"/>
      <point x="125.978" y="569.351"/>
      <point x="124.322" y="421.805"/>
      <point x="121.009" y="274.296" type="curve" smooth="yes"/>
      <point x="119.356" y="200.715"/>
      <point x="114.796" y="126.593"/>
      <point x="114.796" y="53.0654" type="curve" smooth="yes"/>
      <point x="114.796" y="17.4111"/>
      <point x="129.191" y="0"/>
    </contour>
  </outline>
</glyph>
<glyph name="N" format="2">
  <advance width="1524"/>
  <unicode hex="004E"/>
  <anchor x="763" y="0" name="bottom"/>
  <anchor x="710" y="1427" name="top"/>
  <outline>
    <contour>
      <point x="1407.43" y="-44.2022" type="curve" smooth="yes"/>
      <point x="1410.71" y="-44.2022"/>
      <point x="1412.27" y="-42.375"/>
      <point x="1412.27" y="-39.1916" type="curve" smooth="yes"/>
      <point x="1412.27" y="41.8664"/>
      <point x="1407.13" y="123.613"/>
      <point x="1405.25" y="204.731" type="curve" smooth="yes"/>
      <point x="1401.28" y="375.502"/>
      <point x="1399.29" y="546.319"/>
      <point x="1399.29" y="717.136" type="curve" smooth="yes"/>
      <point x="1399.29" y="865.508"/>
      <point x="1400.79" y="1013.88"/>
      <point x="1403.79" y="1162.22" type="curve" smooth="yes"/>
      <point x="1405.21" y="1232.73"/>
      <point x="1409.1" y="1303.65"/>
      <point x="1409.1" y="1374.12" type="curve" smooth="yes"/>
      <point x="1409.1" y="1409.62"/>
      <point x="1394.4" y="1426.97"/>
      <point x="1357.86" y="1426.97" type="curve" smooth="yes"/>
      <point x="1077.81" y="1426.97" type="line" smooth="yes"/>
      <point x="1044.04" y="1426.97"/>
      <point x="1026.63" y="1409.89"/>
      <point x="1026.63" y="1376.01" type="curve" smooth="yes"/>
      <point x="1026.63" y="1159.34"/>
      <point x="1028.08" y="942.678"/>
      <point x="1028.08" y="726.03" type="curve" smooth="yes"/>
      <point x="1028.08" y="720.498"/>
      <point x="1028.24" y="703.916"/>
      <point x="1018.41" y="703.916" type="curve" smooth="yes"/>
      <point x="1011.86" y="703.916"/>
      <point x="1005.42" y="709.675"/>
      <point x="1000.89" y="713.562" type="curve" smooth="yes"/>
      <point x="710.518" y="962.794"/>
      <point x="428.581" y="1222.63"/>
      <point x="132.622" y="1465.33" type="curve" smooth="yes"/>
      <point x="128.8" y="1468.46"/>
      <point x="124.312" y="1470.16"/>
      <point x="119.35" y="1470.16" type="curve" smooth="yes"/>
      <point x="114.23" y="1470.16"/>
      <point x="112.088" y="1467.61"/>
      <point x="112.088" y="1462.65" type="curve" smooth="yes"/>
      <point x="112.088" y="1382.72"/>
      <point x="117.083" y="1302.13"/>
      <point x="118.917" y="1222.14" type="curve" smooth="yes"/>
      <point x="122.779" y="1053.76"/>
      <point x="124.711" y="885.33"/>
      <point x="124.711" y="716.904" type="curve" smooth="yes"/>
      <point x="124.711" y="566.938"/>
      <point x="123.179" y="416.972"/>
      <point x="120.115" y="267.038" type="curve" smooth="yes"/>
      <point x="118.659" y="195.777"/>
      <point x="114.695" y="124.09"/>
      <point x="114.695" y="52.8697" type="curve" smooth="yes"/>
      <point x="114.695" y="17.3575"/>
      <point x="129.368" y="0"/>
      <point x="165.931" y="0" type="curve" smooth="yes"/>
      <point x="450.037" y="0" type="line" smooth="yes"/>
      <point x="483.889" y="0"/>
      <point x="501.214" y="17.0964"/>
      <point x="501.214" y="51.031" type="curve" smooth="yes"/>
      <point x="501.382" y="189.67" type="line" smooth="yes"/>
      <point x="501.382" y="353.662"/>
      <point x="499.199" y="517.66"/>
      <point x="499.199" y="681.637" type="curve" smooth="yes"/>
      <point x="499.199" y="687.265"/>
      <point x="499.069" y="703.521"/>
      <point x="508.914" y="703.521" type="curve" smooth="yes"/>
      <point x="515.363" y="703.521"/>
      <point x="521.699" y="698.044"/>
      <point x="526.23" y="694.254" type="curve" smooth="yes"/>
      <point x="613.101" y="621.6"/>
      <point x="1387.44" y="-44.2022"/>
    </contour>
  </outline>
</glyph>
<glyph name="O" format="2">
  <advance width="1538"/>
  <unicode hex="004F"/>
  <anchor x="769" y="0" name="bottom"/>
  <anchor x="769" y="714" name="center"/>
  <anchor x="1154" y="20" name="ogonek"/>
  <anchor x="769" y="1451" name="top"/>
  <anchor x="21" y="1427" name="topleft"/>
  <anchor x="894" y="1616" name="topright"/>
  <outline>
    <contour>
      <point x="72.7661" y="712.01" type="curve" smooth="yes"/>
      <point x="72.7661" y="320.607"/>
      <point x="365.338" y="-15.065"/>
      <point x="766.999" y="-15.065" type="curve" smooth="yes"/>
      <point x="1161.67" y="-15.065"/>
      <point x="1466.75" y="319.168"/>
      <point x="1466.75" y="707.026" type="curve" smooth="yes"/>
      <point x="1466.75" y="1094.74"/>
      <point x="1161.65" y="1441.21"/>
      <point x="764.479" y="1441.21" type="curve" smooth="yes"/>
      <point x="367.324" y="1441.21"/>
      <point x="72.7661" y="1097.82"/>
    </contour>
    <contour>
      <point x="457.624" y="715.263" type="curve" smooth="yes"/>
      <point x="457.624" y="895.215"/>
      <point x="563.965" y="1111.42"/>
      <point x="769" y="1111.42" type="curve" smooth="yes"/>
      <point x="979.214" y="1111.42"/>
      <point x="1078.25" y="894.508"/>
      <point x="1078.25" y="712.01" type="curve" smooth="yes"/>
      <point x="1078.25" y="537.845"/>
      <point x="988.682" y="315.579"/>
      <point x="783.81" y="315.579" type="curve" smooth="yes"/>
      <point x="572.991" y="315.579"/>
      <point x="457.624" y="526.451"/>
    </contour>
  </outline>
</glyph>
<glyph name="P" format="2">
  <advance width="1335"/>
  <unicode hex="0050"/>
  <anchor x="676" y="0" name="bottom"/>
  <anchor x="676" y="1427" name="top"/>
  <outline>
    <contour>
      <point x="114.719" y="1374.36" type="curve" smooth="yes"/>
      <point x="114.719" y="1301.45"/>
      <point x="118.14" y="1228.21"/>
      <point x="119.382" y="1155.27" type="curve" smooth="yes"/>
      <point x="121.869" y="1009.2"/>
      <point x="123.112" y="863.109"/>
      <point x="123.112" y="717.017" type="curve" smooth="yes"/>
      <point x="123.112" y="569.359"/>
      <point x="121.842" y="421.7"/>
      <point x="119.302" y="274.063" type="curve" smooth="yes"/>
      <point x="118.033" y="200.347"/>
      <point x="114.539" y="126.312"/>
      <point x="114.539" y="52.6272" type="curve" smooth="yes"/>
      <point x="114.539" y="17.3349"/>
      <point x="129.579" y="0"/>
      <point x="165.773" y="0" type="curve" smooth="yes"/>
      <point x="442.355" y="0" type="line" smooth="yes"/>
      <point x="480.657" y="0"/>
      <point x="489.491" y="16.5974"/>
      <point x="493.538" y="50.7521" type="curve" smooth="yes"/>
      <point x="497.742" y="86.2306"/>
      <point x="494.133" y="127.197"/>
      <point x="494.377" y="163.237" type="curve" smooth="yes"/>
      <point x="494.886" y="238.224"/>
      <point x="495.595" y="313.222"/>
      <point x="495.595" y="388.211" type="curve" smooth="yes"/>
      <point x="495.595" y="398.966"/>
      <point x="501.263" y="404.532"/>
      <point x="511.98" y="404.532" type="curve" smooth="yes"/>
      <point x="722.348" y="404.497" type="line" smooth="yes"/>
      <point x="1042.29" y="404.497"/>
      <point x="1282.68" y="583.569"/>
      <point x="1282.68" y="920.606" type="curve" smooth="yes"/>
      <point x="1282.68" y="1291.9"/>
      <point x="973.396" y="1427.01"/>
      <point x="647.07" y="1427.01" type="curve" smooth="yes"/>
      <point x="165.953" y="1426.97" type="line" smooth="yes"/>
      <point x="129.779" y="1426.97"/>
      <point x="114.719" y="1409.64"/>
    </contour>
    <contour>
      <point x="496.257" y="735.96" type="line"/>
      <point x="496.229" y="856.116"/>
      <point x="495.934" y="976.272"/>
      <point x="495.375" y="1096.43" type="curve"/>
      <point x="699.668" y="1096.47" type="line" smooth="yes"/>
      <point x="792.248" y="1096.47"/>
      <point x="871.047" y="1049.88"/>
      <point x="899.242" y="958.945" type="curve" smooth="yes"/>
      <point x="902.877" y="947.218"/>
      <point x="908.905" y="921.53"/>
      <point x="908.905" y="909.624" type="curve" smooth="yes"/>
      <point x="908.905" y="798.844"/>
      <point x="799.768" y="735.875"/>
      <point x="700.437" y="735.875" type="curve" smooth="yes"/>
    </contour>
  </outline>
</glyph>
<glyph name="Q" format="2">
  <advance width="1538"/>
  <unicode hex="0051"/>
  <anchor x="789" y="0" name="bottom"/>
  <anchor x="789" y="1427" name="top"/>
  <outline>
    <contour>
      <point x="72.7661" y="712.01" type="curve" smooth="yes"/>
      <point x="72.7661" y="320.579"/>
      <point x="365.364" y="-15.065"/>
      <point x="766.999" y="-15.065" type="curve" smooth="yes"/>
      <point x="812.101" y="-15.065"/>
      <point x="855.845" y="-9.90487"/>
      <point x="900.136" y="-1.80003" type="curve"/>
      <point x="904.6" y="-1.32503" type="line"/>
      <point x="936.348" y="-1.32503"/>
      <point x="934.478" y="-111.58"/>
      <point x="999.258" y="-111.58" type="curve" smooth="yes"/>
      <point x="1242.43" y="-111.58" type="line" smooth="yes"/>
      <point x="1262.23" y="-111.58"/>
      <point x="1305.71" y="-110.217"/>
      <point x="1305.71" y="-79.3743" type="curve" smooth="yes"/>
      <point x="1305.71" y="-39.2269"/>
      <point x="1181.85" y="99.3319"/>
      <point x="1181.85" y="119.657" type="curve" smooth="yes"/>
      <point x="1181.85" y="124.995"/>
      <point x="1185.38" y="128.855"/>
      <point x="1189.21" y="132.06" type="curve" smooth="yes"/>
      <point x="1364.26" y="278.572"/>
      <point x="1465.25" y="476.784"/>
      <point x="1465.25" y="707.31" type="curve" smooth="yes"/>
      <point x="1465.25" y="1094.19"/>
      <point x="1165.06" y="1442.03"/>
      <point x="767" y="1442.03" type="curve" smooth="yes"/>
      <point x="369.263" y="1442.03"/>
      <point x="72.7661" y="1098.95"/>
    </contour>
    <contour>
      <point x="917.49" y="499.415" type="line"/>
      <point x="682.45" y="489.43" type="line"/>
      <point x="763.372" y="316.309" type="line"/>
      <point x="559.598" y="331.857"/>
      <point x="460.728" y="533.6"/>
      <point x="460.728" y="717.399" type="curve" smooth="yes"/>
      <point x="460.728" y="897.85"/>
      <point x="562.341" y="1111.42"/>
      <point x="769" y="1111.42" type="curve" smooth="yes"/>
      <point x="973.154" y="1111.42"/>
      <point x="1078.32" y="899.97"/>
      <point x="1078.32" y="720.215" type="curve" smooth="yes"/>
      <point x="1078.32" y="608.713"/>
      <point x="1052.7" y="495.833"/>
      <point x="978.965" y="409.048" type="curve"/>
    </contour>
  </outline>
</glyph>
<glyph name="R" format="2">
  <advance width="1305"/>
  <unicode hex="0052"/>
  <anchor x="708" y="0" name="bottom"/>
  <anchor x="599" y="1475" name="top"/>
  <outline>
    <contour>
      <point x="592.1" y="1426.97" type="curve" smooth="yes"/>
      <point x="165.912" y="1426.97" type="line" smooth="yes"/>
      <point x="129.775" y="1426.97"/>
      <point x="114.678" y="1409.69"/>
      <point x="114.678" y="1374.4" type="curve" smooth="yes"/>
      <point x="114.678" y="1303.83"/>
      <point x="117.909" y="1232.95"/>
      <point x="119.097" y="1162.36" type="curve" smooth="yes"/>
      <point x="121.596" y="1013.93"/>
      <point x="122.845" y="865.473"/>
      <point x="122.845" y="717.017" type="curve" smooth="yes"/>
      <point x="122.845" y="566.969"/>
      <point x="121.569" y="416.921"/>
      <point x="119.017" y="266.895" type="curve" smooth="yes"/>
      <point x="117.803" y="195.549"/>
      <point x="114.503" y="123.907"/>
      <point x="114.503" y="52.5886" type="curve" smooth="yes"/>
      <point x="114.503" y="17.283"/>
      <point x="129.581" y="0"/>
      <point x="165.737" y="0" type="curve" smooth="yes"/>
      <point x="442.314" y="0" type="line" smooth="yes"/>
      <point x="478.304" y="0"/>
      <point x="491.297" y="16.6627"/>
      <point x="493.498" y="50.7905" type="curve" smooth="yes"/>
      <point x="496.014" y="89.8037"/>
      <point x="494.064" y="130.401"/>
      <point x="494.304" y="169.584" type="curve" smooth="yes"/>
      <point x="494.755" y="243.121"/>
      <point x="495.385" y="316.665"/>
      <point x="495.385" y="390.203" type="curve" smooth="yes"/>
      <point x="495.385" y="400.963"/>
      <point x="501.046" y="406.53"/>
      <point x="511.771" y="406.53" type="curve" smooth="yes"/>
      <point x="565.026" y="406.53" type="line" smooth="yes"/>
      <point x="571.109" y="406.53"/>
      <point x="575.55" y="403.75"/>
      <point x="578.918" y="398.832" type="curve" smooth="yes"/>
      <point x="639.67" y="310.134"/>
      <point x="694.519" y="214.349"/>
      <point x="752.284" y="123.353" type="curve" smooth="yes"/>
      <point x="772.975" y="90.7573"/>
      <point x="792.635" y="54.1298"/>
      <point x="815.911" y="23.5491" type="curve" smooth="yes"/>
      <point x="827.976" y="7.69702"/>
      <point x="838.158" y="0"/>
      <point x="858.984" y="0" type="curve" smooth="yes"/>
      <point x="1170.48" y="0" type="line" smooth="yes"/>
      <point x="1191.03" y="0"/>
      <point x="1235.5" y="1.46777"/>
      <point x="1235.5" y="31.6227" type="curve" smooth="yes"/>
      <point x="1235.5" y="50.0532"/>
      <point x="1221.15" y="68.7837"/>
      <point x="1211.15" y="82.7561" type="curve" smooth="yes"/>
      <point x="1181.55" y="124.144"/>
      <point x="935.355" y="439.632"/>
      <point x="935.355" y="454.029" type="curve" smooth="yes"/>
      <point x="935.355" y="460.657"/>
      <point x="941.02" y="464.462"/>
      <point x="946.043" y="467.439" type="curve" smooth="yes"/>
      <point x="1116.33" y="568.367"/>
      <point x="1184.09" y="734.282"/>
      <point x="1184.09" y="927.403" type="curve" smooth="yes"/>
      <point x="1184.09" y="1298.43"/>
      <point x="927.372" y="1426.97"/>
    </contour>
    <contour>
      <point x="639.316" y="735.96" type="curve" smooth="yes"/>
      <point x="495.984" y="735.96" type="line"/>
      <point x="495.958" y="856.116"/>
      <point x="495.688" y="976.272"/>
      <point x="495.177" y="1096.43" type="curve"/>
      <point x="640.232" y="1096.43" type="line" smooth="yes"/>
      <point x="743.646" y="1096.43"/>
      <point x="795.595" y="1002.43"/>
      <point x="795.595" y="908.626" type="curve" smooth="yes"/>
      <point x="795.595" y="813.933"/>
      <point x="739.034" y="735.96"/>
    </contour>
  </outline>
</glyph>
<glyph name="S" format="2">
  <advance width="848"/>
  <unicode hex="0053"/>
  <anchor x="398" y="-23" name="bottom"/>
  <anchor x="398" y="1418" name="top"/>
  <outline>
    <contour>
      <point x="741.957" y="1352.54" type="curve" smooth="yes"/>
      <point x="741.957" y="1420.8"/>
      <point x="546.184" y="1435.16"/>
      <point x="496.419" y="1435.16" type="curve" smooth="yes"/>
      <point x="215.002" y="1435.16"/>
      <point x="77.4016" y="1282.44"/>
      <point x="77.4016" y="1005.26" type="curve" smooth="yes"/>
      <point x="77.4016" y="613.969"/>
      <point x="386.679" y="690.884"/>
      <point x="386.679" y="415.503" type="curve" smooth="yes"/>
      <point x="386.679" y="339.495"/>
      <point x="354.38" y="289.235"/>
      <point x="273.453" y="289.235" type="curve" smooth="yes"/>
      <point x="225.83" y="289.235"/>
      <point x="178.602" y="315.593"/>
      <point x="144.975" y="315.593" type="curve" smooth="yes"/>
      <point x="116.49" y="315.593"/>
      <point x="108.169" y="294.528"/>
      <point x="102.564" y="270.63" type="curve" smooth="yes"/>
      <point x="94.9266" y="238.063"/>
      <point x="64.7386" y="91.2472"/>
      <point x="64.7386" y="65.5437" type="curve" smooth="yes"/>
      <point x="64.7386" y="40.6093"/>
      <point x="78.2334" y="30.4704"/>
      <point x="99.7621" y="22.4857" type="curve" smooth="yes"/>
      <point x="173.056" y="-4.69837"/>
      <point x="278.252" y="-15.1429"/>
      <point x="356.322" y="-15.1429" type="curve" smooth="yes"/>
      <point x="640.649" y="-15.1429"/>
      <point x="790.239" y="121.512"/>
      <point x="790.239" y="409.576" type="curve" smooth="yes"/>
      <point x="790.239" y="793.72"/>
      <point x="481.438" y="769.412"/>
      <point x="481.438" y="1031.87" type="curve" smooth="yes"/>
      <point x="481.438" y="1087.99"/>
      <point x="503.859" y="1128.81"/>
      <point x="564.814" y="1128.81" type="curve" smooth="yes"/>
      <point x="598.917" y="1128.81"/>
      <point x="628.37" y="1107.05"/>
      <point x="660.275" y="1107.05" type="curve" smooth="yes"/>
      <point x="685.617" y="1107.05"/>
      <point x="692.745" y="1127.54"/>
      <point x="698.149" y="1148.32" type="curve" smooth="yes"/>
      <point x="705.02" y="1174.74"/>
      <point x="741.957" y="1335.46"/>
    </contour>
  </outline>
</glyph>
<glyph name="T" format="2">
  <advance width="1081"/>
  <unicode hex="0054"/>
  <anchor x="541" y="0" name="bottom"/>
  <anchor x="541" y="714" name="center"/>
  <anchor x="541" y="1427" name="top"/>
  <outline>
    <contour>
      <point x="55.5275" y="1374.54" type="curve" smooth="yes"/>
      <point x="55.5275" y="1299.64"/>
      <point x="55.1505" y="1221.62"/>
      <point x="59.744" y="1146.96" type="curve" smooth="yes"/>
      <point x="61.8353" y="1112.97"/>
      <point x="75.4467" y="1096.43"/>
      <point x="110.983" y="1096.43" type="curve" smooth="yes"/>
      <point x="328.394" y="1096.43" type="line" smooth="yes"/>
      <point x="340.155" y="1096.43"/>
      <point x="343.868" y="1091.05" name=".hr01"/>
      <point x="344.776" y="1080.13" type="curve" smooth="yes"/>
      <point x="347.786" y="1043.92"/>
      <point x="345.127" y="1005"/>
      <point x="345.256" y="968.516" type="curve" smooth="yes"/>
      <point x="345.697" y="717.385" type="line" smooth="yes"/>
      <point x="345.697" y="495.489"/>
      <point x="342.612" y="273.585"/>
      <point x="342.612" y="51.7104" type="curve" smooth="yes"/>
      <point x="342.612" y="17.128"/>
      <point x="358.952" y="0"/>
      <point x="393.828" y="0" type="curve" smooth="yes"/>
      <point x="670.343" y="0" type="line" smooth="yes"/>
      <point x="705.157" y="0"/>
      <point x="721.558" y="17.1164"/>
      <point x="721.558" y="51.6642" type="curve" smooth="yes"/>
      <point x="721.558" y="273.557"/>
      <point x="718.751" y="495.474"/>
      <point x="718.751" y="717.384" type="curve" smooth="yes"/>
      <point x="718.751" y="838.297"/>
      <point x="719.589" y="959.211"/>
      <point x="719.589" y="1080.12" type="curve" smooth="yes"/>
      <point x="719.589" y="1090.87"/>
      <point x="725.272" y="1096.43"/>
      <point x="735.971" y="1096.43" type="curve" smooth="yes"/>
      <point x="971.137" y="1096.43" type="line" smooth="yes"/>
      <point x="1006.67" y="1096.43"/>
      <point x="1020.28" y="1112.97"/>
      <point x="1022.38" y="1146.96" type="curve" smooth="yes"/>
      <point x="1026.97" y="1221.62"/>
      <point x="1026.59" y="1299.64"/>
      <point x="1026.59" y="1374.54" type="curve" smooth="yes"/>
      <point x="1026.59" y="1409.73"/>
      <point x="1011.3" y="1426.97"/>
      <point x="975.361" y="1426.97" type="curve" smooth="yes"/>
      <point x="106.759" y="1426.97" type="line" smooth="yes"/>
      <point x="70.8204" y="1426.97"/>
      <point x="55.5275" y="1409.73"/>
    </contour>
  </outline>
</glyph>
<glyph name="U" format="2">
  <advance width="1391"/>
  <unicode hex="0055"/>
  <anchor x="696" y="0" name="bottom"/>
  <anchor x="1036" y="20" name="ogonek"/>
  <anchor x="696" y="1475" name="top"/>
  <anchor x="1241" y="1445" name="topright"/>
  <outline>
    <contour>
      <point x="480.08" y="716.837" type="line" smooth="yes"/>
      <point x="480.08" y="869.03"/>
      <point x="479.542" y="1021.22"/>
      <point x="478.471" y="1173.41" type="curve" smooth="yes"/>
      <point x="477.224" y="1325.6" type="line"/>
      <point x="476.729" y="1376.33" type="line"/>
      <point x="472.826" y="1410.43"/>
      <point x="463.522" y="1426.97"/>
      <point x="425.552" y="1426.97" type="curve" smooth="yes"/>
      <point x="148.072" y="1426.97" type="line" smooth="yes"/>
      <point x="111.739" y="1426.97"/>
      <point x="96.8366" y="1409.61"/>
      <point x="96.8366" y="1374.24" type="curve" smooth="yes"/>
      <point x="96.8366" y="1298.55"/>
      <point x="100.665" y="1222.44"/>
      <point x="102.036" y="1146.7" type="curve" smooth="yes"/>
      <point x="104.629" y="1003.42"/>
      <point x="105.933" y="860.119"/>
      <point x="105.933" y="716.815" type="curve" smooth="yes"/>
      <point x="105.933" y="656.994"/>
      <point x="105.25" y="597.173"/>
      <point x="105.25" y="537.354" type="curve" smooth="yes"/>
      <point x="105.25" y="178.995"/>
      <point x="348.853" y="-15.065"/>
      <point x="694.059" y="-15.065" type="curve" smooth="yes"/>
      <point x="1015.83" y="-15.065"/>
      <point x="1283.11" y="205.107"/>
      <point x="1285.89" y="537.354" type="curve" smooth="yes"/>
      <point x="1286.39" y="597.134"/>
      <point x="1285.2" y="657.019"/>
      <point x="1285.2" y="716.815" type="curve" smooth="yes"/>
      <point x="1285.2" y="860.12"/>
      <point x="1286.51" y="1003.42"/>
      <point x="1289.1" y="1146.71" type="curve" smooth="yes"/>
      <point x="1290.46" y="1222.44"/>
      <point x="1294.29" y="1298.55"/>
      <point x="1294.29" y="1374.25" type="curve" smooth="yes"/>
      <point x="1294.29" y="1409.61"/>
      <point x="1279.38" y="1426.97"/>
      <point x="1243.05" y="1426.97" type="curve" smooth="yes"/>
      <point x="971.553" y="1426.97" type="line" smooth="yes"/>
      <point x="933.593" y="1426.97"/>
      <point x="924.285" y="1410.43"/>
      <point x="920.376" y="1376.34" type="curve"/>
      <point x="919.87" y="1325.61" type="line"/>
      <point x="918.594" y="1173.42" type="line" smooth="yes"/>
      <point x="917.499" y="1021.23"/>
      <point x="916.949" y="869.033"/>
      <point x="916.949" y="716.837" type="curve" smooth="yes"/>
      <point x="917.188" y="543.344" type="line" smooth="yes"/>
      <point x="917.188" y="399.445"/>
      <point x="838.945" y="317.579"/>
      <point x="694.085" y="317.579" type="curve" smooth="yes"/>
      <point x="555.445" y="317.579"/>
      <point x="479.847" y="408.801"/>
      <point x="479.847" y="543.344" type="curve" smooth="yes"/>
    </contour>
  </outline>
</glyph>
<glyph name="V" format="2">
  <advance width="1337"/>
  <unicode hex="0056"/>
  <anchor x="668" y="0" name="bottom"/>
  <anchor x="668" y="1427" name="top"/>
  <outline>
    <contour>
      <point x="429.775" y="1426.97" type="curve" smooth="yes"/>
      <point x="117.667" y="1426.97" type="line" smooth="yes"/>
      <point x="93.6936" y="1426.97"/>
      <point x="61.3429" y="1422.17"/>
      <point x="61.3429" y="1390.81" type="curve" smooth="yes"/>
      <point x="61.3429" y="1378.19"/>
      <point x="65.9231" y="1365.98"/>
      <point x="70.8416" y="1354.6" type="curve" smooth="yes"/>
      <point x="179.803" y="1102.36"/>
      <point x="288.791" y="850.595"/>
      <point x="393.757" y="596.628" type="curve" smooth="yes"/>
      <point x="550.868" y="215.787" type="line" smooth="yes"/>
      <point x="574.121" y="159.578"/>
      <point x="596.037" y="102.085"/>
      <point x="621.1" y="46.6992" type="curve" smooth="yes"/>
      <point x="627.983" y="31.4902"/>
      <point x="644.664" y="-9.62958"/>
      <point x="668.082" y="-9.62958" type="curve" smooth="yes"/>
      <point x="691.492" y="-9.62958"/>
      <point x="708.194" y="31.462"/>
      <point x="715.087" y="46.6685" type="curve" smooth="yes"/>
      <point x="740.19" y="102.052"/>
      <point x="762.15" y="159.545"/>
      <point x="785.443" y="215.753" type="curve" smooth="yes"/>
      <point x="942.82" y="596.593" type="line" smooth="yes"/>
      <point x="1047.96" y="850.562"/>
      <point x="1157.11" y="1102.33"/>
      <point x="1266.22" y="1354.57" type="curve" smooth="yes"/>
      <point x="1271.15" y="1365.97"/>
      <point x="1275.75" y="1378.19"/>
      <point x="1275.75" y="1390.82" type="curve" smooth="yes"/>
      <point x="1275.75" y="1422.18"/>
      <point x="1243.37" y="1426.97"/>
      <point x="1219.41" y="1426.97" type="curve" smooth="yes"/>
      <point x="940.444" y="1426.97" type="line" smooth="yes"/>
      <point x="914.065" y="1426.97"/>
      <point x="903.171" y="1416.12"/>
      <point x="892.503" y="1393.68" type="curve" smooth="yes"/>
      <point x="870.295" y="1346.96"/>
      <point x="853.273" y="1287.72"/>
      <point x="835.214" y="1238.38" type="curve" smooth="yes"/>
      <point x="790.227" y="1115.48"/>
      <point x="748.642" y="990.726"/>
      <point x="701.616" y="868.657" type="curve" smooth="yes"/>
      <point x="699.789" y="863.915"/>
      <point x="694.215" y="847.125"/>
      <point x="686.23" y="847.125" type="curve" smooth="yes"/>
      <point x="678.258" y="847.125"/>
      <point x="672.627" y="863.849"/>
      <point x="670.778" y="868.593" type="curve" smooth="yes"/>
      <point x="623.178" y="990.677"/>
      <point x="581.039" y="1115.5"/>
      <point x="535.558" y="1238.45" type="curve" smooth="yes"/>
      <point x="517.29" y="1287.84"/>
      <point x="500.052" y="1347.06"/>
      <point x="477.661" y="1393.83" type="curve" smooth="yes"/>
      <point x="466.965" y="1416.17"/>
      <point x="456.059" y="1426.97"/>
    </contour>
  </outline>
</glyph>
<glyph name="W" format="2">
  <advance width="1923"/>
  <unicode hex="0057"/>
  <anchor x="963" y="0" name="bottom"/>
  <anchor x="963" y="1451" name="top"/>
  <outline>
    <contour>
      <point x="607.96" y="-10.0536" type="curve" smooth="yes"/>
      <point x="630.602" y="-10.0536"/>
      <point x="648.554" y="27.448"/>
      <point x="656.744" y="43.3474" type="curve" smooth="yes"/>
      <point x="772.177" y="267.43"/>
      <point x="868.143" y="501.939"/>
      <point x="979.155" y="728.187" type="curve" smooth="yes"/>
      <point x="981.58" y="733.13"/>
      <point x="986.858" y="744.641"/>
      <point x="994.191" y="744.641" type="curve" smooth="yes"/>
      <point x="1001.6" y="744.641"/>
      <point x="1006.7" y="732.851"/>
      <point x="1009.02" y="727.869" type="curve" smooth="yes"/>
      <point x="1112.41" y="505.788"/>
      <point x="1200.96" y="275.958"/>
      <point x="1308.83" y="55.9446" type="curve" smooth="yes"/>
      <point x="1316.68" y="39.9147"/>
      <point x="1335.35" y="-1.66658"/>
      <point x="1358.48" y="-1.66658" type="curve" smooth="yes"/>
      <point x="1382.7" y="-1.66658"/>
      <point x="1397.69" y="44.9141"/>
      <point x="1403.49" y="61.454" type="curve" smooth="yes"/>
      <point x="1466.94" y="242.367"/>
      <point x="1523.68" y="426.03"/>
      <point x="1585.64" y="607.545" type="curve" smooth="yes"/>
      <point x="1671.55" y="859.255"/>
      <point x="1763.31" y="1108.02"/>
      <point x="1857.21" y="1356.81" type="curve" smooth="yes"/>
      <point x="1861.16" y="1367.28"/>
      <point x="1864.62" y="1378.29"/>
      <point x="1864.62" y="1389.61" type="curve" smooth="yes"/>
      <point x="1864.62" y="1421.24"/>
      <point x="1834.79" y="1426.97"/>
      <point x="1809.41" y="1426.97" type="curve" smooth="yes"/>
      <point x="1538.95" y="1426.97" type="line" smooth="yes"/>
      <point x="1511.74" y="1426.97"/>
      <point x="1501.35" y="1415.81"/>
      <point x="1490.68" y="1392.74" type="curve" smooth="yes"/>
      <point x="1471.34" y="1350.9"/>
      <point x="1455.1" y="1290.13"/>
      <point x="1439.75" y="1245.09" type="curve" smooth="yes"/>
      <point x="1398.74" y="1124.75"/>
      <point x="1361.85" y="1002.49"/>
      <point x="1319.32" y="882.783" type="curve" smooth="yes"/>
      <point x="1317.65" y="878.067"/>
      <point x="1312.49" y="860.734"/>
      <point x="1304.39" y="860.734" type="curve" smooth="yes"/>
      <point x="1296.49" y="860.734"/>
      <point x="1290.5" y="877.073"/>
      <point x="1288.49" y="881.827" type="curve" smooth="yes"/>
      <point x="1237.73" y="1001.55"/>
      <point x="1193.06" y="1124.76"/>
      <point x="1145.42" y="1245.83" type="curve" smooth="yes"/>
      <point x="1127.34" y="1291.76"/>
      <point x="1108.37" y="1351.89"/>
      <point x="1086.68" y="1394.65" type="curve" smooth="yes"/>
      <point x="1075.64" y="1416.43"/>
      <point x="1065.09" y="1426.97"/>
      <point x="1039.1" y="1426.97" type="curve" smooth="yes"/>
      <point x="777.807" y="1426.97" type="line" smooth="yes"/>
      <point x="753.525" y="1426.97"/>
      <point x="721.388" y="1422.23"/>
      <point x="721.388" y="1390.95" type="curve" smooth="yes"/>
      <point x="721.388" y="1365.07"/>
      <point x="787.215" y="1230.02"/>
      <point x="802.082" y="1196.74" type="curve"/>
      <point x="802.581" y="1184.63" type="line"/>
      <point x="762.695" y="1071.08"/>
      <point x="725.611" y="955.588"/>
      <point x="682.692" y="843.216" type="curve" smooth="yes"/>
      <point x="680.913" y="838.557"/>
      <point x="675.164" y="820.787"/>
      <point x="667.102" y="820.787" type="curve" smooth="yes"/>
      <point x="659.005" y="820.787"/>
      <point x="653.418" y="838.769"/>
      <point x="651.712" y="843.415" type="curve" smooth="yes"/>
      <point x="604.277" y="972.588"/>
      <point x="562.564" y="1104.36"/>
      <point x="516.569" y="1234.14" type="curve" smooth="yes"/>
      <point x="499.682" y="1281.79"/>
      <point x="480.169" y="1349.44"/>
      <point x="459.453" y="1393.34" type="curve" smooth="yes"/>
      <point x="448.752" y="1416.01"/>
      <point x="438.118" y="1426.97"/>
      <point x="411.397" y="1426.97" type="curve" smooth="yes"/>
      <point x="115.479" y="1426.97" type="line" smooth="yes"/>
      <point x="90.5898" y="1426.97"/>
      <point x="59.7088" y="1421.71"/>
      <point x="59.7088" y="1390.22" type="curve" smooth="yes"/>
      <point x="59.7088" y="1378.23"/>
      <point x="63.717" y="1366.61"/>
      <point x="68.1485" y="1355.65" type="curve" smooth="yes"/>
      <point x="164.043" y="1118.57"/>
      <point x="258.552" y="881.697"/>
      <point x="347.514" y="641.872" type="curve" smooth="yes"/>
      <point x="420.665" y="444.669"/>
      <point x="488.062" y="244.902"/>
      <point x="562.94" y="48.4407" type="curve" smooth="yes"/>
      <point x="569.251" y="31.884"/>
      <point x="584.262" y="-10.0536"/>
    </contour>
  </outline>
</glyph>
<glyph name="X" format="2">
  <advance width="1262"/>
  <unicode hex="0058"/>
  <anchor x="633" y="0" name="bottom"/>
  <anchor x="633" y="1427" name="top"/>
  <outline>
    <contour>
      <point x="386.69" y="728.195" type="curve" smooth="yes"/>
      <point x="386.69" y="711.645"/>
      <point x="49.4566" y="143.754"/>
      <point x="11.195" y="77.9481" type="curve" smooth="yes"/>
      <point x="3.45438" y="64.6351"/>
      <point x="-4.97459" y="49.4949"/>
      <point x="-4.97459" y="33.5761" type="curve" smooth="yes"/>
      <point x="-4.97459" y="3.06793"/>
      <point x="32.6616" y="0"/>
      <point x="55.1362" y="0" type="curve" smooth="yes"/>
      <point x="402.572" y="0" type="line" smooth="yes"/>
      <point x="427.783" y="0"/>
      <point x="440.781" y="10.8788"/>
      <point x="450.491" y="33.2308" type="curve" smooth="yes"/>
      <point x="496.011" y="138.011"/>
      <point x="526.515" y="250.364"/>
      <point x="569.407" y="356.336" type="curve" smooth="yes"/>
      <point x="571.481" y="361.46"/>
      <point x="575.745" y="373.723"/>
      <point x="583.444" y="373.723" type="curve" smooth="yes"/>
      <point x="590.514" y="373.723"/>
      <point x="596.141" y="363.625"/>
      <point x="599.06" y="358.855" type="curve" smooth="yes"/>
      <point x="648.582" y="277.92"/>
      <point x="693.649" y="193.402"/>
      <point x="741.23" y="111.223" type="curve" smooth="yes"/>
      <point x="757.621" y="82.914"/>
      <point x="773.033" y="52.5022"/>
      <point x="791.137" y="25.3543" type="curve" smooth="yes"/>
      <point x="802.503" y="8.30949"/>
      <point x="814.137" y="0"/>
      <point x="835.315" y="0" type="curve" smooth="yes"/>
      <point x="1206.48" y="0" type="line" smooth="yes"/>
      <point x="1228.9" y="0"/>
      <point x="1266.72" y="3.01374"/>
      <point x="1266.72" y="33.5081" type="curve" smooth="yes"/>
      <point x="1266.72" y="49.5247"/>
      <point x="1258.15" y="64.7471"/>
      <point x="1250.33" y="78.1063" type="curve" smooth="yes"/>
      <point x="1212.31" y="142.98"/>
      <point x="877.292" y="702.264"/>
      <point x="877.292" y="718.619" type="curve" smooth="yes"/>
      <point x="877.292" y="734.888"/>
      <point x="1208.26" y="1284.8"/>
      <point x="1245.88" y="1348.8" type="curve" smooth="yes"/>
      <point x="1253.75" y="1362.18"/>
      <point x="1262.38" y="1377.43"/>
      <point x="1262.38" y="1393.49" type="curve" smooth="yes"/>
      <point x="1262.38" y="1423.98"/>
      <point x="1224.47" y="1426.97"/>
      <point x="1202.08" y="1426.97" type="curve" smooth="yes"/>
      <point x="865.676" y="1426.97" type="line" smooth="yes"/>
      <point x="840.967" y="1426.97"/>
      <point x="827.991" y="1416.37"/>
      <point x="818.089" y="1394.6" type="curve" smooth="yes"/>
      <point x="772.203" y="1293.73"/>
      <point x="740.551" y="1185.42"/>
      <point x="697.112" y="1083.39" type="curve" smooth="yes"/>
      <point x="694.932" y="1078.27"/>
      <point x="690.604" y="1066.62"/>
      <point x="683.015" y="1066.62" type="curve" smooth="yes"/>
      <point x="676.003" y="1066.62"/>
      <point x="670.519" y="1076.35"/>
      <point x="667.584" y="1081.11" type="curve" smooth="yes"/>
      <point x="619.66" y="1158.84"/>
      <point x="576.124" y="1240.16"/>
      <point x="530.153" y="1319.15" type="curve" smooth="yes"/>
      <point x="514.319" y="1346.36"/>
      <point x="499.432" y="1375.64"/>
      <point x="481.935" y="1401.71" type="curve" smooth="yes"/>
      <point x="470.535" y="1418.69"/>
      <point x="458.964" y="1426.97"/>
      <point x="437.808" y="1426.97" type="curve" smooth="yes"/>
      <point x="71.3835" y="1426.97" type="line" smooth="yes"/>
      <point x="48.9126" y="1426.97"/>
      <point x="11.2689" y="1423.91"/>
      <point x="11.2689" y="1393.4" type="curve" smooth="yes"/>
      <point x="11.2689" y="1377.47"/>
      <point x="19.7079" y="1362.34"/>
      <point x="27.4489" y="1349.02" type="curve" smooth="yes"/>
      <point x="64.1593" y="1285.85"/>
      <point x="386.69" y="744.254"/>
    </contour>
  </outline>
</glyph>
<glyph name="Y" format="2">
  <advance width="1272"/>
  <unicode hex="0059"/>
  <anchor x="635" y="0" name="bottom"/>
  <anchor x="690" y="1478" name="top"/>
  <anchor x="-17" y="1427" name="topleft"/>
  <outline>
    <contour>
      <point x="440.02" y="419.973" type="line"/>
      <point x="440.02" y="297.22"/>
      <point x="437.551" y="174.454"/>
      <point x="437.551" y="51.7096" type="curve" smooth="yes"/>
      <point x="437.551" y="17.1173"/>
      <point x="453.877" y="0"/>
      <point x="488.767" y="0" type="curve" smooth="yes"/>
      <point x="765.284" y="0" type="line" smooth="yes"/>
      <point x="800.112" y="0"/>
      <point x="816.498" y="17.1056"/>
      <point x="816.498" y="51.6635" type="curve" smooth="yes"/>
      <point x="816.498" y="174.383"/>
      <point x="814.253" y="297.121"/>
      <point x="814.253" y="419.848" type="curve"/>
      <point x="815.788" y="426.835" type="line"/>
      <point x="849.744" y="507.717"/>
      <point x="890.571" y="587.202"/>
      <point x="927.823" y="666.722" type="curve" smooth="yes"/>
      <point x="1035.52" y="896.613"/>
      <point x="1148.1" y="1123.78"/>
      <point x="1258.13" y="1352.48" type="curve" smooth="yes"/>
      <point x="1264" y="1364.69"/>
      <point x="1269.87" y="1377.97"/>
      <point x="1269.87" y="1391.83" type="curve" smooth="yes"/>
      <point x="1269.87" y="1422.79"/>
      <point x="1235.75" y="1426.97"/>
      <point x="1212.29" y="1426.97" type="curve" smooth="yes"/>
      <point x="862.396" y="1426.97" type="line" smooth="yes"/>
      <point x="834.983" y="1426.97"/>
      <point x="824.633" y="1415.71"/>
      <point x="814.009" y="1392.44" type="curve" smooth="yes"/>
      <point x="795.635" y="1352.19"/>
      <point x="783.824" y="1304.12"/>
      <point x="769.538" y="1261.93" type="curve" smooth="yes"/>
      <point x="730.912" y="1147.84"/>
      <point x="695.594" y="1031.91"/>
      <point x="654.711" y="918.684" type="curve" smooth="yes"/>
      <point x="653.052" y="914.09"/>
      <point x="647.442" y="895.548"/>
      <point x="639.299" y="895.548" type="curve" smooth="yes"/>
      <point x="631.194" y="895.548"/>
      <point x="625.389" y="913.874"/>
      <point x="623.659" y="918.486" type="curve" smooth="yes"/>
      <point x="581.097" y="1031.89"/>
      <point x="544.048" y="1148.05"/>
      <point x="503.707" y="1262.34" type="curve" smooth="yes"/>
      <point x="488.775" y="1304.64"/>
      <point x="476.244" y="1352.74"/>
      <point x="457.27" y="1393.06" type="curve" smooth="yes"/>
      <point x="446.518" y="1415.92"/>
      <point x="436.111" y="1426.97"/>
      <point x="409.103" y="1426.97" type="curve" smooth="yes"/>
      <point x="58.3843" y="1426.97" type="line" smooth="yes"/>
      <point x="34.6628" y="1426.97"/>
      <point x="1.2204" y="1422.53"/>
      <point x="1.2204" y="1391.52" type="curve" smooth="yes"/>
      <point x="1.2204" y="1378.04"/>
      <point x="6.66916" y="1365.12"/>
      <point x="12.2279" y="1353.14" type="curve" smooth="yes"/>
      <point x="118.48" y="1124.31"/>
      <point x="227.035" y="896.888"/>
      <point x="330.746" y="666.819" type="curve" smooth="yes"/>
      <point x="366.636" y="587.203"/>
      <point x="405.843" y="507.618"/>
      <point x="438.586" y="426.744" type="curve"/>
    </contour>
  </outline>
</glyph>
<glyph name="Z" format="2">
  <advance width="1106"/>
  <unicode hex="005A"/>
  <anchor x="569" y="0" name="bottom"/>
  <anchor x="569" y="1427" name="top"/>
  <outline>
    <contour>
      <point x="1067.57" y="1391.25" type="curve" smooth="yes"/>
      <point x="1067.57" y="1422.22"/>
      <point x="1034.87" y="1426.97"/>
      <point x="1010.76" y="1426.97" type="curve" smooth="yes"/>
      <point x="122.687" y="1426.97" type="line" smooth="yes"/>
      <point x="86.7632" y="1426.97"/>
      <point x="71.4563" y="1409.73"/>
      <point x="71.4563" y="1374.55" type="curve" smooth="yes"/>
      <point x="71.4563" y="1299.64"/>
      <point x="71.0533" y="1221.63"/>
      <point x="75.6383" y="1146.97" type="curve" smooth="yes"/>
      <point x="77.7259" y="1112.97"/>
      <point x="91.337" y="1096.43"/>
      <point x="126.877" y="1096.43" type="curve" smooth="yes"/>
      <point x="468.33" y="1096.43" type="line" smooth="yes"/>
      <point x="476.031" y="1096.43"/>
      <point x="486.307" y="1094.86"/>
      <point x="486.307" y="1084.82" type="curve" smooth="yes"/>
      <point x="486.307" y="1080.84"/>
      <point x="484.894" y="1076.95"/>
      <point x="483.341" y="1073.35" type="curve" smooth="yes"/>
      <point x="376.851" y="826.823"/>
      <point x="281.389" y="575.787"/>
      <point x="174.64" y="329.426" type="curve" smooth="yes"/>
      <point x="137.475" y="243.653"/>
      <point x="97.4169" y="159.711"/>
      <point x="57.5123" y="75.2277" type="curve" smooth="yes"/>
      <point x="51.65" y="62.8164"/>
      <point x="45.7441" y="49.3949"/>
      <point x="45.7441" y="35.3484" type="curve" smooth="yes"/>
      <point x="45.7441" y="4.20724" name=".hr01"/>
      <point x="79.8663" y="0"/>
      <point x="103.721" y="0" type="curve" smooth="yes"/>
      <point x="1002.42" y="0" type="line" smooth="yes"/>
      <point x="1038.43" y="0"/>
      <point x="1053.65" y="17.2559"/>
      <point x="1053.65" y="52.4858" type="curve" smooth="yes"/>
      <point x="1053.65" y="126.446"/>
      <point x="1053.83" y="206.507"/>
      <point x="1049.25" y="280.073" type="curve" smooth="yes"/>
      <point x="1047.14" y="314.043"/>
      <point x="1033.52" y="330.576" name=".hr02"/>
      <point x="998.012" y="330.576" type="curve" smooth="yes"/>
      <point x="623.31" y="330.576" type="line" smooth="yes"/>
      <point x="615.625" y="330.576"/>
      <point x="605.363" y="332.149"/>
      <point x="605.363" y="342.166" type="curve" smooth="yes"/>
      <point x="605.363" y="346.127"/>
      <point x="606.767" y="350.017"/>
      <point x="608.324" y="353.592" type="curve" smooth="yes"/>
      <point x="711.879" y="591.287"/>
      <point x="817.109" y="828.462"/>
      <point x="924.064" y="1064.65" type="curve" smooth="yes"/>
      <point x="967.825" y="1161.28"/>
      <point x="1013.56" y="1257.06"/>
      <point x="1057.18" y="1353.74" type="curve" smooth="yes"/>
      <point x="1062.48" y="1365.48"/>
      <point x="1067.57" y="1378.11"/>
    </contour>
    <contour>
      <point x="10.0695" y="0" type="line"/>
      <point x="19.3614" y="0" type="line"/>
      <point x="18.0174" y="-1.95212"/>
      <point x="14.932" y="-6.01084" name=".hr03"/>
      <point x="12.2991" y="-6.03202" type="curve"/>
      <point x="10.7647" y="-5.04017"/>
      <point x="10.0652" y="-2.67958"/>
      <point x="10.0652" y="-0.975716" type="curve"/>
    </contour>
  </outline>
</glyph>
<glyph name="bracketleft" format="2">
  <advance width="838"/>
  <unicode hex="005B"/>
  <outline>
    <contour>
      <point x="110.972" y="1560.87" type="curve" smooth="yes"/>
      <point x="110.972" y="1470.28"/>
      <point x="113.981" y="1379.48"/>
      <point x="115.088" y="1288.87" type="curve" smooth="yes"/>
      <point x="117.414" y="1098.46"/>
      <point x="118.575" y="908.04"/>
      <point x="118.575" y="717.618" type="curve" smooth="yes"/>
      <point x="118.575" y="494.125"/>
      <point x="116.976" y="270.632"/>
      <point x="113.786" y="47.1611" type="curve" smooth="yes"/>
      <point x="112.269" y="-59.154"/>
      <point x="108.148" y="-165.779"/>
      <point x="108.148" y="-272.065" type="curve" smooth="yes"/>
      <point x="108.148" y="-307.19"/>
      <point x="123.535" y="-324.4"/>
      <point x="159.364" y="-324.4" type="curve" smooth="yes"/>
      <point x="738.583" y="-324.4" type="line" smooth="yes"/>
      <point x="774.71" y="-324.4"/>
      <point x="789.799" y="-307.136"/>
      <point x="789.799" y="-271.855" type="curve" smooth="yes"/>
      <point x="789.799" y="-222.998"/>
      <point x="787.439" y="-173.875"/>
      <point x="786.395" y="-125.005" type="curve" smooth="yes"/>
      <point x="785.754" y="-94.9757"/>
      <point x="787.404" y="-62.9865"/>
      <point x="784.539" y="-33.2182" type="curve" smooth="yes"/>
      <point x="781.286" y="0.585922"/>
      <point x="769.74" y="17.0689"/>
      <point x="733.315" y="17.0689" type="curve" smooth="yes"/>
      <point x="483.291" y="17.0689" type="line" smooth="yes"/>
      <point x="472.54" y="17.0689"/>
      <point x="466.907" y="22.6411"/>
      <point x="466.907" y="33.4144" type="curve" smooth="yes"/>
      <point x="466.907" y="261.361"/>
      <point x="466.122" y="489.309"/>
      <point x="466.122" y="717.256" type="curve" smooth="yes"/>
      <point x="466.606" y="1253.18" type="line" smooth="yes"/>
      <point x="466.606" y="1263.95"/>
      <point x="472.228" y="1269.53"/>
      <point x="482.989" y="1269.53" type="curve" smooth="yes"/>
      <point x="730.774" y="1269.53" type="line" smooth="yes"/>
      <point x="767.328" y="1269.53"/>
      <point x="778.867" y="1286.07"/>
      <point x="782.002" y="1320.01" type="curve" smooth="yes"/>
      <point x="784.776" y="1350.04"/>
      <point x="782.997" y="1382.29"/>
      <point x="783.534" y="1412.58" type="curve" smooth="yes"/>
      <point x="784.407" y="1461.89"/>
      <point x="786.431" y="1511.38"/>
      <point x="786.431" y="1560.69" type="curve" smooth="yes"/>
      <point x="786.431" y="1595.83"/>
      <point x="771.074" y="1613.05"/>
      <point x="735.21" y="1613.05" type="curve" smooth="yes"/>
      <point x="162.192" y="1613.05" type="line" smooth="yes"/>
      <point x="126.652" y="1613.05"/>
      <point x="110.972" y="1595.81"/>
    </contour>
  </outline>
</glyph>
<glyph name="backslash" format="2">
  <advance width="678"/>
  <unicode hex="005C"/>
  <outline>
    <contour>
      <point x="221.303" y="1590.88" type="curve" smooth="yes"/>
      <point x="-8.21542" y="1590.88" type="line" smooth="yes"/>
      <point x="-34.7472" y="1590.88"/>
      <point x="-62.1085" y="1583.9"/>
      <point x="-62.1085" y="1551.79" type="curve" smooth="yes"/>
      <point x="-62.1085" y="1542.29"/>
      <point x="-59.8673" y="1532.96"/>
      <point x="-57.0731" y="1523.94" type="curve" smooth="yes"/>
      <point x="44.3065" y="1196.73"/>
      <point x="141.877" y="868.83"/>
      <point x="236.998" y="539.747" type="curve" smooth="yes"/>
      <point x="270.277" y="424.616"/>
      <point x="303.537" y="309.479"/>
      <point x="337.164" y="194.449" type="curve" smooth="yes"/>
      <point x="356.169" y="129.438"/>
      <point x="372.476" y="61.0367"/>
      <point x="395.223" y="-2.61602" type="curve" smooth="yes"/>
      <point x="404.023" y="-27.2404"/>
      <point x="417.087" y="-39.1774"/>
      <point x="444.264" y="-39.1774" type="curve" smooth="yes"/>
      <point x="670.821" y="-39.1774" type="line" smooth="yes"/>
      <point x="697.466" y="-39.1774"/>
      <point x="724.619" y="-32.0696"/>
      <point x="724.619" y="0.0641826" type="curve" smooth="yes"/>
      <point x="724.619" y="9.41972"/>
      <point x="722.462" y="18.6119"/>
      <point x="719.755" y="27.506" type="curve" smooth="yes"/>
      <point x="620.022" y="355.087"/>
      <point x="523.734" y="683.34"/>
      <point x="428.928" y="1012.38" type="curve" smooth="yes"/>
      <point x="395.756" y="1127.51"/>
      <point x="362.49" y="1242.61"/>
      <point x="328.725" y="1357.56" type="curve" smooth="yes"/>
      <point x="309.645" y="1422.52"/>
      <point x="293.187" y="1490.89"/>
      <point x="270.297" y="1554.46" type="curve" smooth="yes"/>
      <point x="261.465" y="1579"/>
      <point x="248.391" y="1590.88"/>
    </contour>
  </outline>
</glyph>
<glyph name="bracketright" format="2">
  <advance width="838"/>
  <unicode hex="005D"/>
  <outline>
    <contour>
      <point x="729.852" y="-272.065" type="curve" smooth="yes"/>
      <point x="729.852" y="-165.779"/>
      <point x="725.731" y="-59.154"/>
      <point x="724.214" y="47.1611" type="curve" smooth="yes"/>
      <point x="721.024" y="270.632"/>
      <point x="719.425" y="494.125"/>
      <point x="719.425" y="717.618" type="curve" smooth="yes"/>
      <point x="719.425" y="908.04"/>
      <point x="720.586" y="1098.46"/>
      <point x="722.912" y="1288.87" type="curve" smooth="yes"/>
      <point x="724.019" y="1379.48"/>
      <point x="727.028" y="1470.28"/>
      <point x="727.028" y="1560.87" type="curve" smooth="yes"/>
      <point x="727.028" y="1595.81"/>
      <point x="711.348" y="1613.05"/>
      <point x="675.808" y="1613.05" type="curve" smooth="yes"/>
      <point x="102.79" y="1613.05" type="line" smooth="yes"/>
      <point x="66.9264" y="1613.05"/>
      <point x="51.5689" y="1595.83"/>
      <point x="51.5689" y="1560.69" type="curve" smooth="yes"/>
      <point x="51.5689" y="1511.79"/>
      <point x="53.5767" y="1462.71"/>
      <point x="54.4445" y="1413.81" type="curve" smooth="yes"/>
      <point x="54.9774" y="1383.78"/>
      <point x="53.2069" y="1351.79"/>
      <point x="55.9676" y="1322.01" type="curve" smooth="yes"/>
      <point x="59.1132" y="1288.08"/>
      <point x="70.6318" y="1271.53"/>
      <point x="107.195" y="1271.53" type="curve" smooth="yes"/>
      <point x="355.999" y="1271.53" type="line" smooth="yes"/>
      <point x="366.761" y="1271.53"/>
      <point x="372.383" y="1265.96"/>
      <point x="372.383" y="1255.18" type="curve" smooth="yes"/>
      <point x="372.86" y="717.247" type="line" smooth="yes"/>
      <point x="372.86" y="490.307"/>
      <point x="372.098" y="263.366"/>
      <point x="372.098" y="36.427" type="curve" smooth="yes"/>
      <point x="372.098" y="25.6531"/>
      <point x="366.466" y="20.0805"/>
      <point x="355.714" y="20.0805" type="curve" smooth="yes"/>
      <point x="104.742" y="20.0805" type="line" smooth="yes"/>
      <point x="68.3311" y="20.0805"/>
      <point x="56.7545" y="3.59611"/>
      <point x="53.5184" y="-30.2104" type="curve" smooth="yes"/>
      <point x="50.632" y="-60.3634"/>
      <point x="52.2927" y="-92.7397"/>
      <point x="51.6443" y="-123.154" type="curve" smooth="yes"/>
      <point x="50.5894" y="-172.64"/>
      <point x="48.2014" y="-222.382"/>
      <point x="48.2014" y="-271.855" type="curve" smooth="yes"/>
      <point x="48.2014" y="-307.136"/>
      <point x="63.29" y="-324.4"/>
      <point x="99.4174" y="-324.4" type="curve" smooth="yes"/>
      <point x="678.636" y="-324.4" type="line" smooth="yes"/>
      <point x="714.465" y="-324.4"/>
      <point x="729.852" y="-307.19"/>
    </contour>
  </outline>
</glyph>
<glyph name="asciicircum" format="2">
  <advance width="1067"/>
  <unicode hex="005E"/>
  <outline>
    <contour>
      <point x="862.333" y="1060.98" type="curve" smooth="yes"/>
      <point x="862.333" y="1077.95"/>
      <point x="844.301" y="1097.36"/>
      <point x="833.529" y="1108.84" type="curve" smooth="yes"/>
      <point x="745.639" y="1202.52"/>
      <point x="656.921" y="1296.99"/>
      <point x="565.733" y="1387.43" type="curve" smooth="yes"/>
      <point x="555.844" y="1397.24"/>
      <point x="543.764" y="1406.28"/>
      <point x="529.178" y="1406.28" type="curve" smooth="yes"/>
      <point x="514.532" y="1406.28"/>
      <point x="502.438" y="1397.16"/>
      <point x="492.553" y="1387.28" type="curve" smooth="yes"/>
      <point x="402.162" y="1296.91"/>
      <point x="314.279" y="1202.58"/>
      <point x="226.95" y="1109.22" type="curve" smooth="yes"/>
      <point x="216.296" y="1097.83"/>
      <point x="198.075" y="1077.88"/>
      <point x="198.075" y="1061.11" type="curve" smooth="yes"/>
      <point x="198.075" y="1036.07"/>
      <point x="241.962" y="1035.46"/>
      <point x="258.548" y="1035.46" type="curve" smooth="yes"/>
      <point x="360.424" y="1035.46" type="line" smooth="yes"/>
      <point x="368.165" y="1035.46"/>
      <point x="375.839" y="1030.08"/>
      <point x="384.408" y="1030.08" type="curve" smooth="yes"/>
      <point x="429.221" y="1030.08"/>
      <point x="469.785" y="1073.17"/>
      <point x="529.026" y="1073.17" type="curve" smooth="yes"/>
      <point x="589.031" y="1073.17"/>
      <point x="630.873" y="1030.12"/>
      <point x="676.486" y="1030.12" type="curve" smooth="yes"/>
      <point x="685.138" y="1030.12"/>
      <point x="692.87" y="1035.46"/>
      <point x="700.69" y="1035.46" type="curve" smooth="yes"/>
      <point x="802.127" y="1035.46" type="line" smooth="yes"/>
      <point x="818.621" y="1035.46"/>
      <point x="862.333" y="1036.07"/>
    </contour>
  </outline>
</glyph>
<glyph name="underscore" format="2">
  <advance width="944"/>
  <unicode hex="005F"/>
  <outline>
    <contour>
      <point x="122.959" y="52.0964" type="curve" smooth="yes"/>
      <point x="122.959" y="17.2279"/>
      <point x="138.793" y="0"/>
      <point x="174.184" y="0" type="curve" smooth="yes"/>
      <point x="769.816" y="0" type="line" smooth="yes"/>
      <point x="805.207" y="0"/>
      <point x="821.041" y="17.2279"/>
      <point x="821.041" y="52.0964" type="curve" smooth="yes"/>
      <point x="821.041" y="123.986"/>
      <point x="820.88" y="197.071"/>
      <point x="818.087" y="268.878" type="curve" smooth="yes"/>
      <point x="816.763" y="302.928"/>
      <point x="801.797" y="319.578"/>
      <point x="766.858" y="319.578" type="curve" smooth="yes"/>
      <point x="177.142" y="319.578" type="line" smooth="yes"/>
      <point x="142.203" y="319.578"/>
      <point x="127.237" y="302.928"/>
      <point x="125.913" y="268.878" type="curve" smooth="yes"/>
      <point x="123.12" y="197.071"/>
      <point x="122.959" y="123.986"/>
    </contour>
  </outline>
</glyph>
<glyph name="grave" format="2">
  <advance width="758"/>
  <unicode hex="0060"/>
  <outline>
    <contour>
      <point x="455.473" y="1035.46" type="curve" smooth="yes"/>
      <point x="545.097" y="1035.46" type="line" smooth="yes"/>
      <point x="566.351" y="1035.46"/>
      <point x="608.72" y="1037.4"/>
      <point x="608.72" y="1067.43" type="curve" smooth="yes"/>
      <point x="608.72" y="1084.91"/>
      <point x="596.091" y="1103.28"/>
      <point x="586.388" y="1116.88" type="curve" smooth="yes"/>
      <point x="542.518" y="1178.38"/>
      <point x="498.068" y="1241.86"/>
      <point x="451.031" y="1300.88" type="curve" smooth="yes"/>
      <point x="440.076" y="1314.63"/>
      <point x="427.759" y="1321.63"/>
      <point x="409.881" y="1321.63" type="curve" smooth="yes"/>
      <point x="214.887" y="1321.63" type="line" smooth="yes"/>
      <point x="197.281" y="1321.63"/>
      <point x="129.406" y="1322.13"/>
      <point x="129.406" y="1293.31" type="curve" smooth="yes"/>
      <point x="129.406" y="1270.93"/>
      <point x="168.272" y="1241.34"/>
      <point x="183.926" y="1229.3" type="curve" smooth="yes"/>
      <point x="263.408" y="1168.17"/>
      <point x="342.665" y="1104.03"/>
      <point x="424.336" y="1046.02" type="curve" smooth="yes"/>
      <point x="433.931" y="1039.2"/>
      <point x="443.572" y="1035.46"/>
    </contour>
  </outline>
</glyph>
<glyph name="a" format="2">
  <advance width="1204"/>
  <unicode hex="0061"/>
  <anchor x="616" y="0" name="bottom"/>
  <anchor x="1317" y="22" name="ogonek"/>
  <anchor x="665" y="1028" name="top"/>
  <outline>
    <contour>
      <point x="476.056" y="-28.1246" type="curve" smooth="yes"/>
      <point x="581.308" y="-28.1246"/>
      <point x="672.43" y="4.21451"/>
      <point x="756.908" y="66.0233" type="curve" smooth="yes"/>
      <point x="761.968" y="69.7254"/>
      <point x="768.453" y="75.1673"/>
      <point x="775.245" y="75.1673" type="curve" smooth="yes"/>
      <point x="801.093" y="75.1673"/>
      <point x="763.395" y="0"/>
      <point x="812.376" y="0" type="curve" smooth="yes"/>
      <point x="1065.39" y="0" type="line" smooth="yes"/>
      <point x="1101.45" y="0"/>
      <point x="1116.62" y="17.2657"/>
      <point x="1116.62" y="52.5232" type="curve" smooth="yes"/>
      <point x="1116.62" y="123.891"/>
      <point x="1113.47" y="195.554"/>
      <point x="1112.31" y="266.946" type="curve" smooth="yes"/>
      <point x="1109.86" y="417.054"/>
      <point x="1108.64" y="567.18"/>
      <point x="1108.64" y="717.307" type="curve" smooth="yes"/>
      <point x="1108.64" y="784.493"/>
      <point x="1109.38" y="851.68"/>
      <point x="1109.38" y="918.861" type="curve" smooth="yes"/>
      <point x="1109.38" y="953.405"/>
      <point x="1092.92" y="970.534"/>
      <point x="1058.13" y="970.534" type="curve" smooth="yes"/>
      <point x="827.898" y="970.534" type="line" smooth="yes"/>
      <point x="776.048" y="970.534"/>
      <point x="786.971" y="903.625"/>
      <point x="763.993" y="903.625" type="curve" smooth="yes"/>
      <point x="758.864" y="903.625"/>
      <point x="754.432" y="906.896"/>
      <point x="750.547" y="909.798" type="curve" smooth="yes"/>
      <point x="673.166" y="967.58"/>
      <point x="589.171" y="997.522"/>
      <point x="492.06" y="997.522" type="curve" smooth="yes"/>
      <point x="191.576" y="997.522"/>
      <point x="53.9145" y="744.124"/>
      <point x="53.9145" y="473.699" type="curve" smooth="yes"/>
      <point x="53.9145" y="211.412"/>
      <point x="186.023" y="-28.1246"/>
    </contour>
    <contour>
      <point x="387.627" y="501.412" type="curve" smooth="yes"/>
      <point x="387.627" y="611.144"/>
      <point x="470.554" y="711.013"/>
      <point x="584.329" y="711.013" type="curve" smooth="yes"/>
      <point x="655.496" y="711.013"/>
      <point x="738.705" y="690.698"/>
      <point x="781.704" y="629.182" type="curve"/>
      <point x="782.374" y="382.55" type="line"/>
      <point x="740.353" y="323.01"/>
      <point x="665.975" y="296.549"/>
      <point x="595.251" y="296.549" type="curve" smooth="yes"/>
      <point x="476.19" y="296.549"/>
      <point x="387.627" y="381.437"/>
    </contour>
  </outline>
</glyph>
<glyph name="b" format="2">
  <advance width="1206"/>
  <unicode hex="0062"/>
  <anchor x="594" y="0" name="bottom"/>
  <anchor x="594" y="971" name="top"/>
  <outline>
    <contour>
      <point x="1151.93" y="494.531" type="curve" smooth="yes"/>
      <point x="1151.93" y="760.235"/>
      <point x="1030.99" y="1020.48"/>
      <point x="728.748" y="1020.48" type="curve" smooth="yes"/>
      <point x="625.31" y="1020.48"/>
      <point x="536.414" y="987.572"/>
      <point x="457.751" y="920.779" type="curve" smooth="yes"/>
      <point x="452.746" y="916.53"/>
      <point x="444.205" y="908.135"/>
      <point x="436.764" y="908.135" type="curve" smooth="yes"/>
      <point x="426.51" y="908.135"/>
      <point x="426.977" y="928.47"/>
      <point x="426.977" y="933.522" type="curve" smooth="yes"/>
      <point x="426.977" y="1046.16"/>
      <point x="426.124" y="1158.81"/>
      <point x="425.342" y="1271.44" type="curve" smooth="yes"/>
      <point x="424.979" y="1323.76"/>
      <point x="428.612" y="1379.62"/>
      <point x="424.073" y="1431.51" type="curve" smooth="yes"/>
      <point x="421.089" y="1465.61"/>
      <point x="409.663" y="1482.22"/>
      <point x="372.891" y="1482.22" type="curve" smooth="yes"/>
      <point x="137.423" y="1482.22" type="line" smooth="yes"/>
      <point x="101.211" y="1482.22"/>
      <point x="86.1925" y="1464.93"/>
      <point x="86.1925" y="1429.6" type="curve" smooth="yes"/>
      <point x="86.1925" y="1353.11"/>
      <point x="89.8247" y="1276.25"/>
      <point x="91.1605" y="1199.72" type="curve" smooth="yes"/>
      <point x="93.9698" y="1038.79"/>
      <point x="95.3753" y="877.831"/>
      <point x="95.3753" y="716.874" type="curve" smooth="yes"/>
      <point x="95.3753" y="566.846"/>
      <point x="94.1542" y="416.819"/>
      <point x="91.7107" y="266.811" type="curve" smooth="yes"/>
      <point x="90.5485" y="195.466"/>
      <point x="87.3882" y="123.849"/>
      <point x="87.3882" y="52.53" type="curve" smooth="yes"/>
      <point x="87.3882" y="17.2433"/>
      <point x="102.506" y="0"/>
      <point x="138.621" y="0" type="curve" smooth="yes"/>
      <point x="397.961" y="0" type="line" smooth="yes"/>
      <point x="449.917" y="0"/>
      <point x="410.88" y="84.5592"/>
      <point x="436.156" y="84.5592" type="curve" smooth="yes"/>
      <point x="443.909" y="84.5592"/>
      <point x="454.589" y="72.8587"/>
      <point x="459.27" y="68.3779" type="curve" smooth="yes"/>
      <point x="526.054" y="4.44679"/>
      <point x="604.105" y="-28.1471"/>
      <point x="697.046" y="-28.1471" type="curve" smooth="yes"/>
      <point x="982.94" y="-28.1471"/>
      <point x="1151.93" y="229.989"/>
    </contour>
    <contour>
      <point x="622.749" y="311.579" type="curve" smooth="yes"/>
      <point x="550.229" y="311.579"/>
      <point x="473.357" y="335.093"/>
      <point x="430.572" y="397.538" type="curve"/>
      <point x="431.167" y="644.152" type="line"/>
      <point x="473.641" y="703.85"/>
      <point x="552.71" y="724.983"/>
      <point x="622.634" y="724.983" type="curve" smooth="yes"/>
      <point x="738.873" y="724.983"/>
      <point x="814.417" y="621.393"/>
      <point x="814.417" y="512.082" type="curve" smooth="yes"/>
      <point x="814.417" y="403.45"/>
      <point x="734.174" y="311.579"/>
    </contour>
  </outline>
</glyph>
<glyph name="c" format="2">
  <advance width="852"/>
  <unicode hex="0063"/>
  <anchor x="408" y="0" name="bottom"/>
  <anchor x="438" y="1000" name="top"/>
  <outline>
    <contour>
      <point x="686.882" y="308.983" type="curve" smooth="yes"/>
      <point x="677.018" y="308.983"/>
      <point x="667.688" y="306.426"/>
      <point x="658.321" y="303.635" type="curve" smooth="yes"/>
      <point x="626.629" y="294.194"/>
      <point x="595.864" y="287.964"/>
      <point x="562.614" y="287.964" type="curve" smooth="yes"/>
      <point x="440.007" y="287.964"/>
      <point x="384.932" y="362.537"/>
      <point x="384.932" y="479.867" type="curve" smooth="yes"/>
      <point x="384.932" y="602.235"/>
      <point x="445.887" y="687.806"/>
      <point x="574.795" y="687.806" type="curve" smooth="yes"/>
      <point x="619.806" y="687.806"/>
      <point x="656.938" y="669.606"/>
      <point x="686.658" y="669.606" type="curve" smooth="yes"/>
      <point x="713.713" y="669.606"/>
      <point x="724.045" y="686.999"/>
      <point x="733.489" y="709.434" type="curve" smooth="yes"/>
      <point x="743.815" y="733.962"/>
      <point x="801.282" y="884.678"/>
      <point x="801.282" y="900.783" type="curve" smooth="yes"/>
      <point x="801.282" y="919.431"/>
      <point x="791.173" y="929.604"/>
      <point x="776.313" y="938.884" type="curve" smooth="yes"/>
      <point x="705.209" y="983.288"/>
      <point x="614.147" y="999.714"/>
      <point x="531.619" y="999.714" type="curve" smooth="yes"/>
      <point x="215.868" y="999.714"/>
      <point x="49.3747" y="760.066"/>
      <point x="49.3747" y="463.112" type="curve" smooth="yes"/>
      <point x="49.3747" y="171.257"/>
      <point x="205.056" y="-26.6548"/>
      <point x="508.464" y="-26.6548" type="curve" smooth="yes"/>
      <point x="586.215" y="-26.6548"/>
      <point x="697.721" y="-10.7042"/>
      <point x="767.237" y="24.4181" type="curve" smooth="yes"/>
      <point x="784.126" y="32.9509"/>
      <point x="795.401" y="43.0258"/>
      <point x="795.401" y="63.3204" type="curve" smooth="yes"/>
      <point x="795.401" y="77.9986"/>
      <point x="740.602" y="244.845"/>
      <point x="731.509" y="269.423" type="curve" smooth="yes"/>
      <point x="723.282" y="291.661"/>
      <point x="713.359" y="308.983"/>
    </contour>
  </outline>
</glyph>
<glyph name="d" format="2">
  <advance width="1208"/>
  <unicode hex="0064"/>
  <anchor x="617" y="0" name="bottom"/>
  <anchor x="946" y="1366" name="center"/>
  <anchor x="617" y="971" name="top"/>
  <anchor x="1223" y="971" name="topright"/>
  <outline>
    <contour>
      <point x="470.045" y="-28.1478" type="curve" smooth="yes"/>
      <point x="578.769" y="-28.1478"/>
      <point x="671.505" y="14.8036"/>
      <point x="752.163" y="85.3555" type="curve" smooth="yes"/>
      <point x="756.99" y="89.5784"/>
      <point x="765.227" y="97.7773"/>
      <point x="772.505" y="97.7773" type="curve" smooth="yes"/>
      <point x="800.189" y="97.7773"/>
      <point x="753.991" y="0"/>
      <point x="819.494" y="0" type="curve" smooth="yes"/>
      <point x="1069.38" y="0" type="line" smooth="yes"/>
      <point x="1105.45" y="0"/>
      <point x="1120.61" y="17.2682"/>
      <point x="1120.61" y="52.5326" type="curve" smooth="yes"/>
      <point x="1120.61" y="123.851"/>
      <point x="1117.44" y="195.468"/>
      <point x="1116.28" y="266.813" type="curve" smooth="yes"/>
      <point x="1113.83" y="416.82"/>
      <point x="1112.61" y="566.847"/>
      <point x="1112.61" y="716.874" type="curve" smooth="yes"/>
      <point x="1112.61" y="877.83"/>
      <point x="1114.02" y="1038.79"/>
      <point x="1116.83" y="1199.72" type="curve" smooth="yes"/>
      <point x="1118.17" y="1276.25"/>
      <point x="1121.81" y="1353.11"/>
      <point x="1121.81" y="1429.6" type="curve" smooth="yes"/>
      <point x="1121.81" y="1464.93"/>
      <point x="1106.78" y="1482.22"/>
      <point x="1070.58" y="1482.22" type="curve" smooth="yes"/>
      <point x="835.109" y="1482.22" type="line" smooth="yes"/>
      <point x="799.082" y="1482.22"/>
      <point x="786.171" y="1465.66"/>
      <point x="783.927" y="1431.51" type="curve" smooth="yes"/>
      <point x="780.23" y="1375.27"/>
      <point x="782.959" y="1316.75"/>
      <point x="782.573" y="1260.26" type="curve" smooth="yes"/>
      <point x="781.792" y="1146.1"/>
      <point x="780.964" y="1031.92"/>
      <point x="780.964" y="917.757" type="curve" smooth="yes"/>
      <point x="780.964" y="912.232"/>
      <point x="781.174" y="894.121"/>
      <point x="770.996" y="894.121" type="curve" smooth="yes"/>
      <point x="764.03" y="894.121"/>
      <point x="756.45" y="900.84"/>
      <point x="751.482" y="904.733" type="curve" smooth="yes"/>
      <point x="674.708" y="964.889"/>
      <point x="592.097" y="997.501"/>
      <point x="493.739" y="997.501" type="curve" smooth="yes"/>
      <point x="187.761" y="997.501"/>
      <point x="53.9952" y="756.494"/>
      <point x="53.9952" y="479.339" type="curve" smooth="yes"/>
      <point x="53.9952" y="218.831"/>
      <point x="178.33" y="-28.1478"/>
    </contour>
    <contour>
      <point x="395.495" y="500.072" type="curve" smooth="yes"/>
      <point x="395.495" y="609.389"/>
      <point x="471.059" y="713.008"/>
      <point x="587.311" y="713.008" type="curve" smooth="yes"/>
      <point x="657.683" y="713.008"/>
      <point x="737.572" y="691.863"/>
      <point x="779.774" y="631.178" type="curve"/>
      <point x="780.418" y="385.548" type="line"/>
      <point x="738.346" y="324.881"/>
      <point x="662.763" y="298.551"/>
      <point x="591.305" y="298.551" type="curve" smooth="yes"/>
      <point x="477.248" y="298.551"/>
      <point x="395.495" y="387.64"/>
    </contour>
  </outline>
</glyph>
<glyph name="e" format="2">
  <advance width="1026"/>
  <unicode hex="0065"/>
  <anchor x="563" y="0" name="bottom"/>
  <anchor x="974" y="22" name="ogonek"/>
  <anchor x="593" y="1031" name="top"/>
  <outline>
    <contour>
      <point x="559.455" y="-29.1293" type="curve" smooth="yes"/>
      <point x="678.19" y="-29.1293"/>
      <point x="840.319" y="2.03976"/>
      <point x="939.729" y="69.9294" type="curve" smooth="yes"/>
      <point x="953.966" y="79.6529"/>
      <point x="963.998" y="89.1178"/>
      <point x="963.998" y="107.645" type="curve" smooth="yes"/>
      <point x="963.998" y="123.89"/>
      <point x="912.438" y="247.308"/>
      <point x="902.273" y="267.68" type="curve" smooth="yes"/>
      <point x="893.13" y="286.002"/>
      <point x="884.31" y="303.022"/>
      <point x="860.723" y="303.022" type="curve" smooth="yes"/>
      <point x="849.412" y="303.022"/>
      <point x="839.083" y="298.715"/>
      <point x="829.045" y="294.003" type="curve" smooth="yes"/>
      <point x="760.421" y="261.787"/>
      <point x="693.176" y="233.994"/>
      <point x="615.87" y="233.994" type="curve" smooth="yes"/>
      <point x="532.133" y="233.994"/>
      <point x="457.365" y="268.33"/>
      <point x="415.331" y="342.822" type="curve" smooth="yes"/>
      <point x="413.822" y="345.495"/>
      <point x="412.694" y="348.672"/>
      <point x="412.694" y="351.778" type="curve" smooth="yes"/>
      <point x="412.694" y="358.786"/>
      <point x="418.702" y="362.254"/>
      <point x="424.408" y="364.443" type="curve" smooth="yes"/>
      <point x="467.436" y="380.952"/>
      <point x="512.283" y="394.47"/>
      <point x="555.931" y="409.404" type="curve" smooth="yes"/>
      <point x="818.919" y="499.497" type="line" smooth="yes"/>
      <point x="856.901" y="512.521"/>
      <point x="896.835" y="523.891"/>
      <point x="933.961" y="538.955" type="curve" smooth="yes"/>
      <point x="954.777" y="547.402"/>
      <point x="968.249" y="558.209"/>
      <point x="968.249" y="582.497" type="curve" smooth="yes"/>
      <point x="968.249" y="586.051"/>
      <point x="967.95" y="589.633"/>
      <point x="967.366" y="593.139" type="curve" smooth="yes"/>
      <point x="926.417" y="838.874"/>
      <point x="803.428" y="998.499"/>
      <point x="538.597" y="998.499" type="curve" smooth="yes"/>
      <point x="224.567" y="998.499"/>
      <point x="53.5707" y="778.719"/>
      <point x="53.5707" y="477.706" type="curve" smooth="yes"/>
      <point x="53.5707" y="153.033"/>
      <point x="234.407" y="-29.1293"/>
    </contour>
    <contour>
      <point x="385.352" y="539.501" type="line"/>
      <point x="392.885" y="630.818"/>
      <point x="430.239" y="718.996"/>
      <point x="535.579" y="718.996" type="curve" smooth="yes"/>
      <point x="595.515" y="718.996"/>
      <point x="632.638" y="683.069"/>
      <point x="653.08" y="629.282" type="curve"/>
    </contour>
  </outline>
</glyph>
